<svg xmlns:dc="http://purl.org/dc/elements/1.1/" xmlns:cc="http://creativecommons.org/ns#" xmlns:rdf="http://www.w3.org/1999/02/22-rdf-syntax-ns#" xmlns:svg="http://www.w3.org/2000/svg" xmlns="http://www.w3.org/2000/svg" xmlns:sodipodi="http://sodipodi.sourceforge.net/DTD/sodipodi-0.dtd" xmlns:inkscape="http://www.inkscape.org/namespaces/inkscape" version="1.1" id="svg8" inkscape:version="1.0.1 (3bc2e813f5, 2020-09-07)" sodipodi:docname="sqlfluff-wide.svg" inkscape:export-filename="C:\alanmcruickshank@gmail.com\Me.Pictures\designingoverload2\Logos\sqlfluff-wide.png" inkscape:export-xdpi="1367.8373" inkscape:export-ydpi="1367.8373" viewBox="0 -0.42 76.08 16.17">
  <defs id="defs2"/>
  <sodipodi:namedview id="base" pagecolor="#ffffff" bordercolor="#666666" borderopacity="1.0" inkscape:pageopacity="0.0" inkscape:pageshadow="2" inkscape:zoom="3.959798" inkscape:cx="120.31612" inkscape:cy="25.799905" inkscape:document-units="mm" inkscape:current-layer="layer1" showgrid="false" inkscape:window-width="1920" inkscape:window-height="1017" inkscape:window-x="1912" inkscape:window-y="-8" inkscape:window-maximized="1" inkscape:snap-others="false" inkscape:object-nodes="false" fit-margin-top="0" fit-margin-left="0" fit-margin-bottom="0" fit-margin-right="0" inkscape:document-rotation="0"/>
  <metadata id="metadata5">
    <rdf:RDF>
      <cc:Work rdf:about="">
        <dc:format>image/svg+xml</dc:format>
        <dc:type rdf:resource="http://purl.org/dc/dcmitype/StillImage"/>
        <dc:title/>
      </cc:Work>
    </rdf:RDF>
  </metadata>
  <g inkscape:label="Layer 1" inkscape:groupmode="layer" id="layer1" transform="translate(-42.772979,-82.072625)">
    <path style="fill:none;stroke:#4d4d4d;stroke-width:1.1820066;stroke-linecap:butt;stroke-linejoin:miter;stroke-miterlimit:4;stroke-dasharray:none;stroke-opacity:1" d="m 53.646879,82.719425 -7.879502,-0.05576 c -0.913556,-0.0064 -2.395103,1.044104 -2.403339,2.529629 -0.0068,1.219494 0.660619,2.146411 1.237088,2.499505 2.55014,1.561994 7.637914,4.119425 7.816492,4.252493 0.308668,0.230005 1.19008,0.960589 1.182497,2.315571 -0.0083,1.485719 -1.269347,2.618384 -2.318226,2.632948 -0.534418,0.0074 -7.832146,-0.02616 -7.832146,-0.02616" id="path4529" inkscape:connector-curvature="0" sodipodi:nodetypes="cssssssc"/>
    <path style="fill:none;stroke:#4d4d4d;stroke-width:1.1820066;stroke-linecap:butt;stroke-linejoin:miter;stroke-miterlimit:4;stroke-dasharray:none;stroke-opacity:1" d="m 63.889924,82.687308 c 1.518897,-0.0093 2.471276,1.29409 2.485259,2.442648 0.01428,1.170544 0.01529,6.826164 0.01513,9.157128 -1.18e-4,1.405757 -1.164473,2.561694 -2.555733,2.569545 -1.680865,0.0094 -4.675644,0.04739 -5.621198,0.03583 -1.229149,-0.01503 -2.457012,-1.134087 -2.485253,-2.588042 -0.01584,-0.816127 -0.02168,-8.028508 2e-6,-9.116306 0.03463,-1.737873 1.763294,-2.528312 2.527619,-2.515345 1.872553,0.03178 4.080862,0.02411 5.634174,0.01454 z" id="path4551" inkscape:connector-curvature="0" sodipodi:nodetypes="sssssssss"/>
    <path style="fill:#4d4d4d;stroke:#4d4d4d;stroke-width:0.24620874px;stroke-linecap:butt;stroke-linejoin:miter;stroke-opacity:1" d="m 60.147095,90.779779 1.170374,-0.01444 7.406768,6.358706 -1.421163,-0.01444 z" id="path4555" inkscape:connector-curvature="0"/>
    <path style="fill:none;stroke:#4d4d4d;stroke-width:1.1820066;stroke-linecap:butt;stroke-linejoin:miter;stroke-miterlimit:4;stroke-dasharray:none;stroke-opacity:1" d="m 69.396916,82.243333 c 0,0 -0.01259,10.79432 0.0077,12.019431 0.02488,1.534336 1.191062,2.472419 2.135931,2.48828 1.068254,0.01794 6.119504,-0.01 6.119504,-0.01" id="path4559" inkscape:connector-curvature="0" sodipodi:nodetypes="cssc"/>
    <path style="fill:#808080;stroke:#000000;stroke-width:0.264583px;stroke-linecap:butt;stroke-linejoin:miter;stroke-opacity:1" d="m 82.653442,82.298157 c -0.712516,0.03348 -0.968565,1.49e-4 -1.81901,0.02377 -0.710005,0.01972 -1.005834,0.286498 -1.03973,1.086756 0.01305,4.166167 0.0278,3.783817 0.0098,6.871899 0,0 1.100563,1.443614 1.076936,2.813775 -0.02363,1.370151 -0.625623,1.440631 -0.613916,2.692845 0.01193,1.275604 0.803274,1.724281 1.417485,1.700661 0.614212,-0.0236 1.487985,-0.519347 1.440739,-1.676891 -0.05018,-1.229444 -0.617662,-1.040324 -0.566891,-2.716615 0.04365,-1.441141 0.89762,-2.882492 0.89762,-2.882492 0,0 0.112015,-5.971197 0.09457,-6.779928 -0.01745,-0.808728 -0.185103,-1.167264 -0.89762,-1.133781 z m -0.897619,12.369221 c 0,0 0.755805,1.724811 -0.02377,1.701181 -0.779579,-0.0236 0.02377,-1.701181 0.02377,-1.701181 z" id="path4561-0"/>
    <path style="fill:#e6e6e6;stroke:#000000;stroke-width:0.1;stroke-linecap:butt;stroke-linejoin:miter;stroke-miterlimit:4;stroke-dasharray:none;stroke-opacity:1" d="m 80.241695,83.845326 0.200454,-0.668174 0.267269,0.618062 0.317383,-0.501132 0.133633,0.534541 0.05012,-0.56795 0.200451,0.551244 0.567949,-0.484426 0.183748,0.601357 0.06682,-0.718287 0.30068,0.684877 0.267269,-0.601356 0.150339,0.567947 0.250565,-0.601356 0.100225,0.618062 0.434313,-0.718288 0.01669,0.65147 0.567947,-0.634765 -0.0167,0.651471 0.217157,-0.618062 0.167042,0.584653 0.167044,-0.56795 0.283972,0.551244 0.183748,-0.534538 0.133636,0.534538 0.167042,-0.534538 0.116933,0.634765 0.183747,-0.768401 0.08352,0.718289 0.317382,-0.601359 0.01669,0.584653 0.150339,-0.517835 0.233861,0.484426 0.05012,-0.584653 0.116929,0.584653 0.167043,-0.534538 0.233862,0.46772 0.06682,-0.484426 0.183748,0.551244 0.150339,-0.601356 0.283972,0.634765 v -0.534538 l 0.217157,0.46772 0.300678,-0.46772 -0.0167,0.517835 0.367496,-0.584653 -0.05011,0.584653 0.217154,-0.56795 0.250566,0.601359 0.133636,-0.56795 0.100226,0.56795 0.183748,-0.601359 0.08352,0.534541 0.267269,-0.517835 -0.11693,0.517835 0.673162,-0.368684 -0.489414,0.435502 h 0.567947 l -0.668174,0.434315 0.701583,-0.0334 -0.601356,0.384197 0.417608,0.25056 -0.551244,0.300687 0.484426,0.10022 -0.317381,0.20045 0.484426,-0.0167 -0.567947,0.116937 0.618059,0.517827 -0.484426,0.0668 0.434314,0.15034 -0.434314,0.233857 0.467723,0.10023 -0.618062,0.31738 0.501132,0.0167 -0.534541,0.217147 0.56795,0.28398 -0.517835,0.0334 0.567947,0.183737 -0.501132,0.18375 0.45102,0.0668 -0.467723,0.200457 h 0.517835 l -0.567947,0.10022 0.551243,0.23386 -0.567949,0.0501 0.634765,0.10023 -0.584653,0.233857 h 0.434314 l -0.417608,0.18375 0.484426,0.233857 -0.584653,0.0668 0.618062,0.10022 -0.601356,0.11693 0.534538,0.13364 -0.467723,0.0835 0.467723,0.20045 -0.451017,0.10023 0.517835,0.11693 -0.567947,0.384204 0.517835,0.0334 -0.467723,0.233857 0.517835,0.23386 -0.501132,0.0835 0.467723,0.350787 -0.467723,-0.0167 0.417611,0.15034 -0.434314,0.13363 0.451017,0.100227 -0.384199,0.18375 h 0.367496 l -0.45102,0.18374 0.534541,0.0835 -0.517835,0.100227 0.434314,0.21716 -0.434314,0.0334 0.484426,0.11693 -0.501132,0.183747 0.467723,0.0835 -0.484426,0.11693 0.53454,0.0835 -0.484428,0.183737 0.417611,0.0835 -0.484426,0.18375 0.567947,0.18375 -0.567947,0.200447 0.58465,0.0167 -0.734989,0.33409 0.651468,0.167037 -0.534538,0.434307 0.584652,-0.100217 -0.400317,0.734984 0.433724,-0.534537 -0.01669,0.601347 0.350792,-0.584647 0.01669,0.517837 0.167045,-0.551237 0.08352,0.534527 0.278732,-0.488297 0.07206,0.438187 0.217157,-0.434307 0.133635,0.467717 0.115075,-0.471597 0.05196,0.571817 0.183748,-0.634757 -0.01669,0.618057 0.11693,-0.517827 0.100227,0.534527 0.150339,-0.551237 0.133633,0.551237 0.08352,-0.601347 0.183748,0.484417 0.484425,-0.434307 -0.334087,0.517837 0.534539,0.0668 -0.684877,0.350787 0.684877,0.0167 -0.584653,0.21716 0.56795,0.0167 -0.651471,0.11693 0.634765,0.133627 -0.651468,0.13364 0.584653,0.25056 -0.534541,0.0501 0.468309,0.567944 -0.601944,-0.451017 0.167044,0.501127 -0.367495,-0.567947 -0.200451,0.534537 -0.267272,-0.417597 0.03341,0.484417 -0.434313,-0.517827 -0.133634,0.33408 -0.217156,-0.3842 -0.167045,0.501127 -0.317381,-0.517827 -0.05012,0.501127 -0.217154,-0.501127 -0.217157,0.43431 -0.217156,-0.31738 -0.133636,0.517827 -0.06682,-0.684864 -0.317381,0.634754 -0.100227,-0.618054 -0.100227,0.567944 -0.233859,-0.501127 -0.167045,0.551237 -0.167042,-0.517827 -0.11693,0.567937 -0.08352,-0.584647 -0.567359,0.492777 0.433726,-0.793454 -0.601358,0.16705 0.634767,-0.501127 -0.451019,-0.26727 0.451019,-0.21716 -0.584652,-0.0835 0.567946,-0.23386 -0.451016,-0.15034 0.484425,-0.334087 -0.584652,-0.10022 0.567949,-0.13364 -0.601358,-0.334077 0.668173,-0.13364 -0.718285,-0.334087 0.684879,-0.10022 -0.668176,-0.20045 0.601358,-0.116927 -0.584652,-0.30068 0.584652,-0.183747 -0.53454,-0.26727 0.501131,-0.0835 -0.501131,-0.233857 0.551243,-0.28397 -0.668173,-0.0167 0.634764,-0.283977 -0.584652,-0.23386 0.634767,-0.233857 -0.584652,-0.15034 0.501128,-0.20045 -0.467719,-0.150337 0.534537,-0.15034 -0.551243,-0.16704 0.551243,-0.0835 -0.534537,-0.250567 0.601355,-0.0835 -0.618061,-0.283974 0.634764,-0.15034 -0.601355,-0.20046 0.567949,-0.0835 -0.601358,-0.267267 0.584652,-0.16704 -0.684876,-0.13363 0.734988,-0.250567 -0.567946,-0.0835 0.567946,-0.18375 -0.618058,-0.0835 0.584652,-0.15034 -0.684879,-0.13363 0.634764,-0.11693 -0.584652,-0.0501 0.65147,-0.200447 -0.551243,-0.11694 0.451016,-0.18374 -0.484425,-0.0334 0.467722,-0.133637 -0.584652,-0.13363 0.584652,-0.0334 -0.467722,-0.250567 0.501131,-0.0668 -0.551243,-0.10022 0.584652,-0.13364 -0.53454,-0.13363 0.601355,-0.0835 -0.684876,-0.21716 0.65147,-0.0167 -0.634767,-0.16704 0.634767,-0.150337 -0.618061,-0.0668 0.633749,-0.28432 -0.733976,0.0672 0.584574,-0.518847 -0.768322,0.468737 -0.03341,-0.567947 -0.451017,0.634757 -0.267268,-0.634757 -0.06682,0.634757 -0.467723,-0.634757 -0.150339,0.501127 -0.167042,-0.567947 -0.30068,0.701577 -0.100224,-0.651467 -0.150339,0.517837 -0.300681,-0.601357 -0.08352,0.668177 -0.23386,-0.601357 -0.183747,0.567947 -0.267269,-0.517837 -0.05011,0.517837 -0.450429,-0.228627 0.233272,0.328847 -0.534537,0.0501 0.517834,0.10023 -0.515635,0.185067 0.615862,0.24924 -0.5914,0.14678 0.524582,0.170607 -0.636793,0.0774 0.636793,0.0896 -0.501131,0.28397 0.484425,-0.0668 -0.501129,0.26727 0.484426,-0.16704 -0.551243,0.618057 0.684879,-0.467717 -0.250566,0.818507 0.584653,-0.751697 0.133633,0.668177 0.133635,-0.634767 0.06682,0.467717 0.300678,-0.484417 0.08352,0.601357 0.167045,-0.718287 0.150339,0.684877 0.11693,-0.534537 0.05011,0.634757 0.317383,-0.751687 -0.05011,0.501127 0.384201,-0.551247 -0.23386,0.684877 0.468305,-0.317377 -0.251151,0.400897 0.534541,-0.11693 -0.501132,0.334087 0.501132,-0.0167 -0.618062,0.16704 0.684879,0.16704 H 86.58935 l 0.651468,0.267267 -0.46772,0.0501 0.463545,0.35497 -0.613884,-0.13781 0.351377,0.43431 -0.401492,-0.28397 -0.183748,0.534537 -0.283972,-0.517837 -0.200453,0.584647 -0.100227,-0.551237 -0.23386,0.551237 -0.217159,-0.634757 -0.217156,0.684877 v -0.618057 l -0.283972,0.651467 -0.167045,-0.734987 -0.167042,0.651467 -0.200454,-0.684877 -0.217157,0.684877 -0.367495,-0.634767 -0.01669,0.634767 -0.45102,-0.651467 0.01669,0.668167 -0.434313,-0.651467 -0.367496,0.584647 v -0.567947 l -0.400904,0.634767 -0.217157,-0.668167 -0.150339,0.701577 -0.11693,-0.517837 -0.183748,0.434317 -0.05011,-0.567947 -0.250566,0.601357 -0.08352,-0.551247 -0.317383,0.534537 -0.03341,-0.534537 -0.133633,0.517837 -0.400905,-0.584657 v 0.584657 l -0.167044,-0.534537 -0.200451,0.501127 -0.250565,-0.601357 -0.618062,0.56795 0.584653,-0.81851 -0.618062,-0.0835 0.718289,-0.283977 -0.634762,-0.15034 0.835216,-0.13363 -0.935443,-0.217157 h 0.768401 l -0.80181,-0.35079 0.701583,-0.0835 -0.651471,-0.25056 0.818513,-0.0668 -1.00226,-0.33409 0.801809,-0.11693 -0.684879,-0.267267 0.663109,-0.20265 -0.679813,-0.21496 0.751695,-0.183747 -0.768398,-0.11693 0.701583,-0.21716 -0.801809,-0.334087 0.902033,-0.11693 -0.868625,-0.13363 1.169303,-0.267267 -1.135894,-0.0501 0.718286,-0.21716 -0.701582,-0.167047 0.683691,-0.16198 -0.750509,-0.372554 0.744604,0.100887 -0.560857,-0.301341 0.661256,0.200941 -0.0432,-0.618549 0.226279,0.612643 0.208036,-0.545825 -0.05011,0.701578 0.283974,-0.768396 z" id="path4573-5" inkscape:connector-curvature="0" sodipodi:nodetypes="ccccccccccccccccccccccccccccccccccccccccccccccccccccccccccccccccccccccccccccccccccccccccccccccccccccccccccccccccccccccccccccccccccccccccccccccccccccccccccccccccccccccccccccccccccccccccccccccccccccccccccccccccccccccccccccccccccccccccccccccccccccccccccccccccccccccccccccccccccccccccccccccccccccccccccccccccccccccccccccccccccccccccccccccccccccccccccccccccccccccccccccccccccccccccccccccccccccccccccccc"/>
    <path style="fill:none;stroke:#000000;stroke-width:0.0950008;stroke-linecap:butt;stroke-linejoin:miter;stroke-miterlimit:4;stroke-dasharray:none;stroke-opacity:1" d="m 79.819513,84.045338 c -0.03014,0.802107 1.283083,1.046134 1.974207,1.086184 0.756589,0.0438 1.778294,0.467897 1.793365,1.270004" id="path4569-9" inkscape:connector-curvature="0" sodipodi:nodetypes="csc"/>
    <path sodipodi:nodetypes="csc" inkscape:connector-curvature="0" id="path4571-7" d="m 79.835469,86.450696 c -0.02962,0.802144 1.260835,1.046194 1.939974,1.086244 0.74347,0.0438 1.747459,0.467917 1.762268,1.270071" style="fill:none;stroke:#000000;stroke-width:0.0941763;stroke-linecap:butt;stroke-linejoin:miter;stroke-miterlimit:4;stroke-dasharray:none;stroke-opacity:1"/>
    <path style="fill:#e6e6e6;stroke:#000000;stroke-width:0.1;stroke-linecap:butt;stroke-linejoin:miter;stroke-miterlimit:4;stroke-dasharray:none;stroke-opacity:1" d="m 94.602133,88.652951 0.555151,0.11812 -0.590587,0.18899 0.578776,-0.0472 -0.614211,0.318907 0.696894,-0.0236 -0.73233,0.34254 0.614212,0.0354 -0.47247,0.212617 0.578777,0.0591 -0.685083,0.15355 0.578776,0.0827 -0.496094,0.200797 0.507907,0.0827 -0.496094,0.16536 0.496094,0.0354 -0.555398,0.297567 0.543585,0.18672 -0.519716,0.0591 0.48428,0.0591 -0.377976,0.212607 0.496094,0.0473 -0.578776,0.11811 0.614212,0.15356 -0.614212,0.212617 0.54334,0.16536 -0.673269,0.17718 0.590587,0.0827 -0.602398,0.31891 0.626023,-0.0354 -0.507905,0.22443 0.507905,0.0945 -0.484283,0.0945 0.496094,0.10631 -0.514826,0.16166 0.526044,0.123611 -0.668031,0.18493 0.713251,0.16334 -0.635214,0.13423 0.626022,0.0945 -0.578776,0.25987 0.496094,0.10604 -0.507905,0.236484 0.482009,0.21666 -0.408866,0.244347 0.434762,0.22408 -0.496094,0.2008 0.425225,0.0827 -0.466391,0.14842 0.490013,0.18232 -0.528315,0.12563 0.729116,0.0633 c 0,0 -0.779577,0.2008 -0.720516,0.2008 l 0.637833,0.0354 -0.413411,0.342541 0.496094,-0.200801 -0.212612,0.448851 0.496094,-0.28348 -0.224422,0.566957 0.42641,-0.279177 -0.175744,0.609317 0.458039,-0.483687 -0.03544,0.543337 0.236236,-0.44885 -0.01183,0.46066 0.295294,-0.42522 0.177178,0.448837 0.212605,-0.519707 0.129929,0.42522 0.188989,-0.38979 -0.01183,0.42522 0.212612,-0.38978 0.04725,0.35435 0.165364,-0.36617 0.03543,0.42523 0.212614,-0.46066 0.0118,0.47247 0.165364,-0.42522 0.224423,0.34254 0.106307,-0.4016 0.09449,0.519707 0.118118,-0.460647 0.139124,0.562307 0.07349,-0.633177 0.153554,0.48428 0.07087,-0.42523 0.271669,0.38979 0.04725,-0.44884 0.129929,0.47246 0.129932,-0.46065 0.05906,0.33073 0.141739,-0.34254 0.04725,0.531517 0.200789,-0.555144 0.25986,0.484277 0.0826,-0.673267 0.1075,0.454337 0.14053,-0.619697 0.004,0.524607 0.34709,-0.583077 -0.2037,0.849857 0.46673,-0.437037 v 0.472467 l 0.17718,-0.42522 -0.0118,0.43703 0.14174,-0.484277 0.34251,0.531527 0.0118,-0.51972 0.16536,0.44885 0.0827,-0.472467 0.20084,0.484277 0.0709,-0.484277 0.36621,0.519717 -0.26618,-0.580797 0.53786,0.450867 -0.4961,-0.626027 0.55945,0.0928 -0.65394,-0.435351 0.54334,-0.14174 -0.48428,-0.12993 0.49609,-0.10631 -0.51972,-0.129934 0.56697,-0.10631 -0.55516,-0.1063 0.51972,-0.295287 -0.47247,0.0354 0.46066,-0.177177 -0.43704,-0.12993 0.47248,-0.12993 -0.48429,-0.118117 0.51972,-0.15355 -0.57878,-0.0945 0.53153,-0.14174 -0.48428,-0.0827 0.48428,-0.177184 -0.59059,-0.33073 0.59059,-0.118117 -0.56696,-0.0945 0.56696,-0.14174 -0.44885,-0.0591 0.44885,-0.200801 -0.46066,-0.11812 0.48429,-0.0945 -0.54334,-0.1063 0.49609,-0.14175 -0.53153,-0.0591 0.54334,-0.27167 -0.51972,-0.2008 0.4961,0.0118 -0.44885,-0.188987 0.4961,-0.0945 -0.51972,-0.11812 0.49609,-0.295287 -0.51972,-0.17718 0.54335,-0.0945 -0.57878,-0.0827 0.62602,-0.141737 -0.54334,-0.27166 0.48428,-0.0945 -0.59059,-0.0236 0.64965,-0.177177 -0.61421,-0.0827 0.54334,-0.0827 -0.55515,-0.377967 0.62602,0.0236 -0.55515,-0.25986 0.46066,0.0709 -0.42523,-0.318917 0.47248,0.0236 -0.57878,-0.25986 0.57878,0.0354 -0.46067,-0.389787 0.62603,0.330727 -0.2953,-0.389777 0.4016,0.413407 0.0591,-0.413407 0.23624,0.484277 0.2008,-0.425227 -0.0354,0.472467 0.34255,-0.555147 0.0709,0.578777 0.14175,-0.578777 0.1063,0.566967 0.17718,-0.531527 0.2363,0.519707 0.11812,-0.496087 0.11812,0.507907 0.11812,-0.531527 0.15355,0.496087 0.1063,-0.637837 0.15358,0.626027 0.4016,-0.543337 -0.25986,0.637827 0.42523,-0.21261 -0.43704,0.401597 0.46066,-0.0591 -0.38979,0.413407 0.36617,0.0118 -0.42523,0.2008 0.46066,0.0118 -0.41341,0.18899 0.44885,0.0827 -0.4961,0.0709 0.4961,0.0945 -0.53153,0.330727 0.51972,0.11811 -0.47247,0.0945 0.43703,0.23623 -0.48428,0.1063 0.55515,0.0354 -0.47247,0.283494 0.41341,-0.0472 -0.46066,0.22442 0.47247,0.0591 -0.48428,0.14174 0.47247,0.0709 -0.44884,0.2008 0.5079,0.0591 -0.49609,0.12993 0.43703,0.141741 -0.46066,0.15356 0.59059,0.0236 -0.79139,0.21261 0.72052,-0.0354 -0.56696,0.259857 0.53153,0.0472 -0.43704,0.15355 h 0.37798 l -0.31892,0.0945 0.35435,0.106307 -0.46066,0.14174 0.59059,0.11812 -0.76776,0.1063 0.67327,0.12993 -0.55516,0.153554 0.54335,0.11812 -0.4961,0.17718 0.42522,0.0473 -0.42522,0.165357 0.46066,0.0473 -0.41341,0.3071 0.36616,-0.0236 -0.4016,0.307107 0.42523,0.0473 -0.44885,0.10631 0.47247,0.0709 -0.46066,0.259861 0.42522,-0.0118 -0.37797,0.2008 0.43703,0.0236 -0.51971,0.236231 0.49609,0.0354 -0.48428,0.17718 0.49609,-0.0473 -0.46066,0.354347 0.44885,-0.0473 -0.42522,0.2953 0.57877,-0.2953 -0.34254,0.4016 0.46066,-0.507897 -0.11812,0.460657 0.33073,-0.37798 -0.0118,0.626017 0.21261,-0.673264 0.20076,0.626024 0.0945,-0.626024 0.15355,0.377977 0.0236,-0.33073 0.31976,0.524607 -0.14262,-0.548227 0.37882,0.48917 -0.23623,-0.519707 0.43703,0.377967 -0.26998,-0.542497 0.2936,0.0936 c 0,0 -0.36389,-0.463281 -0.36389,-0.41603 0,0.0473 0.36389,0.0735 0.36389,0.0735 l -0.39789,-0.322971 0.32702,-0.0196 -0.2812,-0.1582 0.38751,-0.0662 -0.43071,-0.199371 0.38346,-0.0251 -0.41055,-0.21261 0.48142,-0.0354 -0.48142,-0.160467 0.53702,-0.15869 -0.57591,-0.15019 0.37832,-0.190677 -0.33048,-0.21404 0.44885,-0.0473 -0.47247,-0.0945 0.5079,-0.0945 -0.70954,-0.123024 0.63784,-0.0709 -0.50791,-0.22442 0.46065,-0.12993 -0.46065,-0.200797 0.42522,-0.0591 -0.44884,-0.1063 0.54334,-0.11812 -0.62603,-0.118117 0.54334,-0.0473 -0.53153,-0.16536 0.53153,-0.0354 -0.48428,-0.16537 0.54334,-0.141741 -0.51971,-0.14174 0.43703,-0.0473 c 0,0 -0.53153,-0.0945 -0.48428,-0.1063 0.0473,-0.0118 0.53153,-0.0591 0.53153,-0.0591 l -0.47247,-0.212607 0.59059,-0.0118 -0.68509,-0.27168 0.63784,-0.0709 -0.61421,-0.165364 0.53153,-0.0945 -0.55516,-0.2008 0.57878,0.0118 -0.6024,-0.12993 0.61421,-0.0827 -0.5079,-0.14174 0.55515,-0.0591 -0.61421,-0.0945 0.61421,-0.11812 -0.57878,-0.129927 0.48428,-0.16536 -0.54334,-0.10631 0.6024,-0.0473 -0.6024,-0.18899 0.55516,-0.0472 -0.50791,-0.17717 0.56697,-0.0473 -0.60241,-0.271667 0.57878,0.141737 -0.6024,-0.354347 0.53153,0.11812 -0.49609,-0.484287 0.66146,0.366167 -0.0591,-0.460657 0.2953,0.507897 0.15355,-0.496087 0.21262,0.437037 0.1536,-0.484287 0.25983,0.626027 0.16536,-0.578777 0.0709,0.496087 0.16537,-0.448837 0.0472,0.531527 0.0827,-0.578777 0.11811,0.566967 0.15356,-0.602407 0.0591,0.425227 0.22442,-0.401597 0.0354,0.496087 0.14175,-0.507897 0.059,0.437027 0.28349,-0.401597 -0.0236,0.460657 0.17717,-0.437027 0.0473,0.484277 0.33066,-0.590587 -0.0709,0.543337 0.24805,-0.507907 0.0591,0.448847 0.22442,-0.425217 0.15362,0.484277 0.21261,-0.484277 0.15352,0.531527 0.22446,-0.555157 0.0472,0.519717 0.61426,-0.484277 -0.47246,0.661457 0.53152,-0.0827 -0.55515,0.318917 0.50791,0.0236 -0.47247,0.2008 0.5079,0.0236 -0.67327,0.3071 0.64965,0.0472 -0.54334,0.23624 0.46066,0.0236 -0.4961,0.200797 0.54334,-0.0118 -0.46065,0.35435 0.44884,-0.11812 -0.55515,0.295297 0.5079,0.0591 -0.54334,0.21261 0.6024,0.0354 -0.5079,0.188987 0.44884,-0.0118 -0.46066,0.24805 0.51972,0.0354 -0.41341,0.200797 0.4961,0.14174 -0.59059,0.29529 0.49609,0.0118 -0.57877,0.165371 0.60239,0.0709 -0.54334,0.29529 0.62603,0.0709 -0.61422,0.18899 0.57878,-0.0236 -0.49609,0.27167 h 0.43703 l -0.48428,0.177174 0.50791,0.0945 -0.59059,0.0945 0.74414,0.236244 -0.67327,0.11812 0.43703,0.0118 -0.59058,0.23623 0.64964,0.0236 -0.49609,0.153557 0.62602,0.0118 -0.62602,0.16536 0.5079,0.0827 -0.53153,0.11812 0.61422,0.0709 -0.63784,0.200797 0.57878,0.0473 -0.59059,0.16536 0.53153,0.0118 -0.53153,0.141751 0.6024,0.22442 -0.54334,0.0591 0.59059,0.11811 -0.61422,0.0827 0.4961,0.118121 -0.4961,0.31892 0.63784,-0.0118 -0.76776,0.342537 0.69689,-0.2008 -0.29529,0.555147 0.49609,-0.602384 -0.10631,0.531527 0.30711,-0.4961 -0.0472,0.50791 0.18899,-0.47247 0.2008,0.496087 0.0945,-0.519717 0.0709,0.46066 0.22442,-0.43703 0.16536,0.46066 0.0118,-0.47248 0.48191,0.45147 -0.36844,-0.610257 0.50015,0.12336 -0.51685,-0.4955 0.38751,-0.106911 -0.47247,-0.15356 0.44885,-0.0236 -0.30711,-0.17717 0.43704,-0.0827 -0.46656,-0.206711 0.42521,-0.21261 -0.56105,-0.0768 0.56105,-0.177157 -0.5138,-0.11811 0.48428,-0.17717 -0.42523,-0.242137 0.44295,-0.16537 -0.5079,-0.14174 0.38388,-0.165374 -0.33664,-0.12402 0.47837,-0.23624 -0.5079,-0.0236 0.49609,-0.165364 -0.5079,-0.0354 0.53152,-0.16537 -0.46066,-0.18899 0.47248,-0.271667 -0.59059,-0.0354 0.51972,-0.20079 -0.53153,-0.0945 0.53153,-0.0354 -0.48429,-0.15355 0.47248,-0.0945 -0.54334,-0.0354 0.62602,-0.259867 -0.53153,-0.12992 0.57877,-0.0591 -0.56696,-0.23623 0.51972,-0.0473 -0.51972,-0.24805 0.42522,-0.14174 -0.51971,-0.106297 0.55515,-0.28348 -0.51972,-0.0236 0.56696,-0.10631 -0.55515,-0.177167 h 0.64965 l -0.66146,-0.27168 0.63784,-0.0118 -0.63784,-0.22442 0.54334,-0.14174 -0.63783,-0.0591 0.63783,-0.21261 -0.5079,-0.0945 0.48428,-0.0354 -0.64965,-0.37798 0.6024,0.18899 -0.3071,-0.590587 0.46656,0.584687 -0.0767,-0.513817 0.31301,0.484287 0.15355,-0.478377 0.14773,0.702797 0.0827,-0.555147 0.12993,0.448837 0.12993,-0.590587 0.22443,0.552197 0.11812,-0.637827 0.20671,0.688027 0.2067,-0.522657 0.21856,0.507897 -0.0414,-0.614207 0.20671,0.558107 0.32482,-0.519717 -0.0591,0.507897 0.23624,-0.484277 0.16535,0.531527 0.0236,-0.478377 0.37798,0.431127 -0.24805,-0.555147 0.50791,0.271667 -0.33663,-0.348447 0.28938,-0.0177 -0.35435,-0.248037 0.4518,-0.16241 -0.55811,-0.19194 0.56697,-0.253947 -0.51972,-0.17128 0.44885,-0.448827 -0.57878,0.259857 0.21261,-0.484277 -0.36616,0.484277 -0.0945,-0.484287 -0.15356,0.484287 -0.24805,-0.460657 -0.059,0.472467 -0.33073,-0.437037 -0.23624,0.460657 -0.0827,-0.578767 -0.23624,0.555147 -0.0472,-0.507907 -0.15356,0.519717 -0.23624,-0.555147 -0.0827,0.519707 -0.0945,-0.543334 -0.33072,0.661454 0.0473,-0.602397 -0.31893,0.543337 -0.0118,-0.590577 -0.46065,0.673267 0.41342,-0.838634 -0.61421,0.248047 0.66144,-0.425227 -0.62602,-0.11811 0.73234,-0.0118 -0.75596,-0.212617 0.59059,-0.0827 -0.57877,-0.0591 0.61421,-0.0709 -0.76776,-0.271667 h 0.72052 l -0.46066,-0.15355 0.51971,0.0236 -0.61422,-0.342537 0.55517,0.153557 -0.24806,-0.637844 0.44442,0.600924 -0.0901,-0.506427 0.3307,0.543347 0.14174,-0.377987 0.0591,0.318927 0.16537,-0.543347 0.12992,0.649647 0.0473,-0.602397 0.16537,0.543337 0.33072,-0.460657 -0.059,0.507907 0.36621,-0.590587 0.10631,0.673267 0.11811,-0.755954 0.0709,0.555154 0.11811,-0.413407 0.0945,0.519717 0.17717,-0.543347 0.11812,0.555157 0.15355,-0.472467 -0.0118,0.472467 0.27167,-0.543347 0.30563,0.521877 -0.21105,-0.710854 0.47175,0.162777 -0.55443,-0.458077 0.5079,-0.11812 -0.63784,-0.0827 0.68509,-0.24805 -0.59059,0.0236 0.66146,-0.22442 -0.62602,-0.0354 0.69689,-0.484287 -0.75595,0.248047 0.18899,-0.496094 -0.31892,0.507907 -0.17718,-0.543343 -0.0945,0.566965 -0.18899,-0.54334 -0.0827,0.566965 -0.2008,-0.484283 -0.0827,0.555152 -0.0709,-0.578776 -0.18898,0.519718 -0.25986,-0.496094 -0.0118,0.543341 -0.33073,-0.496094 -0.12993,0.496094 -0.0354,-0.543341 -0.37797,0.484283 v -0.66143 l -0.21262,0.696894 -0.29529,-0.661459 -0.0236,0.685081 -0.29529,-0.53153 0.0236,0.448847 -0.35436,-0.507904 -0.11811,0.54334 -0.10631,-0.531529 -0.11812,0.54334 -0.18899,-0.519716 -0.14174,0.578776 -0.22442,-0.578776 -0.0236,0.566963 -0.31892,-0.543341 0.10631,0.555154 -0.57878,-0.555154 0.40747,0.608306 -0.55516,-0.05906 0.56697,0.271678 0.1004,0.065 -0.85044,0.0709 0.88588,0.0827 -0.74414,0.0827 0.57877,0.141747 -0.56696,0.0945 0.73233,0.14175 -0.62603,0.1063 0.66146,0.14175 -0.7087,0.0473 0.64964,0.18898 -0.57877,0.18899 0.47247,0.0118 -0.51972,0.200797 0.87407,0.0118 -0.92132,0.17718 0.56697,0.0827 -0.63784,0.200797 0.63784,-0.0118 -0.94494,0.23623 0.92131,0.0591 -0.51971,0.236237 0.59058,-0.0473 -0.51971,0.24804 0.46066,0.14175 -0.61422,-0.0118 0.63784,0.271667 -0.75595,-0.14175 0.82682,0.519717 -0.90951,-0.448837 0.30711,0.437027 -0.63783,-0.460657 0.18898,0.531527 -0.3071,-0.519717 -0.10631,0.42523 -0.12993,-0.42523 -0.1063,0.519717 -0.27167,-0.566957 0.0118,0.496087 -0.38979,-0.366157 0.0709,0.460657 -0.31892,-0.590587 -0.0591,0.555147 -0.1063,-0.425217 -0.0709,0.460657 -0.25986,-0.531527 -0.0591,0.519707 -0.16536,-0.602397 -0.0945,0.543337 -0.16536,-0.507897 -0.16537,0.555147 -0.11812,-0.543337 -0.16536,0.578777 -0.24805,-0.566967 0.0118,0.637837 -0.22442,-0.708707 -0.0591,0.649647 -0.27166,-0.661454 -0.16537,0.566954 -0.0709,-0.519707 -0.24804,0.590587 0.0591,-0.578777 -0.46066,0.42522 0.5079,-0.685077 -0.54334,0.0591 0.54334,-0.15355 -0.57878,-0.18899 0.73233,-0.0472 -0.74413,-0.15355 0.53152,-0.21262 -0.57878,-0.165367 0.63784,-0.15354 -0.61421,-0.14175 0.75595,-0.1063 -0.74415,-0.224427 0.64965,0.0827 -0.36617,-0.49609 0.50791,0.50791 -0.0354,-0.47248 0.28347,0.496097 0.17718,-0.401597 0.1476,0.525617 0.18312,-0.655547 0.21261,0.614207 0.0827,-0.578777 0.18901,0.696897 0.0709,-0.744147 0.12993,0.696897 0.29526,-0.661457 0.0354,0.519717 0.14174,-0.437037 0.0472,0.637837 0.23626,-0.673267 0.0827,0.649647 0.11812,-0.708707 0.28354,0.566967 -0.11812,-0.578777 0.51972,0.578777 -0.42523,-0.649647 0.4961,0.24805 -0.54334,-0.49021 0.5079,-0.14764 -0.47247,-0.0945 0.66146,-0.0473 -0.66146,-0.11812 0.43704,-0.14174 -0.48428,-0.0354 0.68507,-0.330732 -0.86225,-0.01182 0.75595,-0.389787 -0.89769,0.34254 0.0236,-0.460658 -0.34254,0.484283 -0.2953,-0.413412 -0.0118,0.413412 -0.46066,-0.437036 -0.0236,0.472471 -0.36617,-0.484282 -0.35435,0.531529 -0.0196,-0.630916 -0.16477,0.629481 -0.17001,-0.494659 -0.0591,0.578776 -0.24435,-0.537854 -0.12183,0.407925 -0.21261,-0.496093 -0.25986,0.460658 -0.10631,-0.496094 -0.22442,0.54334 -0.25986,-0.566965 -0.0118,0.566965 -0.35435,-0.661458 -0.17718,0.696894 -0.17717,-0.54334 0.14174,0.54334 -0.63784,-0.248047 0.50791,0.318918 -0.37798,0.200801 0.44885,-0.0591 -0.67327,0.2008 0.61421,0.0945 c 0,0 -0.63784,0.153547 -0.54334,0.153547 0.0945,0 0.54334,0.0118 0.54334,0.0118 l -0.6969,0.22442 0.67328,0.0827 -0.57878,0.0354 0.72052,0.271683 h -0.6024 l 0.49609,0.0827 -0.59059,0.17717 0.63784,0.248047 -0.56697,0.0945 0.72052,0.0709 -0.79139,0.14175 0.68509,0.0827 -0.75596,0.248037 0.68508,0.17718 -0.61421,0.0709 0.6024,0.307087 -0.62602,0.0118 0.63783,0.21262 h -0.46065 l 0.53153,0.34254 -0.56697,-0.25986 0.23624,0.626017 -0.43704,-0.602397 -0.0236,0.602397 -0.18899,-0.590587 -0.12993,0.507907 -0.2008,-0.484277 -0.0827,0.531517 -0.21261,-0.519707 -0.2008,0.519707 -0.0827,-0.531517 -0.27167,0.543337 -0.0354,-0.519717 -0.28348,0.602397 -0.11812,-0.566967 -0.4016,0.496097 0.0236,-0.519717 -0.21261,0.484277 -0.17718,-0.555147 -0.0118,0.626017 -0.12993,-0.578767 -0.12993,0.543337 -0.3071,-0.614207 0.12992,0.590577 -0.38978,-0.578767 0.0945,0.519707 -0.23623,-0.507897 -0.0945,0.543337 -0.0472,-0.519717 -0.17717,0.578777 -0.11813,-0.602397 -0.21261,0.602397 -0.25986,-0.626017 0.0562,0.569577 -0.5641,-0.522337 0.44657,0.653697 -0.49382,-0.0277 0.64965,0.28349 -0.48429,0.0236 0.48429,0.330727 -0.56697,0.0591 0.48428,0.15355 -0.59058,0.0354 0.66146,0.188987 -0.61422,0.0591 0.55515,0.28348 -0.67326,0.118117 0.69689,0.3071 -0.50791,0.0591 0.6024,0.106307 -0.67327,0.0945 0.57878,0.16536 -0.69689,-0.0118 0.73233,0.248053 -0.67328,0.0354 0.72052,0.15355 -0.79139,0.0827 0.73233,0.295287 -0.54334,0.10631 0.47247,0.0709 -0.48428,0.0827 0.56697,0.307097 -0.53153,0.0354 0.46065,0.17717 -0.5079,0.10631 0.53153,0.10631 -0.44885,0.141737 0.35435,0.0945 h -0.48428 l 0.55515,0.17717 -0.53153,0.0354 0.60241,0.23624 -0.59059,-0.0473 0.62602,0.4016 -0.73233,-0.0118 0.67327,0.271681 -0.64965,0.0827 0.73233,0.248046 -0.7087,0.2008 0.6024,0.18899 -0.56697,0.165364 0.68508,0.12184 -0.73351,0.26426 0.62721,0.263564 -0.55515,0.0827 0.49609,0.24805 -0.85045,-0.0709 0.67327,0.413407 -0.7087,-0.3071 0.41341,0.578767 -0.57878,-0.448837 0.13482,0.697727 -0.359243,-0.626867 -0.129929,0.507907 -0.248047,-0.578767 -0.0729,0.699747 -0.219532,-0.479977 -0.13423,0.534987 -0.18469,-0.494657 -0.144603,0.330477 -0.05738,-0.507897 -0.273349,0.566957 -0.259858,-0.661457 0.02363,0.626027 c 0,0 -0.188987,-0.685087 -0.212611,-0.602397 -0.02363,0.0827 -0.248047,0.555147 -0.248047,0.555147 l -0.08697,-0.365317 -0.09019,0.412567 -0.129929,-0.519717 -0.342543,0.484277 -0.02363,-0.543337 -0.38979,0.425217 0.401601,-0.555147 h -0.6024 l 0.755951,-0.165357 -0.732329,-0.12993 0.566965,-0.0827 -0.755952,-0.295304 0.862256,0.0354 -0.732327,-0.2008 0.696894,-0.16535 c 0,0 -0.815012,-0.188984 -0.708708,-0.188984 0.106307,0 0.815012,-0.0473 0.815012,-0.0473 l -0.649647,-0.16537 0.472472,-0.12993 -0.67327,-0.0945 0.661459,-0.11812 c 0,0 -0.578776,-0.1063 -0.519719,-0.14174 0.05906,-0.0354 0.649648,-0.1063 0.649648,-0.1063 l -0.555154,-0.259871 0.649647,-0.18899 -0.590587,-0.0118 0.413411,-0.21261 -0.661458,-0.0354 0.720516,-0.16536 -0.507905,-0.0945 0.519716,-0.11812 -0.507905,-0.11812 0.502175,-0.194707 -0.608479,-0.21869 c 0.08268,0 0.693188,-0.0709 0.693188,-0.0709 l -0.705002,-0.177177 0.649648,-0.0945 -0.637468,-0.21822 0.836711,-0.009 -0.78983,-0.233617 0.598939,-0.15473 -0.539882,-0.17599 0.543341,-0.259873 -0.472469,-0.079 0.507904,-0.21631 -0.502767,-0.0784 0.513393,-0.18434 -0.671489,-0.12074 0.649892,-0.0743 -0.428437,-0.150087 0.408274,-0.10368 -0.630324,-0.17431 0.649647,-0.0827 -0.685083,-0.165357 0.578776,-0.13567 -0.496093,-0.21869 0.496093,-0.10631 -0.519715,-0.106297 0.598939,-0.17204 -0.636994,-0.0855 0.652266,-0.356627 -0.732329,0.16537 0.07087,-0.54334 -0.2008,0.602397 -0.08268,-0.413407 -0.224425,0.507897 -0.118118,-0.566957 -0.167142,0.532357 -0.399819,-0.520547 0.03484,0.437627 -0.601811,-0.402197 0.566965,0.637837 -0.777201,-0.24162 0.741765,0.39517 -0.696894,0.0473 0.619698,0.263557 -0.541314,0.0824 0.594886,0.23279 z" id="path4575-4" inkscape:connector-curvature="0" sodipodi:nodetypes="cccccccccccccccccccccccccccccccccccccccccccccccccccccccccccccccccccccccccccccccccccccccccccccccccccccccccccccccccccccccccccccccccccccccccccccccccccccccccccccccccccccccccccccccccccccccccccccccccccccccccccccccccccccccccccccccccccccccccccccccccccccccccccccccccccccccccccccccccccscccccccccccccccccccccccccccccccccccccccccccccccccccccccccccccccccccccccccccccccccccccccccccccccccccccccccccccccccccccccccccccccccccccccccccccccccccccccccccccccccccccccccccccccccccccccccccccccccccccccccccccccccccccccccccccccccccccccccccccccccccccccccccccccccccccccccccccccccccccccccccccccccccccccccccccccccccccccccccccccccccccccccccccccccccccccccccccccccccccccccccccccccccccccccccccccccccccccccccccccccccccccccccccccccccccccccccccccccccccccccccccccccccccccccccccccccccccccccccccccccccccccccccccccccccccccccccsccccccccccccccccccccccccccccccccccccccccccccccccccccccccccccccccccccccccccccccccccccccccccccccccccccccccccccccccccccccccccccccccccccccccccccccsccccccccccccccccccccccccccccccccccccccccccccccccccccccccccccccc"/>
  </g>
</svg>
