<svg xmlns:dc="http://purl.org/dc/elements/1.1/" xmlns:cc="http://creativecommons.org/ns#" xmlns:rdf="http://www.w3.org/1999/02/22-rdf-syntax-ns#" xmlns:svg="http://www.w3.org/2000/svg" xmlns="http://www.w3.org/2000/svg" xmlns:sodipodi="http://sodipodi.sourceforge.net/DTD/sodipodi-0.dtd" xmlns:inkscape="http://www.inkscape.org/namespaces/inkscape" version="1.1" id="svg8" inkscape:version="1.0.1 (3bc2e813f5, 2020-09-07)" sodipodi:docname="sqlfluff-lrg-border.svg" inkscape:export-filename="C:\alanmcruickshank@gmail.com\Me.Pictures\designingoverload2\Logos\sqlfluff-lrg-border.png" inkscape:export-xdpi="299.98901" inkscape:export-ydpi="299.98901" viewBox="-0.61 -0.73 41.63 34.89">
  <defs id="defs2"/>
  <sodipodi:namedview id="base" pagecolor="#ffffff" bordercolor="#666666" borderopacity="1.0" inkscape:pageopacity="0.0" inkscape:pageshadow="2" inkscape:zoom="3.959798" inkscape:cx="140.25475" inkscape:cy="91.418613" inkscape:document-units="mm" inkscape:current-layer="layer1" showgrid="false" inkscape:window-width="1920" inkscape:window-height="1017" inkscape:window-x="1912" inkscape:window-y="-8" inkscape:window-maximized="1" inkscape:snap-others="false" inkscape:object-nodes="false" fit-margin-top="0" fit-margin-left="0" fit-margin-bottom="0" fit-margin-right="0" inkscape:document-rotation="0"/>
  <metadata id="metadata5">
    <rdf:RDF>
      <cc:Work rdf:about="">
        <dc:format>image/svg+xml</dc:format>
        <dc:type rdf:resource="http://purl.org/dc/dcmitype/StillImage"/>
        <dc:title/>
      </cc:Work>
    </rdf:RDF>
  </metadata>
  <g inkscape:label="Layer 1" inkscape:groupmode="layer" id="layer1" transform="translate(-78.279172,-64.108923)">
    <path style="fill:#ffffff;stroke:none;stroke-width:0.264583px;stroke-linecap:butt;stroke-linejoin:miter;stroke-opacity:1" d="m 84.777162,90.334745 c 0.889637,-0.0022 0.971759,-0.01002 1.5368,0 0.945878,0.01678 0.939787,0.129118 0.946223,0.584736 0.01919,1.358267 0.04026,4.599509 0.03696,6.352219 -9.67e-4,0.514092 0.255141,0.929975 1.004632,0.930791 9.059575,0.0099 17.264673,0.1256 26.465003,0.0339 0.73542,-0.0073 1.11989,-0.411612 1.11674,-1.196221 -0.006,-1.490405 -0.0175,-4.076651 -0.0201,-5.693028 -6.3e-4,-0.402637 -0.0538,-1.117554 0.71088,-1.136595 0.63093,-0.01571 0.73818,-0.03273 1.76586,-0.0432 0.87075,-0.0089 0.95286,-0.715526 0.95821,-1.698088 0.0178,-3.281254 -0.0404,-4.801666 -0.01,-8.010927 0.005,-0.543311 -0.51973,-1.032639 -1.06014,-1.010003 -2.11948,0.08878 -4.95011,0.07205 -7.40876,0.02187 -0.5487,-0.0112 -1.60374,-0.679244 -1.60519,-2.186556 -0.003,-2.845476 -0.011,-9.487394 0.019,-12.757609 0.005,-0.543123 -0.23358,-1.094452 -1.11933,-1.092006 -8.869754,0.02449 -17.058819,0.02223 -26.165974,-0.05095 -0.879129,-0.0071 -1.83562,0.314043 -2.769039,1.016535 -1.121086,0.84373 -1.519464,2.245647 -1.511675,3.424793 0.02112,3.197291 2.474603,4.129621 5.124786,5.530597 4.083715,2.158789 7.247423,3.201596 7.175109,4.49092 -0.08438,1.504412 -0.770286,1.68054 -1.108572,1.846927 -0.201913,0.09931 -1.302453,0.168047 -1.697238,0.173915 -1.92291,0.02858 -4.395705,-0.06416 -6.825447,-0.09716 -1.723789,-0.02342 -2.171321,-0.155811 -2.169495,0.648754 0.0071,3.147872 -0.01904,5.543066 -0.02674,8.868408 -0.0012,0.540258 0.689594,0.929254 0.966477,1.316083 0.321527,0.449199 0.705215,1.1758 0.776158,1.836638 0.06108,0.568975 -0.11286,1.07772 -0.317383,1.687138 -0.178744,0.532607 -0.453391,1.077683 -0.400903,1.637026 0.06402,0.682243 0.225099,1.315881 0.85192,1.870887 0.398389,0.352745 1.132362,0.614017 1.653731,0.618059 0.655922,0.0051 1.335385,-0.396483 1.854183,-0.952145 0.292372,-0.313148 0.437374,-0.911079 0.467721,-1.403166 0.05733,-0.929708 -0.499689,-1.718705 -0.551243,-2.739513 -0.03499,-0.692789 0.135255,-1.220576 0.417608,-1.854182 0.14758,-0.331172 0.556173,-0.967934 0.918739,-0.968842 z" id="path22" sodipodi:nodetypes="ssssssssssssssssssssssssssssasasssassss"/>
    <path style="fill:none;stroke:#4d4d4d;stroke-width:1.18837929;stroke-linecap:butt;stroke-linejoin:miter;stroke-miterlimit:4;stroke-dasharray:none;stroke-opacity:1" d="m 91.505827,64.803983 -9.654257,-0.064 c -1.119323,-0.0074 -2.934569,1.198431 -2.944659,2.90353 -0.0083,1.399746 0.809414,2.463669 1.515724,2.868954 3.124527,1.79287 9.358256,4.728312 9.577057,4.881049 0.37819,0.264 1.458129,1.102572 1.448836,2.657831 -0.01019,1.705322 -1.555249,3.005404 -2.840375,3.022121 -0.654788,0.0085 -9.596234,-0.03003 -9.596234,-0.03003" id="path4529" inkscape:connector-curvature="0" sodipodi:nodetypes="cssssssc"/>
    <path style="fill:none;stroke:#4d4d4d;stroke-width:1.20000005;stroke-linecap:butt;stroke-linejoin:miter;stroke-miterlimit:4;stroke-dasharray:none;stroke-opacity:1" d="m 102.86536,64.759487 c 1.7968,-0.01075 2.92343,1.486766 2.93997,2.80633 0.0169,1.344828 0.0181,7.842508 0.0179,10.520525 -1.4e-4,1.615061 -1.37753,2.943104 -3.02334,2.952123 -1.9884,0.0109 -5.531114,0.05444 -6.64967,0.04117 -1.454039,-0.01725 -2.906555,-1.302939 -2.939963,-2.973372 -0.01875,-0.937641 -0.02563,-9.223866 3e-6,-10.473625 0.04096,-1.996624 2.085911,-2.90475 2.99008,-2.889853 2.215161,0.0365 4.82751,0.0277 6.66502,0.0167 z" id="path4551" inkscape:connector-curvature="0" sodipodi:nodetypes="sssssssss"/>
    <path style="fill:#4d4d4d;stroke:#4d4d4d;stroke-width:0.26458332px;stroke-linecap:butt;stroke-linejoin:miter;stroke-opacity:1" d="m 98.572343,74.063804 1.16931,-0.01669 7.400027,7.349913 -1.41987,-0.01669 z" id="path4555" inkscape:connector-curvature="0"/>
    <path style="fill:none;stroke:#4d4d4d;stroke-width:1.18485177;stroke-linecap:butt;stroke-linejoin:miter;stroke-miterlimit:4;stroke-dasharray:none;stroke-opacity:1" d="m 107.66341,64.236505 c 0,0 -0.0164,12.419779 0.01,13.829372 0.0324,1.765384 1.55099,2.844727 2.78139,2.862978 1.39107,0.02063 7.96876,-0.01151 7.96876,-0.01151" id="path4559" inkscape:connector-curvature="0" sodipodi:nodetypes="cssc"/>
    <path style="fill:#808080;stroke:#000000;stroke-width:0.99999994px;stroke-linecap:butt;stroke-linejoin:miter;stroke-opacity:1" d="M 16.302734 68.521484 C 13.609757 68.648023 12.642015 68.522048 9.4277344 68.611328 C 6.7442509 68.68586 5.6261577 69.694153 5.4980469 72.71875 C 5.5473697 88.464938 5.6031122 87.019813 5.5351562 98.691406 C 5.5351562 98.691406 9.6947676 104.1476 9.6054688 109.32617 C 9.5161585 114.50474 7.2409093 114.77113 7.2851562 119.50391 C 7.330246 124.32513 10.321151 126.02094 12.642578 125.93164 C 14.964009 125.84233 18.266458 123.96875 18.087891 119.59375 C 17.898234 114.94704 15.753422 115.66179 15.945312 109.32617 C 16.110289 103.87931 19.337891 98.431641 19.337891 98.431641 C 19.337891 98.431641 19.761254 75.863254 19.695312 72.806641 C 19.62936 69.750031 18.995712 68.394934 16.302734 68.521484 z M 12.910156 115.27148 C 12.910156 115.27148 15.766741 121.79048 12.820312 121.70117 C 9.8738722 121.61188 12.910156 115.27148 12.910156 115.27148 z " transform="matrix(0.26458333,0,0,0.26458333,78.279172,64.108923)" id="path4561"/>
    <path style="fill:#e6e6e6;stroke:#000000;stroke-width:0.1;stroke-linecap:butt;stroke-linejoin:miter;stroke-miterlimit:4;stroke-dasharray:none;stroke-opacity:1" d="m 80.180856,83.785733 0.200454,-0.668174 0.267269,0.618062 0.317383,-0.501132 0.133633,0.534541 0.05012,-0.56795 0.200451,0.551244 0.567949,-0.484426 0.183748,0.601356 0.06682,-0.718286 0.30068,0.684877 0.267269,-0.601356 0.150339,0.567947 0.250565,-0.601356 0.100225,0.618062 0.434313,-0.718288 0.01669,0.65147 0.567947,-0.634765 -0.0167,0.651471 0.217157,-0.618062 0.167042,0.584653 0.167044,-0.56795 0.283972,0.551244 0.183748,-0.534538 0.133636,0.534538 0.167042,-0.534538 0.116932,0.634765 0.183748,-0.768401 0.08352,0.718289 0.317381,-0.601359 0.01669,0.584653 0.150339,-0.517835 0.23386,0.484426 0.05012,-0.584653 0.11693,0.584653 0.167042,-0.534538 0.233863,0.46772 0.06682,-0.484426 0.183748,0.551244 0.150339,-0.601356 0.283972,0.634765 v -0.534538 l 0.217157,0.46772 0.300678,-0.46772 -0.0167,0.517835 0.367496,-0.584653 -0.05011,0.584653 0.217154,-0.56795 0.250566,0.601359 0.133636,-0.56795 0.100226,0.56795 0.183748,-0.601359 0.08352,0.534541 0.267269,-0.517835 -0.11693,0.517835 0.673162,-0.368684 -0.489414,0.435502 h 0.567947 l -0.668174,0.434311 0.701583,-0.03341 -0.601356,0.384201 0.417608,0.250566 -0.551244,0.300678 0.484426,0.100226 -0.317381,0.200451 0.484426,-0.01669 -0.567947,0.11693 0.618059,0.517835 -0.484426,0.06682 0.434314,0.150339 -0.434314,0.23386 0.467723,0.100227 -0.618062,0.317381 0.501132,0.01669 -0.534541,0.217157 0.56795,0.283972 -0.517835,0.03341 0.567947,0.183748 -0.501132,0.183748 0.45102,0.06682 -0.467723,0.200454 h 0.517835 l -0.567947,0.100224 0.551243,0.233863 -0.567949,0.05011 0.634765,0.100227 -0.584653,0.23386 h 0.434314 l -0.417608,0.183747 0.484426,0.23386 -0.584653,0.06682 0.618062,0.100227 -0.601356,0.11693 0.534538,0.133636 -0.467723,0.08352 0.467723,0.200451 -0.451017,0.100227 0.517835,0.11693 -0.567947,0.384201 0.517835,0.03341 -0.467723,0.23386 0.517835,0.23386 -0.501132,0.08352 0.467723,0.35079 -0.467723,-0.01669 0.417611,0.150339 -0.434314,0.133633 0.451017,0.100227 -0.384199,0.183748 h 0.367496 l -0.45102,0.183748 0.534541,0.08352 -0.517835,0.100226 0.434314,0.217157 -0.434314,0.03341 0.484426,0.11693 -0.501132,0.183748 0.467723,0.08352 -0.484426,0.11693 0.53454,0.08352 -0.484428,0.183747 0.417611,0.08352 -0.484426,0.183748 0.567947,0.183748 -0.567947,0.200451 0.58465,0.01669 -0.734989,0.334087 0.651468,0.167042 -0.534538,0.434314 0.584652,-0.100225 -0.400317,0.734988 0.433724,-0.534537 -0.01669,0.601356 0.350792,-0.584653 0.01669,0.517838 0.167045,-0.551244 0.08352,0.534538 0.278732,-0.488306 0.07206,0.438194 0.217157,-0.434314 0.133635,0.467723 0.115075,-0.471603 0.05196,0.571827 0.183748,-0.634765 -0.01669,0.618062 0.11693,-0.517835 0.100227,0.534538 0.150339,-0.551244 0.133633,0.551244 0.08352,-0.601356 0.183748,0.484426 0.484425,-0.434312 -0.334087,0.517835 0.534539,0.06682 -0.684877,0.350793 0.684877,0.0167 -0.584653,0.217157 0.56795,0.01669 -0.651471,0.11693 0.634765,0.133633 -0.651468,0.133636 0.584653,0.250566 -0.534541,0.05011 0.468309,0.567947 -0.601944,-0.451017 0.167044,0.501131 -0.367495,-0.567949 -0.200451,0.53454 -0.267272,-0.417608 0.03341,0.484426 -0.434313,-0.517835 -0.133634,0.334087 -0.217156,-0.384201 -0.167045,0.501131 -0.317381,-0.517834 -0.05012,0.501131 -0.217154,-0.501131 -0.217157,0.434313 -0.217156,-0.317383 -0.133636,0.517834 -0.06682,-0.684876 -0.317381,0.634764 -0.100227,-0.618061 -0.100227,0.567946 -0.233859,-0.501128 -0.167045,0.551243 -0.167042,-0.517835 -0.11693,0.567947 -0.08352,-0.584652 -0.567359,0.492778 0.433726,-0.793456 -0.601358,0.167045 0.634767,-0.501132 -0.451019,-0.267269 0.451019,-0.217156 -0.584652,-0.08352 0.567946,-0.233863 -0.451016,-0.150339 0.484425,-0.334087 -0.584652,-0.100226 0.567949,-0.133634 -0.601358,-0.334086 0.668173,-0.133636 -0.718285,-0.334087 0.684879,-0.100227 -0.668176,-0.200451 0.601358,-0.11693 -0.584652,-0.300677 0.584652,-0.183748 -0.53454,-0.267272 0.501131,-0.08352 -0.501131,-0.23386 0.551243,-0.283974 -0.668173,-0.01669 0.634764,-0.283975 -0.584652,-0.233863 0.634767,-0.23386 -0.584652,-0.150338 0.501128,-0.200451 -0.467719,-0.150339 0.534537,-0.150342 -0.551243,-0.167042 0.551243,-0.08352 -0.534537,-0.250566 0.601355,-0.08352 -0.618061,-0.283974 0.634764,-0.150339 -0.601355,-0.200454 0.567949,-0.08352 -0.601358,-0.267269 0.584652,-0.167044 -0.684876,-0.133633 0.734988,-0.250566 -0.567946,-0.08352 0.567946,-0.183748 -0.618058,-0.08352 0.584652,-0.150339 -0.684879,-0.133633 0.634764,-0.116932 -0.584652,-0.05011 0.65147,-0.200451 -0.551243,-0.116933 0.451016,-0.183745 -0.484425,-0.03341 0.467722,-0.133636 -0.584652,-0.133636 0.584652,-0.03341 -0.467722,-0.250564 0.501131,-0.06682 -0.551243,-0.100227 0.584652,-0.133636 -0.53454,-0.133633 0.601355,-0.08352 -0.684876,-0.217157 0.65147,-0.01669 -0.634767,-0.167042 0.634767,-0.150339 -0.618061,-0.06682 0.633749,-0.28432 -0.733976,0.06716 0.584574,-0.518848 -0.768322,0.468736 -0.03341,-0.567949 -0.451017,0.634765 -0.267268,-0.634765 -0.06682,0.634765 -0.467723,-0.634765 -0.150339,0.501131 -0.167042,-0.567949 -0.30068,0.701583 -0.100224,-0.651468 -0.150339,0.517834 -0.300681,-0.601358 -0.08352,0.668176 -0.23386,-0.601358 -0.183747,0.567949 -0.267269,-0.517834 -0.05011,0.517834 -0.450429,-0.228621 0.233272,0.328846 -0.534537,0.05011 0.517834,0.100224 -0.515635,0.185077 0.615862,0.249237 -0.5914,0.146778 0.524582,0.170606 -0.636793,0.07744 0.636793,0.08962 -0.501131,0.283975 0.484425,-0.06682 -0.501129,0.267271 0.484426,-0.167044 -0.551243,0.618061 0.684879,-0.467722 -0.250566,0.818512 0.584653,-0.751695 0.133633,0.668174 0.133635,-0.634765 0.06682,0.46772 0.300678,-0.484425 0.08352,0.601358 0.167045,-0.718288 0.150339,0.684879 0.11693,-0.53454 0.05011,0.634764 0.317383,-0.751694 -0.05011,0.501131 0.384201,-0.551243 -0.23386,0.684876 0.468305,-0.317381 -0.251151,0.400905 0.534541,-0.116933 -0.501132,0.334087 0.501132,-0.01669 -0.618062,0.167044 0.684879,0.167042 h -0.701582 l 0.651468,0.267269 -0.46772,0.05012 0.463545,0.354965 -0.613884,-0.137808 0.351377,0.434311 -0.401492,-0.283972 -0.183748,0.534537 -0.283972,-0.517834 -0.200453,0.584652 -0.100227,-0.551243 -0.23386,0.551243 -0.217157,-0.634764 -0.217156,0.684876 v -0.618058 l -0.283972,0.651467 -0.167045,-0.734991 -0.167042,0.65147 -0.200454,-0.684879 -0.217157,0.684879 -0.367495,-0.634764 -0.01669,0.634764 -0.45102,-0.65147 0.01669,0.668173 -0.434313,-0.651467 -0.367496,0.584652 v -0.567949 l -0.400904,0.634764 -0.217157,-0.668173 -0.150339,0.701582 -0.11693,-0.517834 -0.183748,0.434313 -0.05011,-0.567946 -0.250566,0.601355 -0.08352,-0.551243 -0.317383,0.53454 -0.03341,-0.53454 -0.133633,0.517834 -0.400905,-0.584652 v 0.584652 l -0.167045,-0.534537 -0.200451,0.501128 -0.250565,-0.601355 -0.618062,0.567946 0.584653,-0.818512 -0.618062,-0.08352 0.718289,-0.283975 L 78.894627,88.27924 79.729843,88.145604 78.7944,87.92845 h 0.768401 l -0.80181,-0.35079 0.701583,-0.08352 -0.651471,-0.250566 0.818513,-0.06682 -1.00226,-0.334087 0.801809,-0.11693 -0.684879,-0.267269 0.663109,-0.202655 -0.679813,-0.214957 0.751695,-0.183748 -0.768398,-0.11693 0.701583,-0.217157 -0.801809,-0.334087 0.902033,-0.11693 -0.868625,-0.133635 1.169303,-0.267269 -1.135894,-0.05011 0.718286,-0.217157 -0.701582,-0.167045 0.683691,-0.16198 -0.750509,-0.372557 0.744604,0.100887 -0.560857,-0.301341 0.661256,0.200941 -0.0432,-0.618549 0.226279,0.612643 0.208036,-0.545825 -0.05011,0.701582 0.283974,-0.7684 z" id="path4573" inkscape:connector-curvature="0" sodipodi:nodetypes="ccccccccccccccccccccccccccccccccccccccccccccccccccccccccccccccccccccccccccccccccccccccccccccccccccccccccccccccccccccccccccccccccccccccccccccccccccccccccccccccccccccccccccccccccccccccccccccccccccccccccccccccccccccccccccccccccccccccccccccccccccccccccccccccccccccccccccccccccccccccccccccccccccccccccccccccccccccccccccccccccccccccccccccccccccccccccccccccccccccccccccccccccccccccccccccccccccccccccccccc"/>
    <path style="fill:none;stroke:#000000;stroke-width:0.09500077;stroke-linecap:butt;stroke-linejoin:miter;stroke-miterlimit:4;stroke-dasharray:none;stroke-opacity:1" d="m 79.758674,83.985743 c -0.03014,0.802108 1.283083,1.04614 1.974207,1.086186 0.756589,0.04384 1.778294,0.467896 1.793365,1.270004" id="path4569" inkscape:connector-curvature="0" sodipodi:nodetypes="csc"/>
    <path sodipodi:nodetypes="csc" inkscape:connector-curvature="0" id="path4571" d="m 79.77463,86.391102 c -0.02962,0.802156 1.260835,1.046204 1.939974,1.086252 0.74347,0.04384 1.747459,0.467924 1.762268,1.270081" style="fill:none;stroke:#000000;stroke-width:0.09417634;stroke-linecap:butt;stroke-linejoin:miter;stroke-miterlimit:4;stroke-dasharray:none;stroke-opacity:1"/>
    <path style="fill:#e6e6e6;stroke:#000000;stroke-width:0.1;stroke-linecap:butt;stroke-linejoin:miter;stroke-miterlimit:4;stroke-dasharray:none;stroke-opacity:1" d="m 94.541294,88.593376 0.555151,0.118118 -0.590587,0.188989 0.578776,-0.04725 -0.614211,0.318918 0.696894,-0.02363 -0.73233,0.34254 0.614212,0.03543 -0.47247,0.212612 0.578777,0.05906 -0.685083,0.153554 0.578776,0.08268 -0.496094,0.2008 0.507907,0.08268 -0.496094,0.165364 0.496094,0.03544 -0.555398,0.297565 0.543585,0.186717 -0.519716,0.05906 0.48428,0.05906 -0.377976,0.212611 0.496094,0.04725 -0.578776,0.118116 0.614212,0.153553 -0.614212,0.212619 0.54334,0.165365 -0.673269,0.177178 0.590587,0.08268 -0.602398,0.318916 0.626023,-0.03544 -0.507905,0.224425 0.507905,0.09449 -0.484283,0.09449 0.496094,0.106307 -0.514826,0.16166 0.526044,0.123612 -0.668031,0.184936 0.713251,0.163337 -0.635214,0.13423 0.626022,0.09449 -0.578776,0.259864 0.496094,0.106049 -0.507905,0.236477 0.482009,0.21666 -0.408866,0.244348 0.434762,0.224082 -0.496094,0.200801 0.425225,0.08268 -0.466391,0.148415 0.490013,0.182321 -0.528315,0.125631 0.729116,0.06334 c 0,0 -0.779577,0.2008 -0.720516,0.2008 l 0.637833,0.03543 -0.413411,0.34254 0.496094,-0.200798 -0.212612,0.448845 0.496094,-0.28348 -0.224422,0.566962 0.42641,-0.279181 -0.175744,0.609318 0.458039,-0.483688 -0.03544,0.543341 0.236236,-0.448847 -0.01183,0.460658 0.295294,-0.425223 0.177178,0.448847 0.212605,-0.519718 0.129929,0.425222 0.188989,-0.389786 -0.01183,0.425222 0.212612,-0.389787 0.04725,0.354351 0.165364,-0.366164 0.03543,0.425225 0.212614,-0.460658 0.0118,0.472469 0.165364,-0.425223 0.224423,0.34254 0.106307,-0.4016 0.09449,0.519718 0.118118,-0.460658 0.139124,0.562317 0.07349,-0.633188 0.153554,0.484283 0.07087,-0.425225 0.271669,0.389789 0.04725,-0.448847 0.129929,0.472469 0.129932,-0.460658 0.05906,0.330729 0.141739,-0.34254 0.04725,0.531529 0.200789,-0.555154 0.259859,0.484283 0.0826,-0.673269 0.1075,0.454332 0.14053,-0.619697 0.004,0.524609 0.34709,-0.583074 -0.2037,0.849852 0.46673,-0.437036 v 0.472472 l 0.17718,-0.425222 -0.0118,0.437033 0.14174,-0.484283 0.3425,0.53153 0.0118,-0.519716 0.16536,0.448847 0.0827,-0.472472 0.20084,0.484283 0.0709,-0.484283 0.36621,0.519719 -0.26618,-0.580803 0.53786,0.450874 -0.4961,-0.626026 0.55945,0.09282 -0.65394,-0.435358 0.54334,-0.14174 -0.48428,-0.129929 0.49609,-0.106307 -0.51972,-0.129929 0.56697,-0.106306 -0.55516,-0.106305 0.51972,-0.295293 -0.47247,0.03543 0.46066,-0.177176 -0.43704,-0.129929 0.47248,-0.129929 -0.48429,-0.118118 0.51972,-0.153553 -0.57878,-0.09449 0.53153,-0.141739 -0.48428,-0.08268 0.48428,-0.177178 -0.59059,-0.330737 0.59059,-0.118118 -0.56696,-0.09449 0.56696,-0.14174 -0.44885,-0.05906 0.44885,-0.200804 -0.46066,-0.118115 0.48429,-0.0945 -0.54334,-0.106305 0.49609,-0.141742 -0.53153,-0.05906 0.54334,-0.271677 -0.51972,-0.2008 0.4961,0.01183 -0.44885,-0.18899 0.4961,-0.09449 -0.51972,-0.118118 0.49609,-0.295288 -0.51972,-0.177176 0.54335,-0.0945 -0.57878,-0.08268 0.62602,-0.14174 -0.54334,-0.271669 0.48428,-0.09449 -0.59059,-0.02363 0.64965,-0.177176 -0.61421,-0.08268 0.54334,-0.08268 -0.55515,-0.377974 0.62602,0.02363 -0.55515,-0.25986 0.46066,0.07087 -0.42523,-0.318918 0.47248,0.02363 -0.57878,-0.259858 0.57878,0.03543 -0.46067,-0.389787 0.62603,0.33073 -0.2953,-0.389787 0.4016,0.413411 0.0591,-0.413411 0.23624,0.48428 0.2008,-0.425223 -0.0354,0.472469 0.34255,-0.555151 0.0709,0.578776 0.14175,-0.578776 0.1063,0.566965 0.17718,-0.531529 0.2363,0.519715 0.11812,-0.496093 0.11812,0.507907 0.11812,-0.531529 0.15355,0.496093 0.1063,-0.637836 0.15358,0.626025 0.4016,-0.543343 -0.25986,0.637837 0.42523,-0.212611 -0.43704,0.401597 0.46066,-0.05906 -0.38979,0.413411 0.36617,0.0118 -0.42523,0.2008 0.46066,0.0118 -0.41341,0.188989 0.44885,0.08268 -0.4961,0.07087 0.4961,0.09449 -0.53153,0.330727 0.51972,0.118118 -0.47247,0.09449 0.43703,0.236227 -0.48428,0.106304 0.55515,0.03543 -0.47247,0.283483 0.41341,-0.04725 -0.46066,0.224423 0.47247,0.05906 -0.48428,0.14174 0.47247,0.07087 -0.44884,0.2008 0.5079,0.05906 -0.49609,0.129929 0.43703,0.141742 -0.46066,0.153554 0.59059,0.02363 -0.79139,0.212612 0.72052,-0.03544 -0.56696,0.25986 0.53153,0.04725 -0.43704,0.153554 h 0.37798 l -0.31892,0.09449 0.35435,0.106304 -0.46066,0.141743 0.59059,0.118118 -0.76776,0.106304 0.67327,0.129929 -0.55516,0.153554 0.54335,0.118118 -0.4961,0.177175 0.42522,0.04725 -0.42522,0.165364 0.46066,0.04725 -0.41341,0.307104 0.36616,-0.02363 -0.4016,0.307107 0.42523,0.04725 -0.44885,0.106307 0.47247,0.07087 -0.46066,0.259861 0.42522,-0.0118 -0.37797,0.200801 0.43703,0.02363 -0.51971,0.236233 0.49609,0.03544 -0.48428,0.177178 0.49609,-0.04725 -0.46066,0.354353 0.44885,-0.04725 -0.42522,0.295293 0.57877,-0.295293 -0.34254,0.4016 0.46066,-0.507907 -0.11812,0.460658 0.33073,-0.377976 -0.0118,0.626023 0.21261,-0.673269 0.20076,0.626022 0.0945,-0.626022 0.15355,0.377975 0.0236,-0.330729 0.31976,0.524612 -0.14262,-0.548234 0.37882,0.489173 -0.23623,-0.519715 0.43703,0.377975 -0.26998,-0.5425 0.2936,0.09365 c 0,0 -0.36389,-0.46328 -0.36389,-0.41603 0,0.04725 0.36389,0.07349 0.36389,0.07349 l -0.39789,-0.322971 0.32702,-0.01957 -0.2812,-0.158199 0.38751,-0.06622 -0.43071,-0.199368 0.38346,-0.02506 -0.41055,-0.212611 0.48142,-0.03544 -0.48142,-0.16047 0.53702,-0.158692 -0.57591,-0.150194 0.37832,-0.190673 -0.33048,-0.214047 0.44885,-0.04725 -0.47247,-0.09449 0.5079,-0.09449 -0.70954,-0.123011 0.63784,-0.07087 -0.50791,-0.224422 0.46065,-0.129929 -0.46065,-0.2008 0.42522,-0.05906 -0.44884,-0.106304 0.54334,-0.118118 -0.62603,-0.118118 0.54334,-0.04725 -0.53153,-0.165365 0.53153,-0.03544 -0.48428,-0.165364 0.54334,-0.14174 -0.51971,-0.141743 0.43703,-0.04725 c 0,0 -0.53153,-0.09449 -0.48428,-0.106305 0.0473,-0.0118 0.53153,-0.05906 0.53153,-0.05906 l -0.47247,-0.212611 0.59059,-0.0118 -0.68509,-0.271671 0.63784,-0.07087 -0.61421,-0.165365 0.53153,-0.09449 -0.55516,-0.200801 0.57878,0.0118 -0.6024,-0.129932 0.61421,-0.08268 -0.5079,-0.14174 0.55515,-0.05906 -0.61421,-0.0945 0.61421,-0.118117 -0.57878,-0.129929 0.48428,-0.165365 -0.54334,-0.106304 0.6024,-0.04725 -0.6024,-0.188989 0.55516,-0.04725 -0.50791,-0.177175 0.56697,-0.04725 -0.60241,-0.271669 0.57878,0.14174 -0.6024,-0.354351 0.53153,0.118118 -0.49609,-0.484283 0.66146,0.366165 -0.0591,-0.46066 0.2953,0.507905 0.15355,-0.496092 0.21262,0.437034 0.1536,-0.484281 0.25983,0.626023 0.16536,-0.578776 0.0709,0.496094 0.16537,-0.448847 0.0472,0.531529 0.0827,-0.578776 0.11811,0.566965 0.15356,-0.602401 0.0591,0.425223 0.22442,-0.401598 0.0354,0.496094 0.14175,-0.507908 0.059,0.437037 0.28349,-0.401601 -0.0236,0.460658 0.17717,-0.437033 0.0473,0.48428 0.33066,-0.590587 -0.0709,0.54334 0.24805,-0.507905 0.0591,0.448848 0.22442,-0.425223 0.15362,0.48428 0.21261,-0.48428 0.15352,0.531528 0.22446,-0.555153 0.0472,0.519719 0.61426,-0.484283 -0.47246,0.661458 0.53152,-0.08268 -0.55515,0.318918 0.50791,0.02363 -0.47247,0.2008 0.5079,0.02363 -0.67327,0.307105 0.64965,0.04725 -0.54334,0.236236 0.46066,0.02363 -0.4961,0.200801 0.54334,-0.0118 -0.46065,0.354354 0.44884,-0.118118 -0.55515,0.295294 0.5079,0.05906 -0.54334,0.212612 0.6024,0.03544 -0.5079,0.188989 0.44884,-0.0118 -0.46066,0.248047 0.51972,0.03543 -0.41341,0.2008 0.4961,0.141743 -0.59059,0.295294 0.49609,0.0118 -0.57877,0.165364 0.60239,0.07087 -0.54334,0.295294 0.62603,0.07087 -0.61422,0.188987 0.57878,-0.02363 -0.49609,0.271668 h 0.43703 l -0.48428,0.177179 0.50791,0.09449 -0.59059,0.09449 0.74414,0.236237 -0.67327,0.118118 0.43703,0.0118 -0.59058,0.236236 0.64964,0.02363 -0.49609,0.153553 0.62602,0.0118 -0.62602,0.165364 0.5079,0.08268 -0.53153,0.118117 0.61422,0.07087 -0.63784,0.2008 0.57878,0.04725 -0.59059,0.165364 0.53153,0.0118 -0.53153,0.141742 0.6024,0.22442 -0.54334,0.05906 0.59059,0.118118 -0.61422,0.08268 0.4961,0.118118 -0.4961,0.318922 0.63784,-0.0118 -0.76776,0.34254 0.69689,-0.2008 -0.29529,0.555151 0.49609,-0.602398 -0.10631,0.53153 0.30711,-0.496094 -0.0472,0.507905 0.18899,-0.472469 0.2008,0.496093 0.0945,-0.519718 0.0709,0.460658 0.22442,-0.437033 0.16536,0.460658 0.0118,-0.472472 0.48191,0.451466 -0.36844,-0.610258 0.50015,0.123356 -0.51685,-0.495498 0.38751,-0.106912 -0.47247,-0.153554 0.44885,-0.02363 -0.30711,-0.177178 0.43704,-0.08268 -0.46656,-0.206706 0.42521,-0.212608 -0.56105,-0.07678 0.56105,-0.177165 -0.5138,-0.118105 0.48428,-0.177175 -0.42523,-0.242142 0.44295,-0.165365 -0.5079,-0.141745 0.38388,-0.165366 -0.33664,-0.124019 0.47837,-0.236236 -0.5079,-0.02363 0.49609,-0.165365 -0.5079,-0.03543 0.53152,-0.165365 -0.46066,-0.188991 0.47248,-0.27167 -0.59059,-0.03544 0.51972,-0.200798 -0.53153,-0.0945 0.53153,-0.03544 -0.48429,-0.15355 0.47248,-0.0945 -0.54334,-0.03543 0.62602,-0.259861 -0.53153,-0.129921 0.57877,-0.05906 -0.56696,-0.236235 0.51972,-0.04725 -0.51972,-0.248047 0.42522,-0.141741 -0.51971,-0.106305 0.55515,-0.283479 -0.51972,-0.02363 0.56696,-0.106305 -0.55515,-0.177175 h 0.64965 l -0.66146,-0.271672 0.63784,-0.0118 -0.63784,-0.224425 0.54334,-0.14174 -0.63783,-0.05906 0.63783,-0.212611 -0.5079,-0.09449 0.48428,-0.03543 -0.64965,-0.377976 0.6024,0.188989 -0.3071,-0.59059 0.46656,0.584684 -0.0767,-0.513812 0.31301,0.484282 0.15355,-0.478377 0.14773,0.7028 0.0827,-0.555152 0.12993,0.448847 0.12993,-0.590589 0.22443,0.5522 0.11812,-0.637834 0.20671,0.688033 0.2067,-0.522668 0.21856,0.507904 -0.0414,-0.614211 0.20671,0.558107 0.32482,-0.519718 -0.0591,0.507905 0.23624,-0.484283 0.16535,0.531531 0.0236,-0.478377 0.37798,0.431129 -0.24805,-0.555154 0.50791,0.271672 -0.33663,-0.348447 0.28938,-0.01772 -0.35435,-0.248047 0.4518,-0.162405 -0.55811,-0.191939 0.56697,-0.253955 -0.51972,-0.171274 0.44885,-0.448837 -0.57878,0.259861 0.21261,-0.484282 -0.36616,0.484282 -0.0945,-0.484283 -0.15356,0.484283 -0.24805,-0.460659 -0.059,0.47247 -0.33073,-0.437037 -0.23624,0.460661 -0.0827,-0.578776 -0.23624,0.555152 -0.0472,-0.507905 -0.15356,0.519716 -0.23623,-0.555152 -0.0827,0.519716 -0.0945,-0.54334 -0.33073,0.661458 0.0473,-0.602398 -0.31892,0.54334 -0.0118,-0.590587 -0.46065,0.67327 0.41341,-0.838634 -0.61421,0.248046 0.66145,-0.425225 -0.62602,-0.118118 0.73233,-0.0118 -0.75595,-0.212611 0.59059,-0.08268 -0.57878,-0.05906 0.61421,-0.07087 -0.76776,-0.271672 h 0.72052 l -0.46066,-0.153551 0.51971,0.02363 -0.61421,-0.34254 0.55516,0.153554 -0.24805,-0.637836 0.44442,0.600923 -0.0901,-0.50643 0.3307,0.543343 0.14174,-0.377979 0.0591,0.318919 0.16537,-0.543341 0.12992,0.649647 0.0473,-0.6024 0.16537,0.54334 0.33072,-0.460658 -0.059,0.507905 0.36621,-0.590587 0.10631,0.673269 0.11811,-0.755951 0.0709,0.555154 0.11811,-0.413412 0.0945,0.519716 0.17717,-0.543341 0.11812,0.555152 0.15355,-0.472469 -0.0118,0.472469 0.27167,-0.543341 0.30563,0.521868 -0.21105,-0.710854 0.47175,0.162785 -0.55443,-0.45808 0.5079,-0.118118 -0.63784,-0.08268 0.68509,-0.248047 -0.59059,0.02363 0.66146,-0.224423 -0.62602,-0.03543 0.69689,-0.484284 -0.75595,0.248047 0.18899,-0.496094 -0.31892,0.507907 -0.17718,-0.543343 -0.0945,0.566965 -0.18899,-0.54334 -0.0827,0.566965 -0.2008,-0.484283 -0.0827,0.555152 -0.0709,-0.578776 -0.18898,0.519718 -0.25986,-0.496094 -0.0118,0.543341 -0.33073,-0.496094 -0.12993,0.496094 -0.0354,-0.543341 -0.37797,0.484283 v -0.66143 l -0.21262,0.696894 -0.29529,-0.661459 -0.0236,0.685081 -0.29529,-0.53153 0.0236,0.448847 -0.35436,-0.507904 -0.11811,0.54334 -0.10631,-0.531529 -0.11812,0.54334 -0.18899,-0.519716 -0.14174,0.578776 -0.22442,-0.578776 -0.0236,0.566963 -0.31892,-0.543341 0.10631,0.555154 -0.57878,-0.555154 0.40747,0.608306 -0.55516,-0.05906 0.56697,0.271682 0.1004,0.06497 -0.85044,0.07087 0.88588,0.08268 -0.74414,0.08268 0.57877,0.141743 -0.56696,0.09449 0.73233,0.141743 -0.62603,0.106304 0.66146,0.141743 -0.7087,0.04725 0.64964,0.188987 -0.57877,0.188989 0.47247,0.0118 -0.51972,0.2008 0.87407,0.0118 -0.92132,0.177178 0.56697,0.08268 -0.63784,0.200797 0.63784,-0.0118 -0.94494,0.236236 0.92131,0.05906 -0.51971,0.236236 0.59058,-0.04725 -0.51971,0.248046 0.46066,0.14174 -0.61422,-0.0118 0.63784,0.271672 -0.75595,-0.141743 0.82682,0.519718 -0.90951,-0.448847 0.30711,0.437034 -0.63783,-0.460658 0.18898,0.531529 -0.3071,-0.519716 -0.10631,0.425223 -0.12993,-0.425223 -0.1063,0.519716 -0.27167,-0.566965 0.0118,0.496094 -0.38979,-0.366162 0.0709,0.460658 -0.31892,-0.59059 -0.0591,0.555154 -0.1063,-0.425222 -0.0709,0.460658 -0.25986,-0.53153 -0.0591,0.519716 -0.16536,-0.602398 -0.0945,0.54334 -0.16536,-0.507904 -0.16537,0.555151 -0.11812,-0.54334 -0.16536,0.578776 -0.24805,-0.566965 0.0118,0.637836 -0.22442,-0.708705 -0.0591,0.649645 -0.27167,-0.661459 -0.16537,0.566965 -0.0709,-0.519718 -0.24804,0.59059 0.0591,-0.578776 -0.46066,0.425222 0.5079,-0.685083 -0.54334,0.05906 0.54334,-0.153553 -0.57877,-0.188987 0.73233,-0.04725 -0.74414,-0.153551 0.53152,-0.212618 -0.57877,-0.165365 0.63783,-0.153548 -0.61421,-0.141743 0.75595,-0.106304 -0.74414,-0.224425 0.64965,0.08268 -0.36617,-0.496094 0.50791,0.507908 -0.0354,-0.472472 0.28347,0.496094 0.17718,-0.401598 0.1476,0.525622 0.18312,-0.655554 0.21261,0.614212 0.0827,-0.578776 0.189,0.696894 0.0709,-0.744141 0.12993,0.696894 0.29526,-0.661458 0.0354,0.519718 0.14174,-0.437036 0.0472,0.637834 0.23626,-0.673269 0.0827,0.649647 0.11812,-0.708705 0.28354,0.566962 -0.11812,-0.578776 0.51972,0.578776 -0.42523,-0.649644 0.4961,0.248047 -0.54334,-0.490201 0.5079,-0.147646 -0.47247,-0.09449 0.66146,-0.04725 -0.66146,-0.118118 0.43704,-0.14174 -0.48428,-0.03544 0.68507,-0.330731 -0.86225,-0.01182 0.75595,-0.389787 -0.89769,0.34254 0.0236,-0.460658 -0.34254,0.484283 -0.2953,-0.413412 -0.0118,0.413412 -0.46066,-0.437036 -0.0236,0.472471 -0.36617,-0.484282 -0.35435,0.531529 -0.0196,-0.630916 -0.16477,0.629481 -0.17001,-0.494659 -0.0591,0.578776 -0.24435,-0.537854 -0.12183,0.407925 -0.21261,-0.496093 -0.25986,0.460658 -0.10631,-0.496094 -0.22442,0.54334 -0.25986,-0.566965 -0.0118,0.566965 -0.35435,-0.661458 -0.17718,0.696894 -0.17717,-0.54334 0.14174,0.54334 -0.63784,-0.248047 0.50791,0.318918 -0.37798,0.200798 0.44885,-0.05906 -0.67327,0.2008 0.61421,0.09449 c 0,0 -0.63784,0.153553 -0.54334,0.153553 0.0945,0 0.54334,0.0118 0.54334,0.0118 l -0.6969,0.224425 0.67328,0.08268 -0.57878,0.03543 0.72052,0.271671 h -0.6024 l 0.49609,0.08268 -0.59059,0.177175 0.63784,0.248048 -0.56697,0.0945 0.72052,0.07087 -0.79139,0.141742 0.68509,0.08268 -0.75596,0.248048 0.68508,0.177175 -0.61421,0.07087 0.6024,0.307092 -0.62602,0.0118 0.63783,0.212614 h -0.46065 l 0.53153,0.34254 -0.56697,-0.259858 0.23624,0.626023 -0.43704,-0.602401 -0.0236,0.602401 -0.18899,-0.59059 -0.12993,0.507908 -0.2008,-0.484283 -0.0827,0.531529 -0.21261,-0.519718 -0.2008,0.519718 -0.0827,-0.531529 -0.27167,0.54334 -0.0354,-0.519715 -0.28348,0.602398 -0.11812,-0.566965 -0.4016,0.496093 0.0236,-0.519715 -0.21261,0.484282 -0.17718,-0.555154 -0.0118,0.626023 -0.12993,-0.578776 -0.12993,0.54334 -0.3071,-0.614209 0.12992,0.590587 -0.38978,-0.578776 0.0945,0.519716 -0.23623,-0.507905 -0.0945,0.543341 -0.0472,-0.519716 -0.17717,0.578776 -0.11812,-0.602401 -0.21261,0.602401 -0.25986,-0.626023 0.0562,0.569585 -0.5641,-0.522338 0.44657,0.653699 -0.49382,-0.02767 0.64965,0.283482 -0.48429,0.02363 0.48429,0.330733 -0.56697,0.05906 0.48428,0.153551 -0.59058,0.03544 0.66146,0.18899 -0.61422,0.05906 0.55515,0.283484 -0.67326,0.118118 0.69689,0.307101 -0.50791,0.05906 0.6024,0.106304 -0.67327,0.0945 0.57878,0.165364 -0.69689,-0.01183 0.73233,0.248047 -0.67328,0.03544 0.72052,0.153554 -0.79139,0.08268 0.73233,0.295292 -0.54334,0.106307 0.47247,0.07087 -0.48428,0.08268 0.56697,0.307099 -0.53153,0.03544 0.46065,0.177175 -0.5079,0.106307 0.53153,0.106305 -0.44885,0.141742 0.35435,0.09449 h -0.48428 l 0.55515,0.177176 -0.53153,0.03544 0.60241,0.236236 -0.59059,-0.04725 0.62602,0.401606 -0.73233,-0.0118 0.67327,0.271679 -0.64965,0.08268 0.73233,0.248044 -0.7087,0.2008 0.6024,0.188989 -0.56697,0.165365 0.68508,0.121835 -0.73351,0.264262 0.62721,0.263564 -0.55515,0.08268 0.49609,0.248047 -0.85045,-0.07087 0.67327,0.413412 -0.7087,-0.307105 0.41341,0.578776 -0.578776,-0.448847 0.134816,0.697734 -0.359241,-0.626865 -0.129929,0.507907 -0.248047,-0.578776 -0.0729,0.699758 -0.219532,-0.479981 -0.13423,0.534987 -0.18469,-0.494659 -0.144603,0.330482 -0.05738,-0.507904 -0.273349,0.566962 -0.259858,-0.661458 0.02363,0.626025 c 0,0 -0.188987,-0.685083 -0.212611,-0.602401 -0.02363,0.08268 -0.248047,0.555152 -0.248047,0.555152 l -0.08697,-0.365323 -0.09019,0.412572 -0.129929,-0.519718 -0.342543,0.484282 -0.02363,-0.54334 -0.38979,0.425222 0.401601,-0.555154 h -0.602398 l 0.755951,-0.165364 -0.732329,-0.129929 0.566965,-0.08268 -0.755952,-0.295294 0.862256,0.03544 -0.732327,-0.200801 0.696894,-0.16535 c 0,0 -0.815012,-0.188986 -0.708708,-0.188986 0.106307,0 0.815012,-0.04725 0.815012,-0.04725 l -0.649647,-0.165365 0.472472,-0.129929 -0.67327,-0.09449 0.661459,-0.118118 c 0,0 -0.578776,-0.106304 -0.519719,-0.14174 0.05906,-0.03544 0.649648,-0.106307 0.649648,-0.106307 l -0.555154,-0.259864 0.649647,-0.188989 -0.590587,-0.0118 0.413411,-0.212611 -0.661458,-0.03544 0.720516,-0.165364 -0.507905,-0.09449 0.519716,-0.118117 -0.507905,-0.118118 0.502175,-0.194716 -0.608479,-0.218691 c 0.08268,0 0.693188,-0.07087 0.693188,-0.07087 l -0.705002,-0.177176 0.649648,-0.09449 -0.637468,-0.218222 0.836711,-0.0088 -0.78983,-0.233614 0.598939,-0.154739 -0.539882,-0.17599 0.543341,-0.259861 -0.472469,-0.07898 0.507904,-0.216315 -0.502767,-0.07838 0.513393,-0.184343 -0.671489,-0.120733 0.649892,-0.07433 -0.428437,-0.150095 0.408274,-0.103674 -0.630324,-0.17431 0.649647,-0.08268 -0.685083,-0.165364 0.578776,-0.135666 -0.496093,-0.218698 0.496093,-0.106304 -0.519715,-0.106307 0.598939,-0.172038 -0.636994,-0.08555 0.652266,-0.356625 -0.732329,0.165365 0.07087,-0.543341 -0.2008,0.602401 -0.08268,-0.413411 -0.224425,0.507904 -0.118118,-0.566965 -0.167142,0.532369 -0.399819,-0.520558 0.03484,0.437629 -0.601811,-0.402193 0.566965,0.637836 -0.777201,-0.241618 0.741765,0.395168 -0.696894,0.04725 0.619698,0.263564 -0.541314,0.08244 0.594886,0.232784 z" id="path4575" inkscape:connector-curvature="0" sodipodi:nodetypes="cccccccccccccccccccccccccccccccccccccccccccccccccccccccccccccccccccccccccccccccccccccccccccccccccccccccccccccccccccccccccccccccccccccccccccccccccccccccccccccccccccccccccccccccccccccccccccccccccccccccccccccccccccccccccccccccccccccccccccccccccccccccccccccccccccccccccccccccccccscccccccccccccccccccccccccccccccccccccccccccccccccccccccccccccccccccccccccccccccccccccccccccccccccccccccccccccccccccccccccccccccccccccccccccccccccccccccccccccccccccccccccccccccccccccccccccccccccccccccccccccccccccccccccccccccccccccccccccccccccccccccccccccccccccccccccccccccccccccccccccccccccccccccccccccccccccccccccccccccccccccccccccccccccccccccccccccccccccccccccccccccccccccccccccccccccccccccccccccccccccccccccccccccccccccccccccccccccccccccccccccccccccccccccccccccccccccccccccccccccccccccccccccccccccccccccccsccccccccccccccccccccccccccccccccccccccccccccccccccccccccccccccccccccccccccccccccccccccccccccccccccccccccccccccccccccccccccccccccccccccccccccccsccccccccccccccccccccccccccccccccccccccccccccccccccccccccccccccc"/>
  </g>
</svg>
