<svg xmlns:inkscape="http://www.inkscape.org/namespaces/inkscape" xmlns:sodipodi="http://sodipodi.sourceforge.net/DTD/sodipodi-0.dtd" xmlns="http://www.w3.org/2000/svg" xmlns:svg="http://www.w3.org/2000/svg" version="1.1" id="svg1" inkscape:version="1.4.2 (f4327f4, 2025-05-13)" sodipodi:docname="sqlfluff-wide.svg" viewBox="0 0 73.43 15.19">
  <sodipodi:namedview id="namedview1" pagecolor="#ffffff" bordercolor="#000000" borderopacity="0.25" inkscape:showpageshadow="2" inkscape:pageopacity="0.0" inkscape:pagecheckerboard="0" inkscape:deskcolor="#d1d1d1" inkscape:document-units="mm" inkscape:zoom="1.4702524" inkscape:cx="102.70346" inkscape:cy="37.068466" inkscape:window-width="1899" inkscape:window-height="967" inkscape:window-x="178" inkscape:window-y="116" inkscape:window-maximized="0" inkscape:current-layer="layer1"/>
  <defs id="defs1"/>
  <g inkscape:label="Layer 1" inkscape:groupmode="layer" id="layer1" transform="translate(-40.481249,-115.62292)">
    <path style="fill:none;stroke:#666666;stroke-width:1.4;stroke-linecap:square;stroke-linejoin:miter;stroke-miterlimit:4;stroke-dasharray:none;stroke-opacity:1" d="m 49.8208,116.34461 c 0,0 -5.21592,0.0274 -6.53551,0.005 -1.31959,-0.0226 -2.06645,1.12205 -2.09765,2.11701 -0.0312,0.99497 0.38734,2.22471 1.55709,3.08034 1.16974,0.85563 4.6577,2.66886 5.57954,3.32792 0.92183,0.65906 1.52172,1.23108 1.50141,2.58593 -0.02,1.33371 -0.8409,2.41075 -2.36737,2.40984 -1.52647,-9.1e-4 -6.27683,6.6e-4 -6.27683,6.6e-4" id="path21" inkscape:connector-curvature="0" sodipodi:nodetypes="czzzzszc"/>
    <path style="fill:none;stroke:#666666;stroke-width:1.4;stroke-linecap:butt;stroke-linejoin:miter;stroke-miterlimit:4;stroke-dasharray:none;stroke-opacity:1" d="m 63.64018,118.56688 c 0.002,1.20027 -0.0153,6.5768 0.007,8.90766 0.0116,1.21867 -0.82325,2.40356 -2.34762,2.3886 -1.52437,-0.015 -4.19685,-0.004 -5.83758,0.006 -1.64072,0.0103 -2.4789,-1.20488 -2.48525,-2.58804 -0.006,-1.38316 -8.5e-4,-7.31203 0,-8.40005 10e-4,-1.56247 1.10532,-2.56965 2.34572,-2.55668 1.87272,0.0196 4.58929,0.0163 5.96608,0.002 1.26974,-0.0634 2.35007,1.04006 2.35175,2.24031 z" id="path22" inkscape:connector-curvature="0" sodipodi:nodetypes="zszzzsszz"/>
    <path style="fill:none;stroke:#666666;stroke-width:1.4;stroke-linecap:square;stroke-linejoin:miter;stroke-miterlimit:4;stroke-dasharray:none;stroke-opacity:1" d="m 66.85327,116.32453 c 0,0 -0.0226,9.82912 0,11.20885 0.0226,1.37972 0.82458,2.30871 2.14363,2.32457 1.06833,0.0128 6.44133,0.0164 6.44133,0.0164" id="path36" inkscape:connector-curvature="0" sodipodi:nodetypes="czsc"/>
    <path d="m 58.69632,126.13423 4.94204,4.4356 2.0856,0.002 -4.97545,-4.44538 z" id="path37" style="fill:#666666" sodipodi:nodetypes="ccccc"/>
    <path id="path50" style="fill:#666666;stroke:#000000;stroke-width:0.12;stroke-linecap:butt;stroke-linejoin:miter;stroke-dasharray:none;stroke-opacity:1" d="m 80.23569,115.8193 c -0.71308,0.0327 -0.96944,1.5e-4 -1.82056,0.0233 -0.71057,0.0192 -1.00684,0.28001 -1.04076,1.06195 0.0131,4.07082 0.0278,3.37859 0.01,6.39599 0,0 1.21121,1.09662 1.20457,2.53887 -0.007,1.44224 -0.21656,1.79332 -0.39894,3.16053 -0.16427,1.23145 0.47837,1.6554 1.09348,1.66139 0.63224,0.006 1.20918,-0.48809 1.03611,-1.66139 -0.1941,-1.31584 -0.3154,-1.62889 -0.32195,-3.16053 -0.006,-1.53165 1.0418,-2.52337 1.0418,-2.52337 0,0 0.11202,-5.59853 0.0946,-6.38875 -0.0175,-0.79022 -0.18505,-1.14067 -0.89814,-1.10794 z m -0.9524,11.85813 c 0,0 0.99086,2.17439 0,2.17466 -0.99085,2.8e-4 0,-2.17466 0,-2.17466 z" sodipodi:nodetypes="zccczssszcsszzzz"/>
    <path style="fill:#e6e6e6;stroke:#000000;stroke-width:0.1;stroke-dasharray:none" d="m 77.25684,117.11914 c -0.10216,-0.15253 -0.13745,-0.32572 -0.12461,-0.50962 0.13741,0.10958 0.24113,0.24593 0.32133,0.39898 -0.0317,-0.2083 -0.0488,-0.42231 -0.0534,-0.64058 0.12084,0.18698 0.20631,0.39669 0.27151,0.6147 0.0357,-0.17068 0.0851,-0.34375 0.14274,-0.51574 0.10555,0.19013 0.18748,0.38986 0.27022,0.5721 0.0347,-0.1413 0.0697,-0.2808 0.10438,-0.41794 0.0188,-0.074 0.0379,-0.14804 0.0573,-0.22199 0.019,0.21305 0.034,0.42621 0.0465,0.63947 0.12564,-0.20804 0.26,-0.41384 0.3937,-0.61941 0.005,0.25054 0.009,0.50104 0.0148,0.75152 0.14039,-0.24849 0.2807,-0.4973 0.40973,-0.74856 -0.002,0.25464 -8.9e-4,0.50924 0.004,0.76382 0.0911,-0.2383 0.17633,-0.47773 0.25185,-0.71883 0.0157,0.22348 0.0362,0.44682 0.0627,0.67003 0.0992,-0.19014 0.18801,-0.3833 0.26089,-0.58061 0.008,-0.0205 0.0167,-0.0411 0.0251,-0.0616 0.0594,0.21493 0.11882,0.42986 0.17823,0.64479 0.0786,-0.19874 0.15719,-0.39748 0.23579,-0.59622 0.0283,0.1846 0.0566,0.36921 0.0849,0.55381 0.0686,-0.18623 0.13716,-0.37247 0.20574,-0.5587 0.0898,0.20208 0.17965,0.40416 0.26947,0.60624 10e-4,-0.2468 0.003,-0.4936 0.004,-0.74039 0.0903,0.23292 0.18059,0.46583 0.27089,0.69875 0.0681,-0.21707 0.13622,-0.43415 0.20434,-0.65122 0.075,0.23318 0.14998,0.46636 0.22498,0.69954 0.0426,-0.21665 0.0852,-0.4333 0.12782,-0.64994 0.064,0.184 0.12807,0.36801 0.19211,0.55201 0.0433,-0.17347 0.0865,-0.34694 0.1298,-0.52041 0.0489,0.1966 0.0978,0.3932 0.14677,0.5898 0.0479,-0.2044 0.0958,-0.40879 0.14369,-0.61319 0.0286,0.20311 0.0572,0.40621 0.0858,0.60932 0.0735,-0.19865 0.14699,-0.39731 0.22049,-0.59596 0.004,0.0329 0.009,0.0658 0.0129,0.0987 0.0246,0.1887 0.0492,0.37739 0.0738,0.56609 0.0832,-0.22967 0.16645,-0.45934 0.24967,-0.68901 0.0495,0.2336 0.099,0.46721 0.14847,0.70082 0.0578,-0.22307 0.11563,-0.44614 0.17345,-0.66921 0.0287,0.20927 0.0574,0.41855 0.0862,0.62783 0.0782,-0.22341 0.15644,-0.44683 0.23465,-0.67024 0.0543,0.21502 0.10861,0.43003 0.16292,0.64505 0.0791,-0.16337 0.15824,-0.32674 0.23736,-0.49011 0.0689,0.16542 0.13772,0.33084 0.20658,0.49626 0.0222,-0.21631 0.0444,-0.43261 0.0666,-0.64892 0.0746,0.20851 0.14923,0.41701 0.22384,0.62552 0.0434,-0.1673 0.0867,-0.3346 0.13008,-0.5019 0.10475,0.17715 0.2095,0.3543 0.31425,0.53145 0.0273,-0.21639 0.0546,-0.43278 0.0819,-0.64917 0.044,0.20902 0.088,0.41804 0.13204,0.62706 0.0799,-0.18124 0.15977,-0.36247 0.23965,-0.54371 0.0192,-0.0428 0.0388,-0.0857 0.0588,-0.12857 0.0446,0.24647 0.0854,0.49535 0.12146,0.74585 0.0994,-0.26526 0.21093,-0.53278 0.33797,-0.79668 0.0179,0.2592 0.0315,0.51877 0.0403,0.77823 0.0772,-0.24654 0.16291,-0.49174 0.25824,-0.7337 0.0132,0.22946 0.0212,0.45849 0.0234,0.68655 0.11648,-0.20629 0.24532,-0.40703 0.38876,-0.5983 0.0157,0.2265 0.0217,0.45099 0.0167,0.6722 0.12217,-0.17369 0.25619,-0.33932 0.40368,-0.49406 -0.0338,0.18255 -0.0721,0.36319 -0.11516,0.54171 0.12448,-0.14921 0.25987,-0.28977 0.40734,-0.41969 3.4e-4,0.2212 -0.0192,0.43624 -0.0615,0.64239 0.12967,-0.20207 0.26049,-0.40338 0.39247,-0.60393 -0.0355,0.24674 -0.0959,0.48383 -0.1844,0.70808 0.17935,-0.1252 0.37469,-0.23505 0.58746,-0.32725 -0.0477,0.10174 -0.10038,0.201 -0.15821,0.29754 -0.0685,0.11411 -0.14159,0.22073 -0.21903,0.32032 0.19132,-0.10269 0.38751,-0.18938 0.58813,-0.26125 -0.1115,0.15763 -0.23301,0.29928 -0.3635,0.4267 0.16339,-0.0438 0.3299,-0.0763 0.4992,-0.0982 -0.15032,0.12175 -0.30701,0.23211 -0.46949,0.33215 0.19504,-0.0282 0.39377,-0.0432 0.59569,-0.0464 -0.17753,0.0815 -0.35792,0.15707 -0.54098,0.22719 0.19765,0.0143 0.39903,0.0464 0.60319,0.0932 -0.20692,0.0637 -0.41641,0.12207 -0.62827,0.1754 0.22883,0.0412 0.46181,0.10221 0.69751,0.17825 -0.2281,0.0661 -0.46031,0.12417 -0.69594,0.17553 0.22394,0.0474 0.45031,0.10471 0.67837,0.16959 -0.21348,0.0279 -0.42833,0.0528 -0.64437,0.075 0.22519,0.0812 0.45244,0.17302 0.68051,0.27134 -0.22597,0.0448 -0.45398,0.0854 -0.68322,0.1232 0.16331,0.0929 0.32719,0.19062 0.49082,0.29005 -0.17996,0.0565 -0.3606,0.11137 -0.54081,0.16632 0.22445,0.0454 0.44879,0.091 0.67286,0.1365 -0.2263,0.0565 -0.45206,0.1128 -0.67571,0.17145 0.17059,0.0621 0.34066,0.12326 0.50988,0.18248 -0.19368,0.0916 -0.38393,0.18604 -0.56763,0.28778 0.21971,0.0415 0.43826,0.0805 0.65544,0.11632 -0.21443,0.0337 -0.42645,0.0709 -0.6356,0.11265 0.0175,0.008 0.0349,0.017 0.0523,0.0254 0.20462,0.0948 0.40919,0.18983 0.61372,0.28504 -0.24687,0.0397 -0.49376,0.0792 -0.74065,0.11866 0.26486,0.10328 0.52967,0.20685 0.79442,0.3107 -0.25305,0.029 -0.50612,0.058 -0.75919,0.0869 0.24643,0.0628 0.49283,0.12574 0.73922,0.18885 -0.22228,0.0341 -0.44456,0.0682 -0.66685,0.10209 0.21532,0.0934 0.43059,0.18703 0.64581,0.28088 -0.2163,0.0543 -0.43262,0.10843 -0.64896,0.16243 0.19674,0.0834 0.39343,0.16699 0.59008,0.25077 -0.18527,0.0236 -0.37055,0.0471 -0.55583,0.0706 0.18438,0.0733 0.36873,0.14684 0.55305,0.2205 -0.20443,0.0845 -0.4089,0.16867 -0.61342,0.25267 0.24666,0.008 0.49333,0.0165 0.73999,0.0247 -0.23537,0.0839 -0.47078,0.16748 -0.70624,0.25081 0.21499,0.0743 0.42994,0.1489 0.64486,0.22365 -0.23535,0.068 -0.47072,0.13585 -0.70612,0.20342 0.21521,0.0493 0.43041,0.0987 0.64559,0.14823 -0.18595,0.0582 -0.37192,0.11632 -0.55792,0.17424 0.17197,0.0489 0.34392,0.0978 0.51585,0.14692 -0.19812,0.0424 -0.39626,0.0847 -0.59441,0.12682 0.20265,0.0547 0.40529,0.10963 0.60789,0.16467 -0.20398,0.0216 -0.40796,0.0431 -0.61195,0.0645 0.19596,0.0803 0.39187,0.16083 0.58773,0.24158 -0.22252,0.0209 -0.44504,0.0417 -0.66756,0.0624 0.22647,0.0914 0.45288,0.18313 0.67922,0.27514 -0.23532,0.0407 -0.47065,0.0812 -0.70599,0.12148 0.20054,0.0602 0.40106,0.12063 0.60154,0.1812 0.0203,0.006 0.0406,0.0123 0.0609,0.0185 -0.20984,0.0207 -0.42183,0.0405 -0.63559,0.0601 0.21909,0.0879 0.44444,0.17945 0.67315,0.26938 -0.22323,0.046 -0.4488,0.093 -0.67517,0.14268 0.16587,0.0903 0.33461,0.17914 0.5042,0.26241 -0.1738,0.0685 -0.34678,0.14091 -0.51683,0.21959 0.22585,0.021 0.45129,0.0391 0.67601,0.054 -0.21514,0.0797 -0.42677,0.16732 -0.63185,0.26614 0.17588,0.0348 0.35065,0.064 0.52358,0.0863 -0.16858,0.12133 -0.32683,0.25573 -0.46902,0.40862 0.21681,-0.0162 0.43089,-0.0395 0.64181,-0.0704 -0.18991,0.0893 -0.37411,0.18798 -0.55166,0.29706 0.24411,0.0393 0.48144,0.0487 0.70768,0.02 -0.19485,0.13895 -0.38051,0.29203 -0.55588,0.46062 0.28081,-0.0305 0.54781,-0.1055 0.79563,-0.23508 -0.0915,0.1034 -0.18022,0.21093 -0.26616,0.32274 -0.0701,0.0907 -0.1432,0.18626 -0.21532,0.28587 0.22018,-0.12075 0.47946,-0.2857 0.61895,-0.47727 -0.11695,0.20694 -0.18967,0.422 -0.16757,0.63247 0.12454,-0.0914 0.20276,-0.20118 0.1848,-0.32689 -0.007,-0.10803 -0.0231,-0.21634 -0.0258,-0.32649 0.15746,0.16533 0.31638,0.33253 0.39331,0.52712 -0.0113,-0.0941 -0.007,-0.1871 0.0316,-0.28035 0.0445,-0.10231 0.0874,-0.20495 0.12907,-0.30788 0.0241,0.18508 0.0497,0.37006 0.0767,0.55494 0.0724,-0.18547 0.14076,-0.37168 0.20631,-0.55844 0.0894,0.2014 0.1833,0.4019 0.27957,0.60171 -0.005,-0.24682 -0.01,-0.49363 -0.0147,-0.74045 0.0943,0.23068 0.19222,0.46068 0.2914,0.69022 0.0299,-0.10776 0.0595,-0.21554 0.0888,-0.32332 0.037,-0.11008 0.0765,-0.22428 0.12474,-0.33595 0.0793,0.23957 0.14352,0.49467 0.12667,0.72137 0.0736,-0.2061 0.18015,-0.39356 0.34033,-0.54267 0.004,0.15189 -0.0257,0.29325 -0.10537,0.41373 -0.0237,0.0454 -0.0469,0.0924 -0.0708,0.13878 0.15749,-0.0866 0.31592,-0.19142 0.48788,-0.23677 -0.11815,0.18 -0.25727,0.32524 -0.44765,0.34634 0.068,-0.0217 0.13861,-0.0271 0.21286,-0.01 0.12323,0.0399 0.24647,0.0799 0.3697,0.11983 -0.20479,0.0116 -0.40957,0.0232 -0.61436,0.0349 0.19186,0.0898 0.38371,0.17954 0.57556,0.2693 -0.18391,0.008 -0.36781,0.0171 -0.55172,0.0256 -0.0393,0.002 -0.0787,0.004 -0.11803,0.005 0.22195,0.10203 0.4439,0.20408 0.66586,0.30612 -0.23692,0.0299 -0.47383,0.0598 -0.71075,0.0897 0.0628,0.022 0.1255,0.044 0.18824,0.0659 0.16532,0.0266 0.29687,0.11683 0.40513,0.24328 -0.19781,-0.048 -0.38213,-0.13448 -0.5563,-0.24542 0.14101,0.12898 0.22867,0.34475 0.30592,0.54486 0.004,0.0205 0.008,0.0411 0.0108,0.0619 -0.20672,-0.11664 -0.34821,-0.27064 -0.44385,-0.45129 0.0331,0.15179 -0.0124,0.31907 -0.0956,0.49068 -0.0856,-0.1579 -0.14035,-0.33559 -0.18846,-0.51787 -0.0383,0.22319 -0.0841,0.44862 -0.13278,0.67434 -0.0603,-0.22665 -0.10531,-0.46001 -0.17085,-0.67852 -0.0659,0.17162 -0.12615,0.34092 -0.16847,0.50365 -2.1e-4,7.3e-4 -4.3e-4,10e-4 -6.4e-4,0.002 -0.0997,-0.17978 -0.20098,-0.35919 -0.30316,-0.53834 -0.0315,0.21588 -0.0627,0.43181 -0.0935,0.64776 -0.0403,-0.20979 -0.081,-0.41957 -0.12204,-0.62932 -0.10249,0.22228 -0.20398,0.44479 -0.30538,0.66735 -0.0414,-0.24669 -0.0829,-0.49338 -0.12444,-0.74007 -0.10135,0.26579 -0.20251,0.53158 -0.30459,0.79719 -0.0311,-0.25294 -0.0619,-0.50589 -0.0925,-0.75884 -0.0609,0.24695 -0.12224,0.49381 -0.18443,0.74054 -0.0354,-0.22217 -0.0704,-0.44437 -0.10495,-0.66658 -0.0826,0.1932 -0.16611,0.38617 -0.251,0.57879 -0.0155,0.0211 -0.0322,0.0417 -0.05,0.0617 -0.0804,-0.22606 -0.076,-0.44374 -0.0225,-0.65591 -0.1126,0.15967 -0.30186,0.28579 -0.50339,0.3985 0.0871,-0.1738 0.18305,-0.34491 0.28142,-0.5141 -0.17333,0.11163 -0.36188,0.21398 -0.51945,0.32104 0.007,-0.0237 0.0142,-0.0472 0.0209,-0.0707 0.0413,-0.1931 0.0867,-0.38592 0.13916,-0.5749 -0.15442,0.19342 -0.30927,0.38652 -0.46455,0.57928 0.0694,-0.24309 0.14757,-0.4826 0.23967,-0.7126 -0.19182,0.12045 -0.39041,0.23206 -0.59792,0.33064 0.10649,-0.22348 0.22553,-0.43772 0.36046,-0.63863 -0.18393,0.10961 -0.37412,0.21063 -0.57143,0.30151 -0.005,0.002 -0.009,0.004 -0.0141,0.006 0.0997,-0.1776 0.21926,-0.32908 0.35417,-0.46007 -0.16669,0.0506 -0.33981,0.0837 -0.51772,0.10233 0.15654,-0.12652 0.32353,-0.23702 0.4984,-0.33497 -0.20403,0.0241 -0.414,0.0308 -0.62753,0.025 0.1905,-0.078 0.38443,-0.14943 0.581,-0.21542 -0.20782,-0.0245 -0.42032,-0.0682 -0.63265,-0.12073 0.22018,-0.0605 0.44173,-0.11715 0.66379,-0.17111 -0.24233,-0.0518 -0.48615,-0.11649 -0.7242,-0.1785 0.2322,-0.0726 0.46237,-0.14415 0.68748,-0.21889 -0.01,-0.002 -0.0199,-0.003 -0.0298,-0.005 -0.2178,-0.0313 -0.43559,-0.0656 -0.65329,-0.10316 0.20588,-0.0477 0.412,-0.0941 0.61835,-0.13904 -0.22886,-0.0572 -0.45738,-0.11899 -0.68536,-0.18567 0.21127,-0.0687 0.42312,-0.13447 0.63549,-0.19723 -0.1668,-0.0688 -0.33294,-0.14122 -0.49827,-0.2175 0.16367,-0.0738 0.32807,-0.14457 0.49314,-0.21209 -0.21643,-0.0202 -0.43279,-0.0418 -0.64908,-0.0651 0.20862,-0.0763 0.41804,-0.14834 0.62817,-0.21576 -0.16628,-0.0457 -0.33224,-0.0936 -0.49782,-0.14378 0.0563,-0.0311 0.11281,-0.0617 0.16943,-0.0917 0.1252,-0.0664 0.25067,-0.13165 0.37633,-0.19627 -0.21459,-0.0386 -0.42911,-0.0779 -0.64356,-0.11763 0.21117,-0.0324 0.42236,-0.0641 0.63357,-0.0954 -0.21752,-0.11108 -0.43468,-0.22364 -0.65184,-0.33582 0.24824,-0.0293 0.49646,-0.0585 0.74466,-0.0881 -0.26036,-0.11442 -0.52082,-0.22853 -0.78175,-0.34009 0.25374,-0.0201 0.50745,-0.0407 0.76113,-0.0622 -0.24419,-0.0712 -0.48858,-0.14097 -0.73327,-0.2087 0.22282,-0.0283 0.44558,-0.0576 0.66826,-0.0882 -0.21343,-0.0986 -0.42756,-0.1945 -0.64265,-0.28616 0.21613,-0.0528 0.43201,-0.10793 0.6476,-0.16604 -0.1104,-0.0463 -0.22107,-0.0915 -0.33204,-0.13542 -0.0877,-0.0348 -0.17545,-0.0692 -0.26328,-0.10327 0.18455,-0.0286 0.36906,-0.0576 0.55354,-0.0871 -0.18662,-0.0682 -0.37347,-0.13512 -0.56053,-0.20111 0.20112,-0.0915 0.40195,-0.18438 0.60259,-0.27814 -0.2469,0.003 -0.49381,0.006 -0.74071,0.009 0.23145,-0.0937 0.46272,-0.18853 0.69387,-0.28391 -0.21857,-0.0639 -0.43721,-0.12721 -0.65588,-0.19047 0.18004,-0.0622 0.5148,-0.1783 0.69484,-0.24054 -0.21769,-0.0378 -0.43536,-0.0756 -0.65301,-0.11366 0.1827,-0.0681 0.36543,-0.13614 0.54823,-0.20368 -0.1744,-0.0397 -0.34876,-0.0797 -0.52306,-0.12002 0.19579,-0.0527 0.39161,-0.10496 0.5875,-0.15667 -0.2052,-0.0444 -0.41031,-0.0894 -0.61533,-0.13516 0.2028,-0.0313 0.40561,-0.0622 0.60845,-0.0927 -0.19944,-0.0708 -0.39865,-0.14278 -0.59755,-0.21626 0.2215,-0.0299 0.44304,-0.0593 0.6646,-0.0881 -0.22974,-0.0819 -0.45906,-0.16564 -0.6879,-0.25202 0.23399,-0.048 0.4681,-0.0945 0.70235,-0.13957 -0.22209,-0.0601 -0.44391,-0.12196 -0.66543,-0.18596 0.20984,-0.024 0.41972,-0.0472 0.62965,-0.0694 -0.22105,-0.0829 -0.44153,-0.16862 -0.66139,-0.2577 0.1608,-0.0342 0.32172,-0.0672 0.48278,-0.0991 0.0569,-0.0107 0.11439,-0.0209 0.17236,-0.0306 -0.15383,-0.0827 -0.31545,-0.17975 -0.47991,-0.27834 0.17826,-0.0568 0.36045,-0.11203 0.54085,-0.17315 -0.22609,-0.0431 -0.45248,-0.0846 -0.67841,-0.12296 0.2259,-0.0591 0.45005,-0.12421 0.66428,-0.20624 -0.17459,-0.0532 -0.34775,-0.0989 -0.51766,-0.1332 0.17917,-0.10507 0.34159,-0.23018 0.4716,-0.39332 -0.21194,0.0138 -0.41851,0.0413 -0.61859,0.0847 0.18072,-0.0902 0.34986,-0.1991 0.5049,-0.33044 -0.24476,-0.0284 -0.4759,0.005 -0.68285,0.12668 0.0377,-0.0471 0.0742,-0.0963 0.1093,-0.14757 0.10778,-0.15398 0.18902,-0.31826 0.24784,-0.49076 -0.28182,0.13053 -0.45701,0.33745 -0.58203,0.5777 0.0371,-0.24163 0.0536,-0.49045 0.0553,-0.74345 -0.11256,0.22456 -0.194,0.46535 -0.26357,0.709 -0.0145,-0.19287 -0.0362,-0.3869 -0.0607,-0.57985 -0.004,-0.0301 -0.007,-0.0602 -0.0109,-0.0904 -0.10029,0.21224 -0.20059,0.42449 -0.30088,0.63673 -0.0476,-0.21786 -0.0951,-0.43572 -0.14264,-0.65359 -0.0894,0.19414 -0.17873,0.38828 -0.26809,0.58242 -0.0182,-0.18588 -0.0363,-0.37176 -0.0545,-0.55764 -0.0787,0.1822 -0.15736,0.3644 -0.23604,0.5466 -0.0499,-0.13118 -0.0998,-0.26235 -0.14968,-0.39353 -0.0288,-0.0755 -0.0579,-0.15101 -0.0872,-0.22645 -0.0141,0.2464 -0.0281,0.4928 -0.042,0.7392 -0.0771,-0.2372 -0.15634,-0.47414 -0.23643,-0.71092 -0.0782,0.21377 -0.15551,0.42769 -0.23266,0.64167 -0.0648,-0.23617 -0.13006,-0.47231 -0.195,-0.70846 -0.0517,0.21465 -0.10347,0.42929 -0.15559,0.64388 -0.0562,-0.18662 -0.11212,-0.37329 -0.1673,-0.56004 -0.051,0.17129 -0.10246,0.34252 -0.15454,0.51363 -0.0395,-0.19878 -0.0784,-0.39762 -0.11625,-0.59654 -0.0164,0.0567 -0.0328,0.11331 -0.0493,0.16995 -0.0365,0.14268 -0.0936,0.29022 -0.15977,0.43937 -0.003,-0.21249 0.006,-0.43015 0.0191,-0.64958 -0.10796,0.19066 -0.24479,0.38801 -0.34036,0.57579 0.0118,-0.23569 0.014,-0.46688 -0.002,-0.68989 -0.14001,0.23572 -0.23682,0.46707 -0.18645,0.66969 -0.0822,-0.19844 -0.22645,-0.36568 -0.46196,-0.48858 0.004,0.0271 0.009,0.0538 0.0163,0.0802 0.10187,0.15986 0.19272,0.35982 0.29215,0.54821 -0.16725,-0.14591 -0.33685,-0.29128 -0.51207,-0.42222 0.0914,0.24539 0.20085,0.48176 0.38408,0.57502 -0.17208,-0.065 -0.35629,-0.0703 -0.56037,0.0235 -0.0235,0.007 -0.047,0.0149 -0.0705,0.0226 0.16615,0.0904 0.33604,0.14285 0.50196,0.22321 -0.0177,0.009 -0.0355,0.017 -0.0533,0.0252 -0.14637,0.0639 -0.29274,0.12789 -0.4391,0.19184 0.21666,0.0184 0.43332,0.0369 0.64998,0.0553 -0.20717,0.0782 -0.41434,0.1565 -0.62152,0.23472 0.11476,0.0276 0.22951,0.0552 0.34426,0.0828 0.0533,0.0127 0.10711,0.0234 0.16121,0.0319 -0.17122,0.0993 -0.33428,0.24898 -0.44113,0.45264 0.21744,-0.0422 0.42712,-0.10581 0.62441,-0.1923 -0.17112,0.1233 -0.32281,0.27383 -0.44615,0.4534 0.07,-0.005 0.13774,-0.0157 0.20222,-0.0333 0.23046,-0.0471 0.27953,-0.19173 0.28596,-0.37323 0.0318,0.22361 0.14196,0.46674 0.26219,0.71516 0.0598,-0.26526 0.009,-0.58138 0.18111,-0.81232 l 0.0212,-0.0556 0.0944,0.75829 c 0.0604,-0.24704 0.1208,-0.49408 0.1812,-0.74112 0.0364,0.22189 0.0729,0.44379 0.10933,0.66569 l 0.27334,-0.64903 c 0.0568,0.21563 0.11366,0.43125 0.1705,0.64688 l 0.15833,-0.38676 0.0846,-0.2066 0.0783,0.55479 c 0.0708,-0.1854 0.14161,-0.3708 0.21241,-0.5562 0.0874,0.20314 0.17479,0.40628 0.26219,0.60942 l 0.0128,-0.74029 0.0773,0.20679 c 0.0673,0.16106 0.12679,0.33718 0.15237,0.50752 0.0798,-0.21344 0.19482,-0.41594 0.38029,-0.56239 0.0135,0.22885 -0.031,0.44126 -0.16766,0.60888 -0.0147,0.0258 -0.0296,0.0514 -0.0449,0.0765 0.18321,-0.11938 0.37405,-0.24616 0.58338,-0.30556 -0.0994,0.18876 -0.22942,0.34172 -0.42891,0.34392 0.0134,-1.9e-4 0.0268,2.7e-4 0.0404,0.001 0.1567,0.0471 0.31339,0.0942 0.47008,0.14135 -0.1987,0.0395 -0.39742,0.079 -0.59613,0.11848 0.20188,0.0576 0.40376,0.11518 0.60565,0.17275 -0.12513,0.0116 -0.25025,0.0232 -0.37537,0.0347 -0.0791,0.007 -0.15824,0.0146 -0.23736,0.022 0.19494,0.0829 0.38986,0.16576 0.58478,0.24864 -0.22274,0.0183 -0.44548,0.0366 -0.66822,0.0549 0.11061,0.0462 0.22122,0.0923 0.33183,0.13848 0.11528,0.0465 0.22551,0.1026 0.32662,0.17327 -0.2369,0.0248 -0.46612,0.0201 -0.68072,-0.0269 0.19543,0.09 0.36608,0.2203 0.49783,0.40912 -0.18406,-0.0795 -0.35806,-0.18375 -0.51997,-0.31625 0.0241,0.0282 0.0464,0.0589 0.0668,0.0921 0.0982,0.16869 0.1457,0.3495 0.15366,0.53894 -0.1586,-0.14626 -0.28223,-0.31262 -0.37824,-0.49503 0.004,0.15786 -0.0358,0.32404 -0.10463,0.49438 -0.0903,-0.15072 -0.15915,-0.31579 -0.21566,-0.48945 -0.0213,0.21792 -0.0507,0.43865 -0.0866,0.66147 -0.0757,-0.2147 -0.13216,-0.44083 -0.18292,-0.67028 -0.0614,0.17037 -0.12828,0.34209 -0.19608,0.51353 -0.0891,-0.20074 -0.17238,-0.40388 -0.27264,-0.5935 -0.0527,0.22352 -0.101,0.44507 -0.14232,0.66361 -0.0258,-0.21966 -0.0591,-0.43437 -0.10443,-0.64168 -0.004,0.008 -0.008,0.0151 -0.0118,0.0226 -0.0999,0.21439 -0.19969,0.42877 -0.29955,0.64316 -0.003,-0.0183 -0.11547,-0.72246 -0.11839,-0.7407 -0.023,0.0589 -0.28744,0.73568 -0.31043,0.79453 -0.0292,-0.25303 -0.0585,-0.50606 -0.0877,-0.75909 -0.0626,0.2465 -0.12514,0.493 -0.1877,0.7395 -0.0345,-0.22221 -0.069,-0.44442 -0.10349,-0.66662 -0.093,0.21553 -0.18601,0.43106 -0.27902,0.6466 -0.0549,-0.21612 -0.10988,-0.43223 -0.16481,-0.64835 -0.0827,0.19707 -0.16541,0.39413 -0.24811,0.5912 -0.0245,-0.18515 -0.049,-0.3703 -0.0734,-0.55546 -0.004,0.0113 -0.009,0.0227 -0.0133,0.034 -0.068,0.17344 -0.13596,0.34687 -0.20395,0.52031 -0.0856,-0.2039 -0.17122,-0.4078 -0.25683,-0.6117 -0.006,0.24672 -0.0129,0.49343 -0.0193,0.74015 -0.0854,-0.23474 -0.17089,-0.46948 -0.25633,-0.70423 -0.0726,0.21562 -0.14521,0.43123 -0.21781,0.64685 -0.0701,-0.23469 -0.14028,-0.46938 -0.21041,-0.70406 -0.0471,0.21572 -0.0942,0.43143 -0.14129,0.64715 -0.0602,-0.1853 -0.12041,-0.37059 -0.18061,-0.55588 -0.0469,0.17253 -0.0937,0.34507 -0.14057,0.51761 -0.0448,-0.19758 -0.0897,-0.39515 -0.1345,-0.59273 -0.0424,0.16545 -0.0848,0.3309 -0.12723,0.49635 -0.009,0.0383 -0.0178,0.0768 -0.0262,0.11549 -0.0239,-0.20303 -0.0538,-0.40878 -0.0884,-0.61664 -0.0789,0.19981 -0.14389,0.41026 -0.2057,0.62442 -0.0432,-0.22955 -0.0889,-0.46043 -0.13546,-0.69197 -0.0736,0.24572 -0.14069,0.49662 -0.2174,0.74245 -0.0684,-0.24342 -0.13314,-0.48624 -0.18895,-0.72637 -0.0464,0.237 -0.10017,0.46981 -0.16908,0.69379 -0.0281,-0.21505 -0.0502,-0.42801 -0.0648,-0.63825 -0.0771,0.22634 -0.17287,0.43982 -0.30132,0.63168 -0.0236,-0.21795 -0.0266,-0.42978 -0.003,-0.63318 -0.0958,0.13476 -0.21546,0.25039 -0.36913,0.33985 0.0142,-0.17091 0.0609,-0.33458 0.14806,-0.48847 -0.0773,0.0734 -0.15878,0.14453 -0.24466,0.21339 -0.0835,0.0673 -0.17103,0.12781 -0.26218,0.18175 0.0871,-0.22411 0.2396,-0.37958 0.42466,-0.48025 -0.15974,0.0325 -0.33103,0.0305 -0.50467,5.1e-4 0.15601,-0.14789 0.35422,-0.23065 0.53583,-0.26808 -0.0233,-0.006 -0.0466,-0.013 -0.0698,-0.0198 -0.18452,-0.0573 -0.36738,-0.12347 -0.54922,-0.19443 0.21467,10e-4 0.42888,0.0137 0.64312,0.0263 -0.19237,-0.15083 -0.38106,-0.31898 -0.58398,-0.43742 0.2482,0.009 0.49648,0.002 0.74554,-0.0348 -0.0788,-0.0497 -0.15949,-0.094 -0.24263,-0.13056 -0.18319,-0.0672 -0.36638,-0.13444 -0.54958,-0.20165 0.25237,-0.0345 0.50474,-0.069 0.75711,-0.1035 -0.24775,-0.0574 -0.49551,-0.11484 -0.74326,-0.17225 0.22145,-0.0391 0.44289,-0.0782 0.66433,-0.11735 -0.21743,-0.0885 -0.43485,-0.177 -0.65228,-0.2655 0.21493,-0.0594 0.42985,-0.11885 0.64478,-0.17828 -0.19875,-0.0786 -0.3975,-0.15716 -0.59625,-0.23574 0.18461,-0.0283 0.36921,-0.0567 0.55381,-0.085 -0.0126,-0.005 -0.0253,-0.009 -0.0379,-0.014 -0.17366,-0.0606 -0.34571,-0.1292 -0.51664,-0.20264 0.20531,-0.0861 0.41226,-0.16268 0.62,-0.23648 -0.24619,-0.018 -0.49238,-0.0363 -0.73856,-0.0548 0.23871,-0.0766 0.47811,-0.14729 0.71737,-0.22003 -0.21138,-0.0848 -0.42287,-0.16955 -0.63509,-0.24954 0.23758,-0.0573 0.47456,-0.11802 0.71049,-0.18744 -0.21466,-0.0535 -0.42987,-0.10273 -0.6458,-0.14587 0.0739,-0.0229 0.14763,-0.0468 0.22118,-0.0719 0.10972,-0.0352 0.22015,-0.0829 0.33062,-0.13911 -0.17956,-0.0359 -0.36528,-0.0534 -0.55366,-0.0622 0.19438,-0.0792 0.38977,-0.17302 0.58394,-0.26968 -0.22361,-0.008 -0.44845,-0.008 -0.66953,-0.0139 0.20465,-0.0759 0.40823,-0.15032 0.60986,-0.21937 -0.22228,-0.0276 -0.43775,-0.0616 -0.63402,-0.13184 0.21691,-0.0538 0.43032,-0.0949 0.63924,-0.11911 -0.2323,-0.0442 -0.43938,-0.12983 -0.60295,-0.30138 0.22089,10e-4 0.43259,0.0489 0.63224,0.15675 -0.0921,-0.0655 -0.17466,-0.15129 -0.24619,-0.26141 -0.0529,-0.0828 -0.10588,-0.16565 -0.15882,-0.24848 0.17288,0.12137 0.34577,0.24275 0.51866,0.36412 -0.004,-0.008 -0.009,-0.0168 -0.0133,-0.0252 l -0.24892,-0.22564 c 0.0137,-0.0151 0.0256,-0.0282 0.0392,-0.0432 v 0 c -0.008,0.009 -0.0187,0.0206 -0.0272,0.03 l -0.0475,0.0524 v 0 l -0.0382,0.0421 -0.009,0.0103 v 0 c -0.008,0.009 -0.0186,0.0205 -0.0271,0.0299 z" id="use51" sodipodi:nodetypes="zzzzzzzzzzzzzzzzzzssszzzzzzzzzzzzzzzzzzzzzzzzzzz"/>
    <path style="fill:#e6e6e6;stroke:#000000;stroke-width:0.1;stroke-linecap:round;stroke-dasharray:none" d="m 99.70776,127.53463 c -0.15555,-0.0686 -0.31019,-0.14078 -0.46405,-0.21582 0.15285,-0.0627 0.30614,-0.12291 0.4598,-0.1812 -0.19853,-0.0246 -0.39699,-0.0502 -0.59537,-0.0767 0.19378,-0.0644 0.38795,-0.12604 0.58244,-0.18575 -0.15223,-0.0454 -0.30429,-0.092 -0.45622,-0.13931 0.16739,-0.0893 0.33534,-0.17638 0.50363,-0.26254 -0.19745,-0.0362 -0.39486,-0.0728 -0.59225,-0.10979 0.19448,-0.0293 0.389,-0.0582 0.58355,-0.0868 -0.14118,-0.0725 -0.45896,-0.23715 -0.60014,-0.30965 0.22863,-0.027 0.45726,-0.0541 0.68588,-0.0816 -0.23989,-0.10537 -0.48001,-0.2101 -0.72067,-0.31222 0.23373,-0.0189 0.46745,-0.0385 0.70114,-0.059 -0.22515,-0.0651 -0.45052,-0.12874 -0.6762,-0.19037 0.20522,-0.0267 0.4104,-0.0544 0.61551,-0.0834 -0.19698,-0.0903 -0.39466,-0.17783 -0.59327,-0.26142 0.12,-0.0298 0.23991,-0.0605 0.35972,-0.092 0.0789,-0.0208 0.15796,-0.042 0.23714,-0.0635 -0.18215,-0.0755 -0.36652,-0.14808 -0.55194,-0.22031 0.17144,-0.0265 0.34318,-0.0534 0.51514,-0.0804 -0.17333,-0.0635 -0.34748,-0.12643 -0.52161,-0.1908 0.18843,-0.0847 0.37768,-0.16873 0.56727,-0.24854 -0.2305,-0.004 -0.46097,-0.008 -0.69143,-0.0122 0.21879,-0.0841 0.43826,-0.16467 0.65777,-0.23778 -0.19996,-0.0689 -0.39838,-0.1423 -0.59434,-0.22255 0.22119,-0.0587 0.44225,-0.11044 0.66268,-0.15245 -0.19535,-0.0574 -0.3891,-0.11972 -0.58093,-0.18788 0.17653,-0.0398 0.3528,-0.0728 0.52853,-0.0975 -0.15022,-0.0646 -0.29854,-0.13433 -0.44469,-0.20986 0.18622,-0.009 0.37169,-0.0109 0.55621,-0.005 -0.1711,-0.0852 -0.33924,-0.17836 -0.504,-0.28049 0.18614,0.0281 0.37145,0.0609 0.55586,0.0987 -0.063,-0.0477 -0.12495,-0.0975 -0.18585,-0.14963 -0.0933,-0.0694 -0.14484,-0.16294 -0.16416,-0.27262 0.15845,0.0953 0.28419,0.22085 0.38254,0.37026 -0.10036,-0.14599 -0.0738,-0.36413 0.0101,-0.59525 0.0781,0.20101 0.1222,0.42717 0.14933,0.65704 0.0483,-0.20862 0.12926,-0.42692 0.21047,-0.62537 0.005,0.1672 0.007,0.33099 0.009,0.48806 0.005,0.0285 0.0103,0.0548 0.0153,0.0796 0.0613,-0.13466 0.0114,-0.18771 0.0625,-0.23544 l 0.0305,0.0119 c 0.01,-0.017 0.0139,-0.0344 0.0229,-0.0522 0,0 0,0 0,0 0.0156,-0.0309 0.0285,-0.0684 0.0434,-0.10479 0,0 0,0 0,0 0.0218,-0.0531 0.0418,-0.10755 0.0622,-0.16232 0.0106,0.0559 0.0223,0.11178 0.0342,0.16759 0.0266,0.14241 0.0696,0.2894 0.1232,0.43904 0.0864,-0.15255 0.14184,-0.32519 0.19351,-0.50115 0.092,0.15399 0.19234,0.30982 0.28022,0.46196 -0.0118,-0.21934 -0.0208,-0.43719 -0.0236,-0.65198 0.10755,0.19932 0.20204,0.39624 0.25325,0.58211 0.0279,-0.16091 0.0707,-0.3127 0.13691,-0.45076 0.0883,0.17557 0.11704,0.34557 0.0324,0.49892 0.0933,-0.11493 0.20596,-0.22011 0.34044,-0.31435 0.034,-0.0209 0.0693,-0.0389 0.1059,-0.0542 -0.0972,0.19257 -0.2591,0.28936 -0.45004,0.34045 0.17363,-0.0388 0.41998,0.13588 0.59775,0.19202 0.006,0.003 0.0115,0.005 0.0173,0.008 -0.22567,0.048 -0.4518,0.091 -0.67832,0.13024 0.24595,0.0841 0.49002,0.18011 0.73294,0.28093 -0.23339,0.0252 -0.46689,0.0486 -0.70046,0.0708 0.22608,0.0604 0.45185,0.12361 0.67745,0.18736 -0.2055,0.0269 -0.41102,0.0532 -0.61649,0.0796 0.0511,0.0237 0.1023,0.0474 0.15345,0.0711 0.14514,0.067 0.29027,0.13423 0.43542,0.20137 -0.20034,0.0454 -0.40069,0.0908 -0.60103,0.13639 0.17953,0.0809 0.35911,0.1617 0.53877,0.24213 -0.17108,0.0183 -0.34216,0.0368 -0.51323,0.0553 0.1686,0.0709 0.33727,0.14152 0.50603,0.21163 -0.18949,0.0745 -0.37886,0.14964 -0.56805,0.22567 0.22715,0.01 0.4543,0.0198 0.68144,0.0296 -0.21756,0.0744 -0.43496,0.14967 -0.65212,0.2263 0.1978,0.0697 0.39576,0.1384 0.5939,0.20599 -0.2166,0.0625 -0.43301,0.12616 -0.6492,0.19128 0.19864,0.0439 0.39738,0.0871 0.59621,0.12931 -0.17046,0.0555 -0.34074,0.11194 -0.51083,0.16957 0.15932,0.0419 0.31875,0.0831 0.47828,0.12344 -0.18133,0.0435 -0.36254,0.0881 -0.54362,0.13362 0.18825,0.0448 0.37664,0.0884 0.56518,0.13073 -0.18692,0.0272 -0.3738,0.055 -0.56064,0.0835 0.005,0.002 0.0109,0.004 0.0163,0.006 0.17822,0.0636 0.35633,0.12786 0.53436,0.19258 -0.20396,0.0281 -0.40792,0.056 -0.61191,0.0837 0.21201,0.075 0.42389,0.15077 0.63568,0.22709 -0.21506,0.0463 -0.43015,0.0923 -0.64527,0.13806 0.20555,0.0528 0.41105,0.10588 0.61651,0.15935 -0.19278,0.0264 -0.38558,0.0528 -0.57838,0.0789 0.20572,0.072 0.41136,0.14452 0.61695,0.21733 -0.01,0.003 -0.58468,0.1455 -0.59471,0.14801 0.15019,0.0733 0.30034,0.14688 0.45044,0.22061 -0.15271,0.0627 -0.30545,0.12519 -0.45822,0.18762 0.19913,0.0216 0.39826,0.0433 0.59738,0.0651 -0.1925,0.0676 -0.38503,0.13502 -0.57757,0.2024 0.15384,0.041 0.30768,0.082 0.46151,0.12301 -0.16386,0.0954 -0.32773,0.19067 -0.49158,0.28606 0.19915,0.0266 0.39831,0.0531 0.59747,0.0796 -0.19282,0.0392 -0.38564,0.0785 -0.57845,0.11776 0.20552,0.0923 0.41107,0.18444 0.61667,0.27632 -0.22686,0.0397 -0.45371,0.0796 -0.68054,0.11961 0.007,0.002 0.0132,0.005 0.0198,0.007 0.22468,0.0624 0.47267,0.19369 0.71995,0.31975 -0.25137,0.006 -0.50511,0.009 -0.75766,0.0161 0.23837,0.0874 0.47863,0.17316 0.711,0.23123 -0.21895,0.0192 -0.43285,0.0488 -0.63738,0.0968 0.21428,0.10078 0.42354,0.16249 0.61126,0.13165 -0.17119,0.0866 -0.31685,0.21473 -0.42613,0.40296 0.0328,-0.002 0.0652,-0.006 0.0971,-0.0118 0.17222,-0.0442 0.30834,-0.12746 0.41799,-0.23662 -0.0724,0.14997 -0.12963,0.30842 -0.17371,0.47352 0.14649,-0.11396 0.25978,-0.25827 0.35169,-0.4169 0.0173,0.19612 0.0769,0.40447 0.15254,0.6044 0.0259,-0.23326 0.0507,-0.46654 0.0743,-0.69978 0.0388,0.17662 0.0938,0.35356 0.15146,0.5197 0.0172,0.0505 0.0352,0.10159 0.0542,0.15286 0.0745,-0.19701 0.1418,-0.4049 0.18641,-0.61201 0.0687,0.21842 0.15624,0.43439 0.27683,0.63144 0.0151,-0.20913 0.0117,-0.41444 -0.0161,-0.61096 0.0877,0.15275 0.19806,0.29071 0.33911,0.40425 -0.0263,-0.16255 -0.0758,-0.3165 -0.15332,-0.45791 0.0537,0.0514 0.11195,0.0992 0.17515,0.1432 0.0883,0.0653 0.19367,0.0887 0.30912,0.0843 -0.1139,-0.16717 -0.30047,-0.22951 -0.50399,-0.26367 0.19135,-0.007 0.39354,-0.0407 0.59427,-0.079 -0.13025,-0.0524 -0.27238,-0.0812 -0.38835,-0.13435 -0.0612,-0.0243 -0.12243,-0.0479 -0.18381,-0.071 0.20455,-0.0223 0.40897,-0.0466 0.61328,-0.0725 -0.21091,-0.0816 -0.42288,-0.15686 -0.63552,-0.22883 0.21452,-0.0478 0.42881,-0.0978 0.64294,-0.14905 -0.20668,-0.0497 -0.41357,-0.0973 -0.62052,-0.14441 0.192,-0.0318 0.38396,-0.064 0.57591,-0.0962 -0.14524,-0.0462 -0.29049,-0.092 -0.43563,-0.1383 -0.0626,-0.0199 -0.12526,-0.0399 -0.1879,-0.0598 0.19657,-0.0557 0.39316,-0.1113 0.58979,-0.16676 -0.15247,-0.0685 -0.30492,-0.13721 -0.45731,-0.20623 0.15068,-0.0675 0.30143,-0.13476 0.45227,-0.20163 -0.19974,-0.0155 -0.39946,-0.0312 -0.59918,-0.0471 0.19044,-0.0735 0.38099,-0.14644 0.57166,-0.21871 -0.15491,-0.0366 -0.30979,-0.0735 -0.46461,-0.11081 0.16144,-0.0997 0.32316,-0.19853 0.48523,-0.29611 -0.19962,-0.0226 -0.39921,-0.0456 -0.59877,-0.0691 0.19215,-0.0426 0.38436,-0.0847 0.57663,-0.12609 -0.20667,-0.0887 -0.41299,-0.17892 -0.61885,-0.27116 0.22669,-0.0409 0.45345,-0.0809 0.68029,-0.12001 -0.24527,-0.0905 -0.49007,-0.18333 -0.73432,-0.27905 0.23293,-0.0282 0.46591,-0.0556 0.69893,-0.0821 -0.22703,-0.0568 -0.45385,-0.11514 -0.68044,-0.17525 0.20488,-0.0308 0.40983,-0.0606 0.61485,-0.0895 -0.13463,-0.0592 -0.26902,-0.11957 -0.40315,-0.18108 -0.0626,-0.0284 -0.12531,-0.0565 -0.18805,-0.0845 0.19988,-0.0465 0.39958,-0.0945 0.59911,-0.14387 -0.18076,-0.0788 -0.36189,-0.1558 -0.54335,-0.23132 0.17054,-0.0222 0.34104,-0.0449 0.51152,-0.068 -0.17031,-0.0669 -0.34086,-0.1326 -0.51162,-0.19726 0.1871,-0.0798 0.37389,-0.16112 0.56044,-0.24356 -0.22732,-0.002 -0.45463,-0.005 -0.68195,-0.007 0.21492,-0.0814 0.4296,-0.16418 0.64407,-0.24802 -0.20002,-0.0629 -0.40019,-0.12492 -0.60045,-0.18637 0.21449,-0.0697 0.42887,-0.1402 0.64317,-0.21114 -0.19989,-0.0379 -0.3998,-0.0755 -0.59973,-0.11289 0.169,-0.0603 0.33795,-0.12097 0.50687,-0.18173 -0.16021,-0.0383 -0.32043,-0.0765 -0.48066,-0.11464 0.18064,-0.047 0.36128,-0.094 0.54191,-0.14097 -0.18877,-0.0421 -0.37753,-0.0842 -0.56628,-0.12641 0.18683,-0.0283 0.37366,-0.0566 0.56049,-0.0848 -0.0866,-0.031 -0.17318,-0.062 -0.25975,-0.0931 -0.0971,-0.0349 -0.19419,-0.0696 -0.29131,-0.10455 0.20393,-0.0287 0.40791,-0.0573 0.61194,-0.0852 -0.21223,-0.074 -0.42421,-0.14883 -0.63502,-0.22989 0.21566,-0.0449 0.43157,-0.0869 0.64776,-0.12454 -0.20407,-0.0555 -0.40733,-0.11557 -0.60942,-0.18278 0.19393,-0.017 0.38794,-0.0312 0.58203,-0.0423 -0.008,-0.003 -0.0162,-0.007 -0.0242,-0.01 -0.1578,-0.11173 -0.42477,-0.13922 -0.57694,-0.29781 0.22806,-0.0433 0.43471,-0.0276 0.54106,0.1614 -0.009,-2.9e-4 -0.0176,-0.001 -0.0247,-0.003 -0.0542,-0.14175 -0.0514,-0.29138 -0.0127,-0.44404 0.10756,0.12425 0.18098,0.26856 0.23708,0.42326 0.003,-0.19931 0.018,-0.40183 0.0416,-0.60637 0.0832,0.19176 0.1384,0.39726 0.19037,0.60287 0.0512,-0.15692 0.10822,-0.31436 0.16257,-0.46971 0.057,0.12065 0.11285,0.23958 0.18039,0.34849 0.0295,0.054 0.0588,0.10806 0.0879,0.16217 0.0317,-0.19835 0.064,-0.39664 0.0968,-0.59489 0.0336,0.19393 0.0665,0.38791 0.0989,0.58194 0.0984,-0.20226 0.19848,-0.40415 0.299,-0.60587 0.0307,0.22829 0.0611,0.4566 0.0915,0.68491 0.10149,-0.24141 0.20358,-0.48274 0.30474,-0.72422 0.0209,0.2337 0.042,0.46738 0.0634,0.70106 0.0634,-0.2256 0.12637,-0.45128 0.18833,-0.67709 0.0272,0.20531 0.0549,0.41058 0.0831,0.61582 0.09,-0.19691 0.17871,-0.39416 0.26509,-0.59192 0.0381,0.15808 0.0769,0.31607 0.11679,0.47395 0.0112,0.0419 0.0232,0.084 0.0358,0.1264 0.0846,-0.17854 0.14944,-0.3731 0.20766,-0.57483 0.0383,0.17681 0.0801,0.35539 0.12393,0.53513 0.0551,-0.18666 0.10344,-0.37911 0.15449,-0.57108 0.10895,0.19213 0.21959,0.38656 0.31393,0.57739 -0.0142,-0.24307 -0.0277,-0.48585 -0.0403,-0.72832 0.11126,0.22716 0.21045,0.45316 0.27697,0.67084 0.0623,-0.20648 0.14209,-0.40126 0.25057,-0.57727 0.0494,0.22611 0.0672,0.44384 0.0397,0.64804 0.0875,-0.17007 0.19637,-0.32728 0.33125,-0.46892 -0.01,0.17504 -0.0512,0.34147 -0.13292,0.49638 0.054,-0.0433 0.11249,-0.0837 0.17585,-0.12091 0.0782,-0.0467 0.16728,-0.0663 0.26316,-0.0671 -0.11514,0.15439 -0.28651,0.22863 -0.47642,0.27501 0.18611,-1.1e-4 0.39563,0.0584 0.59369,0.10579 -0.2005,0.0279 -0.40027,0.0525 -0.58765,0.0913 0.0403,0.0161 0.0803,0.0316 0.11963,0.0455 0.15077,0.0419 0.3012,0.0867 0.45133,0.1339 -0.20217,0.0391 -0.40454,0.0767 -0.60706,0.11307 0.21504,0.0631 0.42957,0.13118 0.64366,0.20217 -0.21352,0.0535 -0.42733,0.10513 -0.64134,0.1555 0.20678,0.0469 0.41343,0.0957 0.61994,0.14545 -0.19227,0.0303 -0.38458,0.0602 -0.5769,0.0898 0.11452,0.0376 0.229,0.0756 0.34344,0.11373 0.0924,0.0308 0.18482,0.0618 0.27718,0.093 -0.19739,0.0529 -0.39487,0.10512 -0.59243,0.15683 0.1512,0.0709 0.30225,0.14248 0.45316,0.21468 -0.15201,0.0645 -0.30412,0.12841 -0.45634,0.19189 0.1993,0.0198 0.39859,0.0399 0.59787,0.0601 -0.19196,0.0693 -0.38404,0.13797 -0.57623,0.20608 0.15404,0.04 0.30805,0.0803 0.46202,0.12086 -0.16351,0.0961 -0.32723,0.1916 -0.49111,0.28655 0.19915,0.0265 0.39829,0.0531 0.59741,0.08 -0.19287,0.0391 -0.38576,0.0779 -0.57869,0.11657 0.20526,0.0924 0.41039,0.18553 0.61541,0.27908 -0.22712,0.0384 -0.45426,0.0767 -0.68142,0.11468 0.24471,0.0931 0.48932,0.18683 0.73385,0.28088 -0.23293,0.0284 -0.46587,0.0566 -0.69881,0.0848 0.22739,0.0563 0.45475,0.11277 0.68209,0.1694 -0.20455,0.0328 -0.4091,0.0655 -0.61366,0.0982 0.14075,0.06 0.28149,0.11999 0.42221,0.18008 0.0582,0.0249 0.1163,0.0498 0.17443,0.0748 -0.19894,0.0514 -0.39795,0.1023 -0.597,0.15284 0.18159,0.0758 0.36307,0.15222 0.54451,0.22883 -0.17061,0.0223 -0.34121,0.0446 -0.51183,0.0667 0.1701,0.067 0.34015,0.13417 0.51021,0.20133 -0.18803,0.0784 -0.37607,0.15672 -0.56405,0.23536 0.22727,0.006 0.45454,0.0127 0.68181,0.019 -0.21639,0.0781 -0.43272,0.15648 -0.64895,0.23548 0.19865,0.067 0.39736,0.13365 0.59617,0.1996 -0.216,0.0649 -0.43188,0.13039 -0.64762,0.19684 0.19898,0.0423 0.39802,0.0842 0.59712,0.12541 -0.17015,0.0567 -0.34018,0.11398 -0.51008,0.17213 0.15951,0.0412 0.31909,0.0819 0.47874,0.12196 -0.18124,0.0441 -0.36239,0.089 -0.54345,0.1346 0.12168,0.0287 0.2434,0.057 0.36517,0.085 0.0671,0.0161 0.13518,0.0341 0.20389,0.0535 -0.18867,0.0258 -0.38209,0.0449 -0.57838,0.061 0.18162,0.0733 0.37186,0.16417 0.56014,0.24168 -0.21668,0.0152 -0.43292,0.0331 -0.64665,0.0576 0.22249,0.0986 0.44664,0.18413 0.65668,0.21066 -0.21131,0.0615 -0.4096,0.14714 -0.58758,0.26966 0.21677,0.0188 0.42252,-0.005 0.60893,-0.093 -0.11757,0.0898 -0.22775,0.19377 -0.32958,0.31362 -0.0264,0.0308 -0.052,0.0621 -0.0769,0.0941 0.23368,-0.0534 0.4156,-0.16699 0.55725,-0.31827 -0.0714,0.18201 -0.10967,0.3816 -0.12101,0.59093 0.14453,-0.10086 0.259,-0.23057 0.35146,-0.37165 0.0308,0.16334 0.0838,0.32928 0.15028,0.48809 0.0374,-0.20306 0.0669,-0.40619 0.09,-0.60742 0.0243,0.0865 0.0522,0.17187 0.0828,0.25483 0.04,0.10828 0.0853,0.21789 0.13724,0.32636 0.0371,-0.15799 0.0656,-0.31911 0.0821,-0.47962 0.11033,0.15383 0.24526,0.29793 0.41598,0.40747 -0.0342,-0.20029 -0.0819,-0.39532 -0.14468,-0.58293 0.10499,0.16361 0.22777,0.31502 0.37101,0.44985 0.001,-0.16431 -0.026,-0.31994 -0.0891,-0.45915 -0.028,-0.0594 -0.0638,-0.10873 -0.10609,-0.14972 0.1906,0.1106 0.39963,0.16931 0.6223,0.18782 -0.15914,-0.21971 -0.39216,-0.32875 -0.65529,-0.39525 0.23507,-0.0225 0.4768,-0.0638 0.72229,-0.11727 -0.23842,-0.0549 -0.49133,-0.0827 -0.74532,-0.10645 0.2149,-0.0628 0.43115,-0.13142 0.64543,-0.19793 -0.2288,-0.0594 -0.45724,-0.11251 -0.65573,-0.20405 0.0666,-0.0248 0.13243,-0.0475 0.19725,-0.0676 0.13348,-0.0384 0.26696,-0.0769 0.40044,-0.11532 -0.18385,-0.0704 -0.3677,-0.14083 -0.55156,-0.21127 0.16977,-0.0279 0.33954,-0.0558 0.50931,-0.0837 -0.17223,-0.0613 -0.34445,-0.12266 -0.51666,-0.18412 0.1853,-0.0847 0.37062,-0.16933 0.556,-0.25369 -0.22735,9.3e-4 -0.45471,0.002 -0.68206,0.003 0.21378,-0.0853 0.42762,-0.17042 0.64153,-0.25512 -0.20045,-0.0611 -0.40085,-0.1224 -0.60121,-0.18409 0.21437,-0.0706 0.42879,-0.14087 0.64329,-0.21066 -0.19973,-0.0383 -0.39944,-0.0768 -0.59912,-0.11558 0.16932,-0.0597 0.3387,-0.11901 0.50815,-0.17797 -0.15983,-0.0396 -0.31962,-0.0795 -0.47937,-0.11961 0.18113,-0.0451 0.3623,-0.0898 0.54352,-0.13417 -0.18815,-0.0444 -0.37626,-0.0893 -0.56431,-0.13452 0.18721,-0.0255 0.37444,-0.0509 0.56168,-0.0759 -0.18256,-0.0685 -0.365,-0.13759 -0.54731,-0.20744 0.20438,-0.0247 0.40879,-0.0492 0.61321,-0.0733 -0.21068,-0.0785 -0.42118,-0.15794 -0.63149,-0.23846 0.21589,-0.0424 0.43184,-0.0842 0.64786,-0.12532 -0.0308,-0.009 -0.0615,-0.0171 -0.0923,-0.0256 -0.17366,-0.0491 -0.34743,-0.0973 -0.52131,-0.14465 0.19313,-0.0235 0.38622,-0.0475 0.57928,-0.0719 -0.20492,-0.0753 -0.41013,-0.14904 -0.61558,-0.22126 0.19825,-0.0487 0.39639,-0.0984 0.5944,-0.14898 -0.1505,-0.0736 -0.30124,-0.14607 -0.45222,-0.21755 0.15191,-0.0643 0.30364,-0.12936 0.45519,-0.1952 -0.19947,-0.0182 -0.39895,-0.036 -0.59845,-0.0535 0.19107,-0.071 0.38194,-0.14296 0.57262,-0.21589 -0.15485,-0.0373 -0.30976,-0.0741 -0.46471,-0.1104 0.16099,-0.0998 0.32164,-0.20064 0.48198,-0.30243 -0.19998,-0.0196 -0.39997,-0.0389 -0.59997,-0.0579 0.19124,-0.0462 0.38242,-0.0928 0.57354,-0.13979 -0.20899,-0.0847 -0.41819,-0.16819 -0.62755,-0.25082 0.22496,-0.0493 0.44986,-0.0991 0.6747,-0.14926 -0.24928,-0.0811 -0.49871,-0.16104 -0.74823,-0.24021 0.11845,-0.0213 0.2369,-0.0428 0.35534,-0.0643 0.11258,-0.0205 0.22923,-0.0456 0.34887,-0.0734 -0.22548,-0.0504 -0.48851,-0.0709 -0.74937,-0.10615 0.22029,-0.0654 0.44539,-0.13033 0.66441,-0.17838 -0.23228,-0.0588 -0.45542,-0.13399 -0.58466,-0.31067 0.21398,-0.0314 0.40304,-0.004 0.54273,0.12264 -0.0435,-0.0395 -0.0745,-0.091 -0.0898,-0.15796 -0.0213,-0.12021 -0.0257,-0.24202 -0.0163,-0.36495 0.0919,0.14243 0.17325,0.28891 0.24509,0.43903 -0.008,-0.17374 0.0146,-0.35092 0.0575,-0.53004 0.1245,0.16115 0.22012,0.33777 0.30082,0.52337 -0.009,-0.22715 -0.0165,-0.45463 -0.0231,-0.68242 0.10382,0.20781 0.18445,0.42701 0.25813,0.65044 0.0679,-0.20124 0.14494,-0.40402 0.22063,-0.60638 0.0597,0.22449 0.1168,0.44995 0.18251,0.67175 0.0501,-0.20352 0.0968,-0.40651 0.13571,-0.60803 0.0535,0.17437 0.11331,0.34543 0.18595,0.51046 0.003,-0.0146 0.006,-0.0293 0.01,-0.0439 0.0261,-0.1448 0.059,-0.29488 0.0958,-0.44846 0.0528,0.18327 0.10021,0.3739 0.14627,0.56837 0.0458,-0.19738 0.0959,-0.39964 0.14479,-0.60334 0.0267,0.20154 0.0535,0.40427 0.0818,0.60708 0.0759,-0.19727 0.15057,-0.39766 0.21131,-0.59413 0.0341,0.21878 0.0721,0.43563 0.11574,0.64935 0.0789,-0.23418 0.14125,-0.46537 0.16835,-0.68306 0.076,0.21176 0.16669,0.41288 0.27701,0.59918 0.0123,-0.21844 -1e-4,-0.42653 -0.0461,-0.61892 0.0934,0.16093 0.19837,0.3135 0.31625,0.45658 -0.011,-0.21896 -0.0675,-0.42002 -0.18562,-0.59408 0.0789,0.0557 0.16528,0.10501 0.25986,0.14734 0.0923,0.0412 0.18867,0.0722 0.28816,0.094 -0.0704,-0.17195 -0.17751,-0.30148 -0.30485,-0.40163 0.15941,-0.01 0.32504,-0.0511 0.48887,-0.11189 -0.19651,-0.0495 -0.39616,-0.0887 -0.59719,-0.11926 0.19797,-0.0445 0.39693,-0.11702 0.58483,-0.20093 -0.0608,-0.0153 -0.12143,-0.0293 -0.18165,-0.0422 -0.0953,-0.0185 -0.19257,-0.0404 -0.28991,-0.0613 0.16019,-0.10339 0.32783,-0.19938 0.43158,-0.38133 -0.19766,0.0155 -0.38695,0.0548 -0.56305,0.12895 0.1507,-0.0903 0.28096,-0.21548 0.3811,-0.3921 0.004,-0.008 0.009,-0.017 0.0126,-0.0255 -0.28912,0.0219 -0.43376,0.18401 -0.53547,0.38527 0.0226,-0.22572 0.009,-0.4677 -0.0182,-0.71145 -0.12543,0.20465 -0.20142,0.44101 -0.30742,0.63365 -0.0147,0.0324 -0.0293,0.0648 -0.0437,0.0972 -0.0108,-0.2342 -0.0249,-0.46836 -0.0418,-0.70248 -0.0715,0.22375 -0.13735,0.44846 -0.19893,0.6739 -0.0249,-0.20535 -0.0523,-0.41062 -0.0818,-0.61579 -0.0913,0.19702 -0.17695,0.39538 -0.25972,0.59452 -0.0506,-0.19881 -0.10359,-0.39741 -0.15777,-0.59582 -0.0745,0.1827 -0.14684,0.36581 -0.21899,0.54891 -0.026,-0.17011 -0.0523,-0.34018 -0.0785,-0.51021 -0.009,0.0242 -0.0178,0.0485 -0.0267,0.0727 -0.0547,0.14736 -0.10788,0.295 -0.1609,0.44274 -0.0836,-0.18564 -0.16857,-0.37115 -0.25151,-0.55693 -3e-5,0.22741 -1.5e-4,0.45482 -3.6e-4,0.68222 -0.0853,-0.21425 -0.1695,-0.42882 -0.24883,-0.64412 -0.0633,0.19934 -0.12944,0.3981 -0.20091,0.59596 -0.0611,-0.20245 -0.11782,-0.40554 -0.16813,-0.60944 -0.005,-0.0156 -0.009,-0.0313 -0.0141,-0.0471 -0.0575,0.18799 -0.0963,0.40534 -0.14439,0.62364 -0.0634,-0.18107 -0.13239,-0.37741 -0.15454,-0.55225 -0.0519,0.16729 -0.12302,0.31983 -0.23569,0.43432 -9.8e-4,-0.19422 0.0455,-0.36429 0.17031,-0.48701 -0.0562,0.0612 -0.12738,0.10778 -0.21735,0.13574 -0.0942,0.0288 -0.19013,0.045 -0.28739,0.0502 0.15515,-0.1048 0.31766,-0.18716 0.48639,-0.25062 -0.1795,0.0149 -0.36407,-0.034 -0.54953,-0.11637 0.19964,-0.0341 0.4038,-0.0537 0.61126,-0.0627 -0.20237,-0.0664 -0.40919,-0.18151 -0.61415,-0.30037 0.22822,-0.0127 0.45845,-0.0181 0.68625,-0.0292 -0.20248,-0.0929 -0.40491,-0.18567 -0.60352,-0.25689 0.18042,-3.5e-4 0.35871,-0.006 0.53401,-0.0204 0.0176,-4.7e-4 0.0352,-8.5e-4 0.0527,-0.001 -0.20374,-0.0684 -0.39177,-0.17457 -0.56117,-0.31303 0.20323,-0.005 0.40204,0.0132 0.59488,0.0524 -0.11572,-0.10389 -0.21611,-0.23111 -0.2991,-0.37745 0.1624,0.0218 0.31905,0.0642 0.4678,0.12468 -0.14154,-0.13809 -0.27747,-0.28398 -0.40747,-0.43718 0.0239,0.008 0.0475,0.0173 0.071,0.0265 0.17886,0.0645 0.32154,0.15665 0.43602,0.27041 -0.0613,-0.13593 -0.0989,-0.28052 -0.11689,-0.4318 0.15944,0.0969 0.27793,0.23103 0.37483,0.38559 -0.0112,-0.19488 -0.0107,-0.39436 -9.6e-4,-0.59724 0.0647,0.18539 0.11668,0.37809 0.16006,0.57537 0.0715,-0.20845 0.17545,-0.42434 0.28294,-0.63621 0.0348,0.23881 0.0655,0.47841 0.0967,0.71564 0.10286,-0.24623 0.21058,-0.49087 0.29236,-0.72079 0.003,-0.008 0.006,-0.0155 0.009,-0.0232 0.0304,0.23291 0.0571,0.46597 0.081,0.69916 0.0563,-0.22671 0.11856,-0.45265 0.18349,-0.67815 0.0275,0.20544 0.0531,0.41099 0.0778,0.61661 0.0908,-0.19573 0.18518,-0.39089 0.27643,-0.58651 0.0433,0.20067 0.0874,0.4012 0.13476,0.60142 0.0727,-0.1587 0.14303,-0.31806 0.20777,-0.47859 0.01,-0.0219 0.0192,-0.044 0.029,-0.0662 0.0236,0.17014 0.043,0.34536 0.0629,0.52283 0.0711,-0.17078 0.15054,-0.3515 0.20244,-0.52714 0.0753,0.19503 0.1681,0.38148 0.32924,0.51926 -0.0575,-0.21474 -0.11883,-0.42781 -0.18416,-0.6391 0.0751,0.16108 0.18847,0.29437 0.3726,0.37537 0.0395,0.015 0.0801,0.0252 0.12175,0.031 -0.0792,-0.21571 -0.21928,-0.33655 -0.39662,-0.40482 0.18921,0.0314 0.40408,-0.0239 0.62843,-0.11355 -0.19513,-0.0498 -0.40493,-0.0748 -0.6204,-0.0927 0.16841,-0.0701 0.34384,-0.15927 0.51716,-0.23727 -0.1747,-0.0231 -0.34876,-0.0484 -0.51466,-0.0901 0.1826,-0.0613 0.36256,-0.10879 0.53441,-0.12645 0.007,-10e-4 0.014,-0.002 0.021,-0.003 -0.18083,-0.0543 -0.37063,-0.1194 -0.56054,-0.17501 0.19304,-0.0118 0.38686,-0.0261 0.5784,-0.048 -0.1858,-0.0875 -0.37553,-0.16257 -0.55162,-0.17917 0.19543,-0.0463 0.38273,-0.11 0.55859,-0.19668 -0.22416,-0.0601 -0.43752,-0.0544 -0.61612,0.0792 -0.005,0.003 -0.01,0.007 -0.0147,0.0102 0.14475,-0.16948 0.23078,-0.36412 0.27227,-0.57653 -0.17657,0.12526 -0.29773,0.28995 -0.38398,0.47887 0.0309,-0.18541 0.0441,-0.37848 0.0437,-0.57703 -0.13192,0.17813 -0.21496,0.39117 -0.28513,0.61076 -0.0441,-0.20835 -0.10354,-0.42073 -0.16209,-0.62899 -0.0761,0.16341 -0.14193,0.329 -0.22408,0.47417 -0.005,-0.013 -0.0104,-0.0259 -0.0155,-0.0388 -0.0532,-0.14169 -0.10853,-0.28296 -0.16533,-0.42391 -0.0248,0.19879 -0.0486,0.39765 -0.0716,0.59656 -0.0648,-0.19302 -0.13214,-0.38565 -0.20092,-0.578 -0.0411,0.15393 -0.0814,0.30798 -0.12108,0.4621 -0.0961,-0.16315 -0.19381,-0.32592 -0.29111,-0.48868 -0.0242,0.19947 -0.0484,0.39894 -0.0727,0.59841 -0.0415,-0.19239 -0.0828,-0.38479 -0.12373,-0.57723 -0.0897,0.2064 -0.18002,0.41257 -0.27341,0.61813 -0.0391,-0.22049 -0.077,-0.44108 -0.11351,-0.66179 -0.001,-0.006 -0.002,-0.0129 -0.004,-0.0193 -0.10208,0.24118 -0.18892,0.49413 -0.25627,0.75154 -0.0443,-0.23479 -0.0942,-0.46992 -0.15015,-0.70468 -0.0397,0.23771 -0.0684,0.47743 -0.085,0.7167 -0.0615,-0.20339 -0.12938,-0.4056 -0.2038,-0.60577 -0.0562,0.21868 -0.0958,0.43824 -0.11598,0.6539 -0.0991,-0.18427 -0.20842,-0.36326 -0.3287,-0.53492 -0.0204,0.20331 -0.0246,0.40314 -0.0104,0.59603 -0.0894,-0.1478 -0.18335,-0.29241 -0.2821,-0.43347 0.01,0.18622 0.0347,0.36688 0.0759,0.53948 -0.15604,-0.12264 -0.32803,-0.2279 -0.51718,-0.3111 0.13879,0.17592 0.2788,0.35085 0.42004,0.52478 -0.18288,-0.12401 -0.38533,-0.22496 -0.60888,-0.29752 0.0394,0.0756 0.0822,0.149 0.12871,0.21994 0.0686,0.10428 0.14029,0.20674 0.21481,0.30701 -0.20944,-0.0804 -0.42573,-0.15206 -0.64756,-0.2133 0.14157,0.14973 0.28786,0.29478 0.43852,0.43442 -0.17423,-0.046 -0.35195,-0.0847 -0.53241,-0.11527 0.11898,0.11803 0.24147,0.23144 0.36719,0.33964 -0.18209,-0.0481 -0.36649,-0.0896 -0.55277,-0.12381 0.15093,0.12621 0.30596,0.2453 0.46468,0.35644 -0.18334,-0.0513 -0.36785,-0.0983 -0.55341,-0.14086 0.14413,0.13775 0.29462,0.26419 0.45065,0.3774 -0.20257,-0.0381 -0.40606,-0.0708 -0.61031,-0.0981 0.18032,0.14197 0.36812,0.26686 0.5622,0.37183 -0.21819,3.4e-4 -0.43685,0.0119 -0.65547,0.0353 0.19457,0.0879 0.39273,0.16194 0.59385,0.2207 -0.19261,0.0123 -0.38525,0.0309 -0.57778,0.0559 0.17076,0.0746 0.34515,0.13468 0.52252,0.17889 0.0331,0.008 0.0666,0.0159 0.10036,0.0233 -0.19246,0.0601 -0.39018,0.1345 -0.59037,0.21393 0.161,0.0619 0.33004,0.11339 0.49777,0.17036 -0.151,0.0881 -0.30326,0.17419 -0.45384,0.24633 0.2096,3.3e-4 0.41771,0.005 0.62346,0.0171 -0.19618,0.0913 -0.39126,0.16587 -0.58062,0.20628 0.15336,0.0393 0.30033,0.0915 0.43836,0.16181 -0.17658,0.0781 -0.35205,0.11047 -0.52062,0.0661 0.15223,0.10307 0.29588,0.22583 0.42979,0.37088 0.004,0.007 0.008,0.0131 0.0121,0.0198 -0.22777,-0.049 -0.33273,-0.20854 -0.38954,-0.40407 0.0413,0.10807 -0.0391,0.27837 -0.0835,0.41036 -0.0267,0.074 -0.0561,0.14755 -0.0876,0.22067 -0.055,-0.2242 -0.10091,-0.44966 -0.14076,-0.67593 -0.0782,0.24643 -0.17745,0.49065 -0.27781,0.73341 -0.0235,-0.22152 -0.0455,-0.44303 -0.0677,-0.66434 -10e-4,-0.0121 -0.002,-0.0241 -0.004,-0.0362 -0.0602,0.22619 -0.12219,0.45213 -0.18535,0.67789 -0.0277,-0.20535 -0.0547,-0.41073 -0.0811,-0.61614 -0.0899,0.19638 -0.18139,0.39244 -0.27322,0.58836 -0.0449,-0.20051 -0.0893,-0.40105 -0.13378,-0.6016 -0.0817,0.17913 -0.16358,0.35824 -0.24481,0.53746 -0.0175,-0.17115 -0.035,-0.34229 -0.0529,-0.51342 -0.0718,0.16824 -0.14309,0.33661 -0.21331,0.50519 -0.0738,-0.18962 -0.14867,-0.37898 -0.22581,-0.56796 -0.009,0.22714 -0.0185,0.45428 -0.0276,0.68142 -0.0742,-0.21728 -0.15055,-0.43417 -0.23024,-0.65054 -0.002,0.006 -0.004,0.0112 -0.006,0.0168 -0.0666,0.19298 -0.12972,0.38647 -0.19009,0.58039 -0.0661,-0.21516 -0.13567,-0.42975 -0.20802,-0.64385 -0.0383,0.19987 -0.0749,0.3999 -0.11009,0.60005 -0.0608,-0.16847 -0.12348,-0.33662 -0.18749,-0.5045 -0.0361,0.16079 -0.0712,0.32168 -0.10553,0.48265 -0.0503,-0.17959 -0.10171,-0.35904 -0.15383,-0.53837 -0.0376,0.18981 -0.0743,0.3797 -0.11039,0.56964 -0.0338,-0.1859 -0.068,-0.37176 -0.10244,-0.55758 -0.0603,0.18576 -0.11962,0.37164 -0.17872,0.55752 -0.0214,-0.12101 -0.0429,-0.24201 -0.0644,-0.363 -0.0157,-0.0825 -0.0343,-0.16661 -0.0549,-0.25191 -0.0883,0.20372 -0.10807,0.46224 -0.19685,0.68261 -0.0748,-0.22789 -0.12665,-0.45199 -0.10974,-0.65274 -0.0358,0.21093 -0.1245,0.38882 -0.33352,0.49137 0.0352,-0.0822 0.0815,-0.16013 0.14031,-0.23321 0.0625,-0.079 0.12897,-0.15033 0.19918,-0.21452 -0.17683,0.12357 -0.38087,0.14107 -0.59866,0.095 0.16043,-0.11175 0.34433,-0.18309 0.54316,-0.22942 -0.14205,-0.037 -0.29411,-0.12062 -0.4473,-0.21812 0.1657,-0.0548 0.33991,-0.096 0.51052,-0.14299 -0.20991,-0.0502 -0.4196,-0.10045 -0.62753,-0.14708 0.21505,-0.0436 0.42607,-0.0902 0.61587,-0.16819 -0.0473,-0.0165 -0.0942,-0.0318 -0.14063,-0.0456 -0.11001,-0.0225 -0.21507,-0.0567 -0.31549,-0.10106 0.17362,-0.092 0.34671,-0.12386 0.51812,-0.11776 -0.16762,-0.0922 -0.32943,-0.19816 -0.48585,-0.31581 0.18533,0.0459 0.36603,0.10961 0.5424,0.18688 -0.10061,-0.13007 -0.18661,-0.28277 -0.26166,-0.44574 -0.0186,-0.046 -0.0345,-0.0934 -0.0479,-0.14194 0.19913,0.11845 0.3774,0.25672 0.5368,0.41178 -0.11212,-0.22032 -0.16011,-0.47448 -0.16015,-0.74572 0.13145,0.19098 0.25001,0.39149 0.35686,0.59977 -0.0448,-0.22403 -0.064,-0.45997 -0.0626,-0.70204 0.0949,0.18746 0.17907,0.38137 0.25385,0.57966 0.0276,-0.21331 0.0829,-0.43285 0.15495,-0.64768 0.0831,0.19698 0.15437,0.39706 0.21702,0.59518 0.0424,-0.14119 0.0914,-0.28023 0.14375,-0.41401 0.0201,-0.0499 0.0421,-0.10038 0.0656,-0.15119 0.0266,0.17174 0.0464,0.34751 0.0614,0.52632 0.0679,-0.1704 0.15425,-0.3467 0.24374,-0.52405 0.0703,0.2058 0.13089,0.41914 0.20404,0.62545 0.026,-0.24302 0.0515,-0.48585 0.0764,-0.72849 0.0594,0.24041 0.12399,0.47723 0.21961,0.69417 0.0762,-0.20961 0.13106,-0.41456 0.14705,-0.6089 0.0759,0.20828 0.18295,0.39628 0.33892,0.55331 -0.0167,-0.19645 -0.062,-0.38372 -0.14311,-0.55913 0.084,0.0924 0.18791,0.17121 0.3166,0.23362 0.0377,0.0177 0.0765,0.0331 0.11634,0.0463 -0.0781,-0.1501 -0.17947,-0.27595 -0.29827,-0.38126 0.16477,0.072 0.34534,0.11377 0.53565,0.13089 -0.14685,-0.12775 -0.31365,-0.22962 -0.49209,-0.31103 0.18816,0.0287 0.38114,0.045 0.57693,0.0506 -0.16506,-0.12089 -0.34975,-0.2114 -0.53518,-0.28274 0.21349,-0.0117 0.42659,-0.0319 0.63706,-0.0586 -0.13955,-0.0618 -0.28039,-0.11211 -0.4154,-0.15521 -0.0784,-0.0243 -0.158,-0.0436 -0.23786,-0.0577 0.21114,-0.0582 0.41964,-0.13727 0.61988,-0.23809 -0.2171,-0.0275 -0.4335,-0.0274 -0.64057,0.003 0.17509,-0.085 0.34477,-0.18128 0.50746,-0.28905 -0.22783,-0.005 -0.44607,0.0313 -0.63941,0.11471 0.0939,-0.0996 0.17803,-0.21004 0.2505,-0.33149 0.0298,-0.057 0.0518,-0.11711 0.0669,-0.17987 -0.20694,0.0349 -0.3285,0.14368 -0.41239,0.2862 -0.0222,-0.15574 -0.0921,-0.32598 -0.17104,-0.49414 -0.027,0.21203 -0.0453,0.42821 -0.0609,0.64448 -0.0743,-0.2055 -0.16713,-0.41546 -0.2224,-0.6046 -0.0167,0.0789 -0.0351,0.15564 -0.057,0.22905 -0.0258,0.0792 -0.0513,0.15846 -0.0764,0.23777 -0.0864,-0.16829 -0.17557,-0.33589 -0.26677,-0.50292 -0.0337,0.1981 -0.0667,0.39629 -0.099,0.59454 -0.0329,-0.19389 -0.0668,-0.38772 -0.10148,-0.58149 -0.0987,0.20301 -0.195,0.40659 -0.29,0.61055 -0.0354,-0.22754 -0.0715,-0.45504 -0.1081,-0.6825 -0.0962,0.24398 -0.19065,0.48827 -0.28471,0.73268 -0.0278,-0.233 -0.0558,-0.46598 -0.0838,-0.69894 -0.0567,0.22738 -0.1131,0.45479 -0.16964,0.68216 -0.0181,-0.11277 -0.0362,-0.22553 -0.0542,-0.33829 -0.0148,-0.0918 -0.0316,-0.1833 -0.0504,-0.27454 -0.0919,0.2012 -0.15834,0.40689 -0.20111,0.61361 -0.0717,-0.18997 -0.15783,-0.37616 -0.25739,-0.55744 -0.0436,0.19532 -0.068,0.39098 -0.0743,0.58451 -0.0727,-0.15529 -0.15045,-0.30866 -0.23314,-0.4599 -0.0101,0.18493 -0.005,0.36803 0.0133,0.54751 -0.14285,-0.14039 -0.30194,-0.26954 -0.47498,-0.38503 0.11162,0.19833 0.22421,0.3961 0.33777,0.5933 -0.16146,-0.14465 -0.33866,-0.27629 -0.52932,-0.39242 -0.008,-0.005 -0.0166,-0.01 -0.025,-0.0146 0.0594,0.20476 0.13905,0.39703 0.22986,0.58292 -0.18666,-0.12123 -0.38568,-0.22863 -0.58854,-0.33109 0.11007,0.1716 0.22458,0.34004 0.33994,0.50795 -0.16158,-0.078 -0.32547,-0.15349 -0.48677,-0.23176 0.0786,0.128 0.15628,0.25653 0.23074,0.38716 0.008,0.0123 0.0154,0.0246 0.0232,0.0367 -0.15542,-0.10147 -0.31809,-0.19282 -0.48706,-0.27402 0.10706,0.16269 0.22403,0.31613 0.34975,0.46011 -0.16183,-0.0953 -0.32736,-0.18493 -0.49625,-0.26892 0.1037,0.16868 0.2214,0.32419 0.35058,0.46599 -0.18842,-0.0804 -0.38001,-0.15466 -0.57441,-0.22271 0.14489,0.17745 0.30522,0.33679 0.47725,0.47719 -0.21484,-0.042 -0.43339,-0.0721 -0.65449,-0.0905 0.17546,0.12414 0.35801,0.23487 0.54585,0.33189 -0.1932,-0.0245 -0.38755,-0.0432 -0.58273,-0.056 0.1835,0.12572 0.37517,0.2332 0.57179,0.32173 -0.20268,0.0195 -0.40534,0.051 -0.60667,0.0945 0.0718,0.0471 0.14473,0.0904 0.21854,0.12995 0.0746,0.0393 0.1529,0.0734 0.23379,0.10422 -0.15179,0.0683 -0.30705,0.15292 -0.46271,0.24183 0.21202,5.7e-4 0.42571,-0.002 0.64017,-0.006 -0.19418,0.0949 -0.39081,0.19767 -0.58508,0.29065 0.16921,0.0215 0.33731,0.0448 0.50171,0.0751 -0.16445,0.12095 -0.32862,0.22678 -0.48646,0.28612 0.19759,0.0312 0.38961,0.0741 0.57472,0.13172 -0.19346,0.0214 -0.38149,0.0231 -0.56222,-5.4e-4 0.17819,0.10222 0.3212,0.25355 0.40948,0.48726 -0.088,-0.0376 -0.17396,-0.0822 -0.25759,-0.13457 -0.11173,-0.0698 -0.1933,-0.16056 -0.25156,-0.26686 0.16785,0.17934 0.0542,0.46734 -0.0757,0.72404 -0.0316,-0.24409 -0.0438,-0.49347 -0.0583,-0.73148 -0.0245,0.0824 -0.0505,0.1639 -0.0747,0.24261 -0.0445,0.14734 -0.0886,0.29478 -0.13199,0.44234 -0.0231,-0.2058 -0.0469,-0.41159 -0.0716,-0.61735 -0.0939,0.19527 -0.18583,0.39109 -0.27463,0.58758 -0.0449,-0.2002 -0.0916,-0.40021 -0.14045,-0.59994 -0.0801,0.18043 -0.15753,0.36148 -0.23144,0.5432 -0.0226,-0.17043 -0.0461,-0.34078 -0.0708,-0.51106 -0.0665,0.17078 -0.13014,0.3421 -0.19033,0.51403 -0.0619,-0.14024 -0.12627,-0.2799 -0.19358,-0.41889 -0.0207,-0.0454 -0.0409,-0.0913 -0.0608,-0.13775 0.002,0.22917 0.004,0.45873 0.005,0.68866 -0.0924,-0.21135 -0.17418,-0.43316 -0.25568,-0.65823 -0.0676,0.20486 -0.13845,0.41261 -0.20546,0.62045 -0.0673,-0.22495 -0.13622,-0.4505 -0.2139,-0.67192 -0.0412,0.20844 -0.0781,0.41628 -0.10792,0.62228 -0.0629,-0.17394 -0.13203,-0.3444 -0.21144,-0.5086 -0.0292,0.16646 -0.0512,0.33115 -0.0637,0.4931 -0.0652,-0.17518 -0.13959,-0.34511 -0.22559,-0.50819 -0.0117,0.1936 -0.01,0.3833 0.008,0.56768 -0.0724,-0.16894 -0.1524,-0.33384 -0.2408,-0.49421 -0.0157,0.19456 -0.007,0.38337 0.0349,0.56363 -0.11299,-0.16283 -0.23667,-0.31984 -0.37197,-0.47049 0.0152,0.13483 0.0452,0.26596 0.0926,0.39246 0.0316,0.0833 0.0734,0.15679 0.12369,0.22228 -0.17659,-0.11944 -0.37557,-0.2 -0.59005,-0.25108 0.13165,0.16754 0.29496,0.29965 0.47674,0.40944 -0.18765,-0.0455 -0.38164,-0.0795 -0.57999,-0.10447 0.16987,0.14613 0.36646,0.26093 0.5654,0.36719 -0.21135,0.0106 -0.42506,0.031 -0.6335,0.0505 0.0984,0.0687 0.1967,0.1339 0.28865,0.20111 0.0435,0.0308 0.0872,0.0612 0.13105,0.0911 -0.16057,0.0363 -0.32088,0.0765 -0.48088,0.12035 0.19414,0.0493 0.38858,0.0968 0.58332,0.14262 -0.19907,0.0404 -0.3979,0.0858 -0.59641,0.1356 0.1486,0.0579 0.29776,0.11354 0.4474,0.16716 -0.17135,0.079 -0.34175,0.16332 -0.51117,0.25198 0.1972,0.0391 0.39464,0.0765 0.59228,0.11255 -0.19455,0.0285 -0.38906,0.059 -0.58348,0.0914 0.20151,0.1032 0.40449,0.20132 0.60847,0.29542 -0.22778,0.0345 -0.45545,0.071 -0.68297,0.10924 0.24453,0.097 0.49002,0.18908 0.73598,0.27758 -0.23265,0.0312 -0.46517,0.0636 -0.69755,0.097 0.13993,0.0324 0.2799,0.0639 0.41987,0.0949 0.0887,0.0197 0.17745,0.0396 0.26614,0.0597 -0.20371,0.0379 -0.40748,0.0751 -0.6113,0.11166 0.2006,0.0799 0.40086,0.16155 0.60083,0.2445 -0.19814,0.0545 -0.3964,0.10811 -0.59477,0.16094 0.18249,0.0733 0.36477,0.14758 0.54687,0.22275 -0.17035,0.024 -0.34071,0.0478 -0.5111,0.0713 0.17061,0.0653 0.34108,0.1313 0.51145,0.19785 -0.18758,0.0797 -0.37534,0.15864 -0.56323,0.23702 0.22725,0.006 0.4545,0.0123 0.68175,0.0185 -0.21631,0.0789 -0.43274,0.15701 -0.64926,0.23473 0.19836,0.0675 0.39668,0.1353 0.59496,0.20332 -0.21651,0.0636 -0.43307,0.12698 -0.64963,0.19028 0.19846,0.0445 0.39692,0.0891 0.59538,0.1337 -0.17103,0.0544 -0.34205,0.10883 -0.51307,0.16334 0.1587,0.0441 0.3174,0.0882 0.47612,0.13214 -0.18223,0.0403 -0.36444,0.0807 -0.54664,0.12121 0.18712,0.049 0.37427,0.0978 0.56144,0.14632 -0.18768,0.0218 -0.37536,0.0436 -0.56304,0.0657 0.18137,0.0722 0.36282,0.14402 0.54437,0.21528 -0.20466,0.0223 -0.40931,0.0447 -0.61395,0.0674 0.21002,0.0813 0.42018,0.16185 0.63052,0.24142 -0.21588,0.042 -0.43171,0.0844 -0.64748,0.12754 0.12399,0.0341 0.24801,0.068 0.37208,0.10164 0.0808,0.0219 0.16345,0.042 0.24711,0.0615 -0.19447,0.0272 -0.39187,0.0581 -0.59069,0.0892 0.20977,0.0717 0.42886,0.13579 0.63614,0.22504 -0.20672,0.0522 -0.41268,0.0932 -0.61226,0.10864 0.14878,0.0711 0.28453,0.16049 0.39024,0.29253 -0.15623,0.0146 -0.30648,-0.005 -0.44541,-0.0745 -0.006,-0.004 -0.0125,-0.007 -0.0186,-0.011 0.15588,0.12822 0.28483,0.27651 0.39227,0.44059 -0.20428,-0.0686 -0.3504,-0.2031 -0.47712,-0.36174 0.0393,0.14821 0.0581,0.30951 0.0711,0.47351 -0.13916,-0.10776 -0.2618,-0.23419 -0.41289,-0.32274 -0.0128,-0.0122 -0.0252,-0.0246 -0.0373,-0.0372 0.0559,0.19232 0.0964,0.38742 0.12377,0.58482 -0.10131,-0.16882 -0.18461,-0.34402 -0.25377,-0.5242 -0.0261,0.21247 -0.0982,0.42675 -0.19036,0.63958 -0.0562,-0.22389 -0.10151,-0.45106 -0.14049,-0.67995 -0.0789,0.2467 -0.18291,0.49473 -0.28129,0.7395 -0.025,-0.23618 -0.0496,-0.47187 -0.0766,-0.70618 -0.0368,0.13828 -0.0727,0.27614 -0.10564,0.41313 -0.0216,0.0907 -0.0419,0.18245 -0.0615,0.2749 -0.0352,-0.20441 -0.0749,-0.41122 -0.11441,-0.61899 -0.0809,0.2035 -0.1571,0.41191 -0.25432,0.61112 -0.0559,-0.20381 -0.10265,-0.40737 -0.12949,-0.60759 -0.0782,0.17867 -0.17476,0.34732 -0.30829,0.49585 0.0139,-0.16922 0.0385,-0.33586 0.0759,-0.49928 -0.0852,0.12327 -0.19182,0.23443 -0.32864,0.32888 -0.018,0.0163 -0.0356,0.0329 -0.0529,0.0498 0.0357,-0.19441 0.0295,-0.40208 0.0204,-0.60871 -0.0892,0.21007 -0.17786,0.4204 -0.26614,0.63093 0.0103,-0.22855 0.003,-0.46412 0.0232,-0.68939 -0.13289,0.16004 -0.27531,0.31153 -0.45088,0.43816 0.0116,-0.0734 0.0266,-0.14576 0.0459,-0.21651 0.0393,-0.15372 0.10668,-0.28395 0.1956,-0.39405 -0.15699,0.11483 -0.3363,0.19608 -0.53101,0.24889 0.0989,-0.15077 0.22804,-0.27218 0.37495,-0.37037 -0.15822,0.0223 -0.32521,0.0243 -0.49547,0.0102 0.16639,-0.0919 0.34356,-0.16535 0.52415,-0.2243 -0.19529,-0.0138 -0.39302,-0.0464 -0.58516,-0.0917 0.19038,-0.0368 0.38029,-0.0661 0.56739,-0.0892 -0.0288,-0.009 -0.0573,-0.0185 -0.0856,-0.0283 -0.1542,-0.0599 -0.30845,-0.11943 -0.46276,-0.17871 0.20447,-0.0238 0.40894,-0.0478 0.6134,-0.072 -0.2106,-0.0796 -0.42129,-0.15868 -0.63206,-0.23737 0.01,-0.002 0.63685,-0.12836 0.64688,-0.13037 -0.20498,-0.0554 -0.40999,-0.11044 -0.61503,-0.16535 0.19299,-0.0248 0.38598,-0.0497 0.57897,-0.0746 -0.20523,-0.0738 -0.4105,-0.14739 -0.6158,-0.22081 0.19841,-0.0486 0.3968,-0.0973 0.59519,-0.14604 -0.15001,-0.0739 -0.30004,-0.14777 -0.45008,-0.22158 0.15277,-0.0625 0.30554,-0.12497 0.45831,-0.18744 -0.19913,-0.0217 -0.39826,-0.0434 -0.59738,-0.0651 0.1925,-0.0675 0.38501,-0.13505 0.57754,-0.20244 -0.15385,-0.0409 -0.30769,-0.0819 -0.46151,-0.12298 0.16387,-0.0954 0.32779,-0.19062 0.49179,-0.28554 -0.19912,-0.0268 -0.39822,-0.0537 -0.59732,-0.0806 0.1929,-0.0389 0.38582,-0.0776 0.57875,-0.1162 -0.0619,-0.0279 -0.12374,-0.0559 -0.1856,-0.0839 -0.14332,-0.0641 -0.28595,-0.13101 -0.42804,-0.20001 0.22767,-0.0356 0.45549,-0.069 0.68343,-0.10068 -0.24244,-0.0967 -0.48389,-0.19861 -0.72476,-0.30284 0.23384,-0.02 0.46772,-0.0392 0.70162,-0.0578 -0.22501,-0.0648 -0.44984,-0.13098 -0.6746,-0.19757 0.0567,-0.007 0.56082,-0.0648 0.61749,-0.0715 -0.1951,-0.0933 -0.39013,-0.1872 -0.58539,-0.27969 0.20086,-0.0428 0.40164,-0.0861 0.60228,-0.13073 -0.17895,-0.0829 -0.35821,-0.16448 -0.53801,-0.24346 0.17097,-0.0184 0.3419,-0.0375 0.51278,-0.0575 -0.16896,-0.0707 -0.33837,-0.13941 -0.50838,-0.20502 0.18792,-0.0765 0.37505,-0.15665 0.56117,-0.24213 -0.16672,-8.8e-4 -0.33344,-0.002 -0.50016,-0.002 -0.0607,-3.5e-4 -0.12136,-8.1e-4 -0.18208,-0.001 0.20914,-0.10079 0.43422,-0.1703 0.66712,-0.22602 -0.19804,-0.081 -0.3985,-0.17711 -0.59904,-0.27694 0.23464,-0.0422 0.47274,-0.0764 0.70905,-0.11466 -0.20317,-0.0746 -0.40624,-0.14868 -0.60808,-0.21763 0.18687,-0.0333 0.37166,-0.0699 0.55126,-0.11683 -0.16144,-0.0613 -0.32173,-0.11611 -0.48001,-0.1608 0.18802,-0.0304 0.3715,-0.0703 0.54869,-0.12403 -0.19008,-0.0498 -0.37737,-0.0846 -0.56062,-0.0993 0.17955,-0.0395 0.35539,-0.0882 0.52702,-0.14754 -0.18917,-0.0517 -0.37498,-0.0735 -0.55522,-0.0535 0.17471,-0.0871 0.34388,-0.18841 0.50694,-0.30535 -0.13484,-0.005 -0.26746,0.009 -0.39713,0.046 -0.0855,0.0249 -0.15769,0.0645 -0.21907,0.1158 0.12705,-0.16685 0.20118,-0.36577 0.2358,-0.58521 -0.16614,0.13199 -0.28447,0.30744 -0.37322,0.50479 0.0271,-0.193 0.0389,-0.39369 0.0391,-0.59871 -0.13125,0.18734 -0.22045,0.40701 -0.29913,0.61932 -0.0395,-0.2132 -0.0903,-0.42456 -0.13698,-0.6212 -0.0146,0.0272 -0.0289,0.0542 -0.0429,0.0806 -0.0622,0.11697 -0.12941,0.24773 -0.18733,0.38137 -0.0654,-0.15902 -0.14034,-0.32045 -0.23825,-0.46586 -0.004,0.21131 0.001,0.4199 0.0196,0.62295 -0.0864,-0.19099 -0.20003,-0.36362 -0.36089,-0.49132 0.007,0.1635 0.0394,0.31583 0.1046,0.45007 -0.0751,-0.0459 -0.1644,-0.0735 -0.27229,-0.0756 -0.0934,-0.002 -0.18928,0.0138 -0.28592,0.0419 0.1629,0.11508 0.33642,0.21003 0.51802,0.2886 -0.18845,-0.033 -0.38494,-0.0404 -0.58552,-0.0299 0.17399,0.15654 0.38137,0.26075 0.58711,0.35407 -0.23336,0.0284 -0.46622,0.066 -0.6938,0.10418 0.0517,0.0204 0.10319,0.0401 0.15422,0.0594 0.19415,0.0798 0.39047,0.14841 0.58804,0.20811 -0.2314,0.0373 -0.46235,0.079 -0.69277,0.12473 0.0756,0.0148 0.1513,0.0287 0.22701,0.0418 0.15546,0.0269 0.3111,0.0506 0.46679,0.0696 -0.0107,0.003 -0.0213,0.005 -0.032,0.008 l 10e-4,0.0256 c -0.0995,0.018 -0.19876,0.0375 -0.29791,0.0555 -0.0767,0.0133 -0.15339,0.027 -0.23009,0.0403 0,0 0,0 0,0 -0.0154,0.003 -0.0308,0.005 -0.0462,0.008 0.0676,0.0273 0.13521,0.0546 0.2028,0.082 0.1329,0.0537 0.26578,0.10755 0.39864,0.16139 -0.19788,0.0551 -0.39577,0.11017 -0.59367,0.16517 0.013,0.005 0.0261,0.0103 0.0391,0.0154 0.17013,0.067 0.34024,0.13399 0.51034,0.20111 -0.17003,0.0263 -0.34006,0.0525 -0.51009,0.0787 0.002,7.1e-4 0.51284,0.18854 0.51477,0.18925 -0.003,0.001 -0.55578,0.24704 -0.55845,0.24823 0.22734,10e-4 0.45468,0.003 0.68203,0.004 -0.21458,0.0832 -0.42919,0.16626 -0.64382,0.24922 0.19991,0.0629 0.39981,0.12582 0.5997,0.18886 -0.0295,0.009 -0.0589,0.0189 -0.0884,0.0283 -0.18541,0.0594 -0.37084,0.11873 -0.55628,0.178 0.19951,0.0395 0.39901,0.0791 0.5985,0.1188 -0.16961,0.0587 -0.33923,0.11734 -0.50887,0.17592 0.15971,0.0402 0.31941,0.0804 0.47911,0.12072 -0.18122,0.0446 -0.36244,0.0892 -0.54368,0.13375 0.18816,0.0446 0.37632,0.0893 0.56446,0.13403 -0.18718,0.0258 -0.37436,0.0516 -0.56154,0.0773 0.18277,0.0683 0.36552,0.1366 0.54826,0.20504 -0.20425,0.0259 -0.4085,0.0517 -0.61275,0.0775 0.21126,0.0774 0.4225,0.15499 0.63371,0.23267 -0.2154,0.0446 -0.4308,0.0892 -0.64622,0.13371 0.20522,0.0542 0.41043,0.1085 0.61563,0.16289 -0.19292,0.0254 -0.38584,0.0509 -0.57877,0.0762 0.2054,0.0731 0.41078,0.14636 0.61613,0.21973 -0.19837,0.0488 -0.39676,0.0976 -0.59515,0.1463 0.15001,0.0738 0.29999,0.14769 0.44995,0.22169 -0.15283,0.0624 -0.30569,0.12463 -0.45855,0.18683 0.19909,0.022 0.39817,0.044 0.59726,0.066 -0.19262,0.0673 -0.38525,0.13441 -0.57791,0.20143 0.15377,0.0412 0.30752,0.0825 0.46127,0.12384 -0.16405,0.0951 -0.32814,0.19 -0.49228,0.28478 0.19907,0.0271 0.39814,0.0542 0.59721,0.0814 -0.19295,0.0386 -0.38591,0.0772 -0.57887,0.11565 0.0902,0.0409 0.18045,0.0818 0.27066,0.1227 0.11475,0.0529 0.23162,0.10118 0.3499,0.14471 -0.22663,0.0453 -0.4535,0.0977 -0.67983,0.15737 0.25354,0.0857 0.51208,0.15291 0.77076,0.20003 -0.22978,0.0617 -0.45846,0.12909 -0.68557,0.20222 0.23849,0.0209 0.47648,0.0308 0.71236,0.0291 -0.19536,0.076 -0.38859,0.15789 -0.57912,0.2457 0.2189,0.0383 0.43633,0.0608 0.64908,0.0664 -0.17331,0.11027 -0.34104,0.22941 -0.5019,0.35756 0.19998,0.006 0.39591,-0.002 0.58546,-0.0241 -0.14038,0.0957 -0.27791,0.19504 -0.41237,0.29816 0.18191,-0.0192 0.35864,-0.0505 0.52852,-0.0945 -0.11522,0.15893 -0.21602,0.33006 -0.2995,0.51352 0.17302,-0.13664 0.34525,-0.27418 0.51667,-0.41263 -0.12018,0.18315 -0.22198,0.38073 -0.30203,0.59299 0.18444,-0.0906 0.35795,-0.19666 0.51858,-0.3189 -0.086,0.19776 -0.15371,0.40803 -0.20096,0.63103 0.14242,-0.14029 0.27576,-0.29039 0.39923,-0.45052 8.2e-4,-0.001 0.002,-0.002 0.002,-0.003 -0.0344,0.17514 -0.0579,0.35225 -0.0717,0.53098 0.10577,-0.12617 0.20533,-0.25545 0.29913,-0.38758 -0.0309,0.18157 -0.0542,0.36478 -0.0706,0.5494 0.10907,-0.15836 0.21075,-0.32025 0.3057,-0.48528 -0.0335,0.18349 -0.0633,0.36796 -0.0894,0.55334 0.12123,-0.1526 0.23274,-0.31048 0.33597,-0.47274 -0.0229,0.20266 -0.0421,0.40619 -0.058,0.61051 0.126,-0.18695 0.24082,-0.37964 0.34657,-0.57673 0.007,0.21881 0.0205,0.43861 0.0387,0.65913 0.0851,-0.19547 0.16404,-0.39347 0.23778,-0.59339 0.004,0.19533 0.0106,0.39103 0.0192,0.58703 0.0964,-0.19822 0.18573,-0.39932 0.2699,-0.60217 0.0352,0.20279 0.074,0.40575 0.11573,0.60858 0.0841,-0.14793 0.16427,-0.29726 0.24194,-0.44705 0.0586,0.15612 0.11947,0.31177 0.18153,0.46661 0.025,-0.20087 0.0493,-0.40161 0.073,-0.60213 0.0653,0.19519 0.13244,0.3895 0.19987,0.58241 0.0399,-0.14704 0.0792,-0.29366 0.11844,-0.43962 0.002,-0.008 0.004,-0.0152 0.006,-0.0229 0.0953,0.16335 0.19019,0.32949 0.28783,0.49604 0.027,-0.2012 0.0536,-0.40292 0.0794,-0.60499 0.04,0.19506 0.0811,0.39051 0.12377,0.58596 0.0935,-0.20928 0.18401,-0.42039 0.26689,-0.63189 0.0471,0.22897 0.0971,0.45736 0.15075,0.68474 0.0855,-0.25394 0.16212,-0.50845 0.22459,-0.76169 0.0508,0.23089 0.10533,0.46061 0.16389,0.6889 0.0325,-0.23472 0.0573,-0.4684 0.0728,-0.70035 0.0622,0.19736 0.1289,0.39295 0.20067,0.58644 0.0525,-0.2121 0.0922,-0.42312 0.11563,-0.63189 0.0943,0.17884 0.19706,0.35345 0.30952,0.52308 0.0231,-0.19567 0.0326,-0.38955 0.026,-0.58078 0.0828,0.14737 0.16984,0.29282 0.26137,0.4362 -0.003,-0.18227 -0.019,-0.36238 -0.0499,-0.53969 0.0628,0.0538 0.12838,0.10578 0.19706,0.1557 0.0955,0.0699 0.19654,0.13128 0.30244,0.18443 -0.12757,-0.18309 -0.2563,-0.36498 -0.38617,-0.54569 0.17566,0.1369 0.36993,0.24595 0.57917,0.32954 -0.0845,-0.18735 -0.18659,-0.36046 -0.30392,-0.52024 0.19388,0.0891 0.39999,0.15839 0.61584,0.20947 -0.13599,-0.14294 -0.28047,-0.27705 -0.43246,-0.40272 0.16682,0.039 0.33997,0.0657 0.51799,0.0812 -0.12227,-0.10651 -0.25025,-0.20653 -0.38315,-0.30038 0.18029,0.0318 0.36467,0.0551 0.55223,0.0703 -0.15932,-0.10976 -0.32464,-0.21146 -0.4948,-0.30558 0.18687,0.032 0.37559,0.0596 0.56587,0.0829 -0.15684,-0.12204 -0.32165,-0.23321 -0.49181,-0.33442 0.20892,0.0184 0.41905,0.0325 0.63007,0.0424 -0.19575,-0.12534 -0.39883,-0.23724 -0.60535,-0.33706 0.22486,-0.0158 0.45007,-0.0387 0.67455,-0.0683 -0.20478,-0.0793 -0.41121,-0.15024 -0.61745,-0.21354 0.19848,-0.0144 0.39642,-0.032 0.59348,-0.0525 -0.20759,-0.0875 -0.41555,-0.1644 -0.62052,-0.232 0.0599,-0.0145 0.11958,-0.0294 0.17893,-0.0449 z" id="use50" sodipodi:nodetypes="zsssssssssssssssszsssssssszzzzzzsssssssssssssssszszssszszzzczzzz"/>
  </g>
</svg>